STARTFONT 2.1
COMMENT
COMMENT  Copyright (C) 1988  The Institute of Software, Academia Sinica.
COMMENT
COMMENT  Correspondence Address:  P.O.Box 8718, Beijing, China 100080.
COMMENT
COMMENT  Permission to use, copy, modify, and distribute this software and
COMMENT  its documentation for any purpose and without fee is hereby granted,
COMMENT  provided that the above copyright notices appear in all copies and
COMMENT  that both those copyright notices and this permission notice appear
COMMENT  in supporting documentation, and that the name of "the Institute of
COMMENT  Software, Academia Sinica" not be used in advertising or publicity
COMMENT  pertaining to distribution of the software without specific, written
COMMENT  prior permission.  The Institute of Software, Academia Sinica,
COMMENT  makes no representations about the suitability of this software
COMMENT  for any purpose.  It is provided "as is" without express or
COMMENT  implied warranty.
COMMENT
COMMENT  THE INSTITUTE OF SOFTWARE, ACADEMIA SINICA, DISCLAIMS ALL WARRANTIES
COMMENT  WITH REGARD TO THIS SOFTWARE, INCLUDING ALL IMPLIED WARRANTIES OF
COMMENT  MERCHANTABILITY AND FITNESS, IN NO EVENT SHALL THE INSTITUTE OF
COMMENT  SOFTWARE, ACADEMIA SINICA, BE LIABLE FOR ANY SPECIAL, INDIRECT OR
COMMENT  CONSEQUENTIAL DAMAGES OR ANY DAMAGES WHATSOEVER RESULTING FROM
COMMENT  LOSS OF USE, DATA OR PROFITS, WHETHER IN AN ACTION OF CONTRACT,
COMMENT  NEGLIGENCE OR OTHER TORTIOUS ACTION, ARISING OUT OF OR IN CONNECTION
COMMENT  WITH THE USE OR PERFORMANCE OF THIS SOFTWARE.
COMMENT
COMMENT
COMMENT  This is a hanzi guobiao (GB) code 16x16 song ti font.
COMMENT  GB stands for the National Standard GB2312-80 of
COMMENT  the People's Republic of China.
COMMENT
COMMENT  The font is in GL encoding, that is, the most signicant bit in
COMMENT  the 2-byte hanzi code is both '0'.
COMMENT
FONT -ISAS-Song ti-Medium-R-Normal--16-160-72-72-c-160-GB2312.1980-0
SIZE 16 72 72
FONTBOUNDINGBOX 16 16 0 -2
STARTPROPERTIES 19

STARTCHAR 0x2121
ENCODING 8481
SWIDTH 1000 0
DWIDTH 16 0
BBX 16 16 0 -2
BITMAP
0000
0000
0000
0000
0000
0000
0000
0000
0000
0000
0000
0000
0000
0000
0000
0000
ENDCHAR
STARTCHAR 0x2122
ENCODING 8482
SWIDTH 1000 0
DWIDTH 16 0
BBX 16 16 0 -2
BITMAP
0000
0000
0000
0000
0000
0000
0000
0000
0000
0000
3000
1e00
0f00
0700
0000
0000
ENDCHAR
STARTCHAR 0x2123
ENCODING 8483
SWIDTH 1000 0
DWIDTH 16 0
BBX 16 16 0 -2
BITMAP
0000
0000
0000
0000
0000
0000
0000
0000
0000
0000
3c00
6600
6600
6600
3c00
0000
ENDCHAR
STARTCHAR 0x2124
ENCODING 8484
SWIDTH 1000 0
DWIDTH 16 0
BBX 16 16 0 -2
BITMAP
0000
0000
0000
0000
0000
0000
0180
03c0
03c0
0180
0000
0000
0000
0000
0000
0000
ENDCHAR
STARTCHAR 0x2125
ENCODING 8485
SWIDTH 1000 0
DWIDTH 16 0
BBX 16 16 0 -2
BITMAP
0000
0000
0000
0000
0000
0000
0000
07f0
0000
0000
0000
0000
0000
0000
0000
0000
ENDCHAR
STARTCHAR 0x2126
ENCODING 8486
SWIDTH 1000 0
DWIDTH 16 0
BBX 16 16 0 -2
BITMAP
0000
0000
0000
0000
1004
1004
0808
0808
0410
0410
0220
0220
0140
01c0
0080
0000
ENDCHAR
STARTCHAR 0x2127
ENCODING 8487
SWIDTH 1000 0
DWIDTH 16 0
BBX 16 16 0 -2
BITMAP
0000
0000
0000
0000
0000
0c18
1e3c
1e3c
0c18
0000
0000
0000
0000
0000
0000
0000
ENDCHAR
STARTCHAR 0x2128
ENCODING 8488
SWIDTH 1000 0
DWIDTH 16 0
BBX 16 16 0 -2
BITMAP
0000
0000
0000
0110
0110
0330
0330
0660
0440
0440
0880
0880
1100
1100
0000
0000
ENDCHAR
STARTCHAR 0x2129
ENCODING 8489
SWIDTH 1000 0
DWIDTH 16 0
BBX 16 16 0 -2
BITMAP
0000
0100
0380
0300
0608
0ffc
0c18
1030
0030
0260
01c0
00c0
00e0
0040
0000
0000
ENDCHAR
STARTCHAR 0x212a
ENCODING 8490
SWIDTH 1000 0
DWIDTH 16 0
BBX 16 16 0 -2
BITMAP
0000
0000
0000
0000
0000
0000
0000
7fff
0000
0000
0000
0000
0000
0000
0000
0000
ENDCHAR
STARTCHAR 0x212b
ENCODING 8491
SWIDTH 1000 0
DWIDTH 16 0
BBX 16 16 0 -2
BITMAP
0000
0000
0000
0000
0000
0000
0e00
3f80
61c3
00fe
0038
0000
0000
0000
0000
0000
ENDCHAR
STARTCHAR 0x212c
ENCODING 8492
SWIDTH 1000 0
DWIDTH 16 0
BBX 16 16 0 -2
BITMAP
0000
0240
0240
0240
0240
0240
0240
0240
0240
0240
0240
0240
0240
0240
0240
0000
ENDCHAR
STARTCHAR 0x212d
ENCODING 8493
SWIDTH 1000 0
DWIDTH 16 0
BBX 16 16 0 -2
BITMAP
0000
0000
0000
0000
0000
0000
18c6
3def
3def
18c6
0000
0000
0000
0000
0000
0000
ENDCHAR
STARTCHAR 0x212e
ENCODING 8494
SWIDTH 1000 0
DWIDTH 16 0
BBX 16 16 0 -2
BITMAP
0000
0000
0008
0030
0060
00f0
00f0
0060
0000
0000
0000
0000
0000
0000
0000
0000
ENDCHAR
STARTCHAR 0x212f
ENCODING 8495
SWIDTH 1000 0
DWIDTH 16 0
BBX 16 16 0 -2
BITMAP
0000
0c00
1e00
1e00
0c00
0400
0800
1000
0000
0000
0000
0000
0000
0000
0000
0000
ENDCHAR
STARTCHAR 0x2130
ENCODING 8496
SWIDTH 1000 0
DWIDTH 16 0
BBX 16 16 0 -2
BITMAP
0000
0000
0021
00c6
018c
03de
03de
018c
0000
0000
0000
0000
0000
0000
0000
0000
ENDCHAR
STARTCHAR 0x2131
ENCODING 8497
SWIDTH 1000 0
DWIDTH 16 0
BBX 16 16 0 -2
BITMAP
0000
18c0
3de0
3de0
18c0
0840
1080
2100
0000
0000
0000
0000
0000
0000
0000
0000
ENDCHAR
STARTCHAR 0x2132
ENCODING 8498
SWIDTH 1000 0
DWIDTH 16 0
BBX 16 16 0 -2
BITMAP
0000
000c
0038
0060
0040
0040
0040
0040
0040
0040
0040
0040
0060
0038
000c
0000
ENDCHAR
STARTCHAR 0x2133
ENCODING 8499
SWIDTH 1000 0
DWIDTH 16 0
BBX 16 16 0 -2
BITMAP
0000
1800
0e00
0300
0100
0100
0100
0100
0100
0100
0100
0100
0300
0e00
1800
0000
ENDCHAR
STARTCHAR 0x2134
ENCODING 8500
SWIDTH 1000 0
DWIDTH 16 0
BBX 16 16 0 -2
BITMAP
0000
0000
0000
0040
0080
0100
0200
0400
0800
0400
0200
0100
0080
0040
0000
0000
ENDCHAR
STARTCHAR 0x2135
ENCODING 8501
SWIDTH 1000 0
DWIDTH 16 0
BBX 16 16 0 -2
BITMAP
0000
0000
0080
0040
0020
0010
0008
0004
0008
0010
0020
0040
0080
0000
0000
0000
ENDCHAR
STARTCHAR 0x2136
ENCODING 8502
SWIDTH 1000 0
DWIDTH 16 0
BBX 16 16 0 -2
BITMAP
0000
0000
0000
0240
0240
0480
0480
0900
0900
0480
0480
0240
0240
0000
0000
0000
ENDCHAR
STARTCHAR 0x2137
ENCODING 8503
SWIDTH 1000 0
DWIDTH 16 0
BBX 16 16 0 -2
BITMAP
0000
0000
0000
0240
0240
0120
0120
0090
0090
0120
0120
0240
0240
0000
0000
0000
ENDCHAR
STARTCHAR 0x2138
ENCODING 8504
SWIDTH 1000 0
DWIDTH 16 0
BBX 16 16 0 -2
BITMAP
0000
0000
01f0
0100
0100
0100
0100
0100
0100
0100
0100
0100
0100
0100
0000
0000
ENDCHAR
STARTCHAR 0x2139
ENCODING 8505
SWIDTH 1000 0
DWIDTH 16 0
BBX 16 16 0 -2
BITMAP
0000
0000
0080
0080
0080
0080
0080
0080
0080
0080
0080
0080
0080
0f80
0000
0000
ENDCHAR
STARTCHAR 0x213a
ENCODING 8506
SWIDTH 1000 0
DWIDTH 16 0
BBX 16 16 0 -2
BITMAP
0000
0000
03f8
0208
02f8
0280
0280
0280
0280
0280
0280
0280
0280
0380
0000
0000
ENDCHAR
STARTCHAR 0x213b
ENCODING 8507
SWIDTH 1000 0
DWIDTH 16 0
BBX 16 16 0 -2
BITMAP
0000
0000
0070
0050
0050
0050
0050
0050
0050
0050
0050
0050
1fd0
1050
1ff0
0000
ENDCHAR
STARTCHAR 0x213c
ENCODING 8508
SWIDTH 1000 0
DWIDTH 16 0
BBX 16 16 0 -2
BITMAP
0000
0000
0ff0
0820
0840
0880
0880
0900
0900
0880
0880
0840
0820
0ff0
0000
0000
ENDCHAR
STARTCHAR 0x213d
ENCODING 8509
SWIDTH 1000 0
DWIDTH 16 0
BBX 16 16 0 -2
BITMAP
0000
0000
07f8
0208
0108
0088
0088
0048
0048
0088
0088
0108
0208
07f8
0000
0000
ENDCHAR
STARTCHAR 0x213e
ENCODING 8510
SWIDTH 1000 0
DWIDTH 16 0
BBX 16 16 0 -2
BITMAP
0000
0000
07f0
07e0
07c0
0780
0780
0700
0700
0780
0780
07c0
07e0
07f0
0000
0000
ENDCHAR
STARTCHAR 0x213f
ENCODING 8511
SWIDTH 1000 0
DWIDTH 16 0
BBX 16 16 0 -2
BITMAP
0000
0000
07f0
03f0
01f0
00f0
00f0
0070
0070
00f0
00f0
01f0
03f0
07f0
0000
0000
ENDCHAR
STARTCHAR 0x2140
ENCODING 8512
SWIDTH 1000 0
DWIDTH 16 0
BBX 16 16 0 -2
BITMAP
0000
0000
0080
0080
0080
0080
0ff8
0080
0080
0080
0080
0000
0ff8
0000
0000
0000
ENDCHAR
STARTCHAR 0x2141
ENCODING 8513
SWIDTH 1000 0
DWIDTH 16 0
BBX 16 16 0 -2
BITMAP
0000
0000
0000
0000
0808
0410
0220
0140
0080
0140
0220
0410
0808
0000
0000
0000
ENDCHAR
STARTCHAR 0x2142
ENCODING 8514
SWIDTH 1000 0
DWIDTH 16 0
BBX 16 16 0 -2
BITMAP
0000
0000
0000
0180
0180
0000
0000
1ff8
0000
0000
0180
0180
0000
0000
0000
0000
ENDCHAR
STARTCHAR 0x2143
ENCODING 8515
SWIDTH 1000 0
DWIDTH 16 0
BBX 16 16 0 -2
BITMAP
0000
0000
0180
03c0
03c0
0180
0000
0000
0000
0180
03c0
03c0
0180
0000
0000
0000
ENDCHAR
STARTCHAR 0x2144
ENCODING 8516
SWIDTH 1000 0
DWIDTH 16 0
BBX 16 16 0 -2
BITMAP
0000
0080
0140
0220
0220
0410
0410
0808
0808
1004
1004
2002
2002
0000
0000
0000
ENDCHAR
STARTCHAR 0x2145
ENCODING 8517
SWIDTH 1000 0
DWIDTH 16 0
BBX 16 16 0 -2
BITMAP
0000
0000
0000
2002
2002
1004
1004
0808
0808
0410
0410
0220
0220
0140
0080
0000
ENDCHAR
STARTCHAR 0x2146
ENCODING 8518
SWIDTH 1000 0
DWIDTH 16 0
BBX 16 16 0 -2
BITMAP
0000
0000
1ffc
1804
0c04
0600
0300
0300
0200
0400
0400
0804
1ffc
1ffc
0000
0000
ENDCHAR
STARTCHAR 0x2147
ENCODING 8519
SWIDTH 1000 0
DWIDTH 16 0
BBX 16 16 0 -2
BITMAP
0000
0000
3ffc
0c30
0c30
0c30
0c30
0c30
0c30
0c30
0c30
0c30
0c30
3e7c
0000
0000
ENDCHAR
STARTCHAR 0x2148
ENCODING 8520
SWIDTH 1000 0
DWIDTH 16 0
BBX 16 16 0 -2
BITMAP
0000
1004
1004
1004
1004
1004
1004
1004
1004
1004
1004
1004
180c
0c18
07f0
0000
ENDCHAR
STARTCHAR 0x2149
ENCODING 8521
SWIDTH 1000 0
DWIDTH 16 0
BBX 16 16 0 -2
BITMAP
0000
07f0
0c18
180c
1004
1004
1004
1004
1004
1004
1004
1004
1004
1004
1004
0000
ENDCHAR
STARTCHAR 0x214a
ENCODING 8522
SWIDTH 1000 0
DWIDTH 16 0
BBX 16 16 0 -2
BITMAP
0000
0000
00c0
0300
0400
0400
0800
0800
0fc0
0800
0800
0400
0400
0300
00c0
0000
ENDCHAR
STARTCHAR 0x214b
ENCODING 8523
SWIDTH 1000 0
DWIDTH 16 0
BBX 16 16 0 -2
BITMAP
0000
0000
1818
3c3c
3c3c
1818
0000
0000
0000
0000
1818
3c3c
3c3c
1818
0000
0000
ENDCHAR
STARTCHAR 0x214c
ENCODING 8524
SWIDTH 1000 0
DWIDTH 16 0
BBX 16 16 0 -2
BITMAP
0000
0008
0008
0010
0010
0020
0020
0040
0040
0080
1080
3b00
2e00
0c00
0400
0000
ENDCHAR
STARTCHAR 0x214d
ENCODING 8525
SWIDTH 1000 0
DWIDTH 16 0
BBX 16 16 0 -2
BITMAP
0000
0080
0080
0080
0080
0080
0080
0080
0080
0080
0080
0080
0080
1ffc
0000
0000
ENDCHAR
STARTCHAR 0x214e
ENCODING 8526
SWIDTH 1000 0
DWIDTH 16 0
BBX 16 16 0 -2
BITMAP
0000
0000
0120
0120
0120
0120
0240
0240
0240
0240
0480
0480
0480
0480
0000
0000
ENDCHAR
STARTCHAR 0x214f
ENCODING 8527
SWIDTH 1000 0
DWIDTH 16 0
BBX 16 16 0 -2
BITMAP
0000
0000
0010
0020
0040
0080
0100
0200
0400
0800
1000
3ff0
0000
0000
0000
0000
ENDCHAR
STARTCHAR 0x2150
ENCODING 8528
SWIDTH 1000 0
DWIDTH 16 0
BBX 16 16 0 -2
BITMAP
0000
0000
01c0
0630
0c18
0808
1004
1004
2002
2002
0000
0000
0000
0000
0000
0000
ENDCHAR
STARTCHAR 0x2151
ENCODING 8529
SWIDTH 1000 0
DWIDTH 16 0
BBX 16 16 0 -2
BITMAP
03e0
0c18
1004
2002
2002
4081
41c1
43e1
41c1
4081
2002
2002
1004
0c18
03e0
0000
ENDCHAR
STARTCHAR 0x2152
ENCODING 8530
SWIDTH 1000 0
DWIDTH 16 0
BBX 16 16 0 -2
BITMAP
0000
0000
0060
0090
0100
0100
0100
0100
0100
0100
0100
0100
1200
0c00
0000
0000
ENDCHAR
STARTCHAR 0x2153
ENCODING 8531
SWIDTH 1000 0
DWIDTH 16 0
BBX 16 16 0 -2
BITMAP
0000
0060
0090
0100
0100
0380
0540
0540
0540
0380
0100
0100
1200
0c00
0000
0000
ENDCHAR
STARTCHAR 0x2154
ENCODING 8532
SWIDTH 1000 0
DWIDTH 16 0
BBX 16 16 0 -2
BITMAP
0000
0000
0000
0000
0000
1ffc
0000
1ffc
0000
1ffc
0000
0000
0000
0000
0000
0000
ENDCHAR
STARTCHAR 0x2155
ENCODING 8533
SWIDTH 1000 0
DWIDTH 16 0
BBX 16 16 0 -2
BITMAP
0000
0000
0418
0824
1042
1082
0904
0608
0000
1ffe
0000
1ffe
0000
0000
0000
0000
ENDCHAR
STARTCHAR 0x2156
ENCODING 8534
SWIDTH 1000 0
DWIDTH 16 0
BBX 16 16 0 -2
BITMAP
0000
0000
0000
0000
0e00
1104
2088
0e70
1104
2088
0070
0000
0000
0000
0000
0000
ENDCHAR
STARTCHAR 0x2157
ENCODING 8535
SWIDTH 1000 0
DWIDTH 16 0
BBX 16 16 0 -2
BITMAP
0000
0000
0000
0000
0c18
1024
2042
2082
2102
1204
0c18
0000
0000
0000
0000
0000
ENDCHAR
STARTCHAR 0x2158
ENCODING 8536
SWIDTH 1000 0
DWIDTH 16 0
BBX 16 16 0 -2
BITMAP
0000
0000
0000
0000
0c1c
1220
2140
2080
2140
1220
0c1c
0000
0000
0000
0000
0000
ENDCHAR
STARTCHAR 0x2159
ENCODING 8537
SWIDTH 1000 0
DWIDTH 16 0
BBX 16 16 0 -2
BITMAP
0000
0020
0020
0020
0040
1ffc
0040
0080
0080
0100
1ffc
0100
0200
0200
0200
0000
ENDCHAR
STARTCHAR 0x215a
ENCODING 8538
SWIDTH 1000 0
DWIDTH 16 0
BBX 16 16 0 -2
BITMAP
0000
0000
020c
0230
02c0
0300
0e00
3200
6200
3200
0e00
0300
02c0
0230
020c
0000
ENDCHAR
STARTCHAR 0x215b
ENCODING 8539
SWIDTH 1000 0
DWIDTH 16 0
BBX 16 16 0 -2
BITMAP
0000
1820
0620
01a0
0060
0038
0026
0023
0026
0038
0060
01a0
0620
1820
0000
0000
ENDCHAR
STARTCHAR 0x215c
ENCODING 8540
SWIDTH 1000 0
DWIDTH 16 0
BBX 16 16 0 -2
BITMAP
0006
0018
0060
0180
0600
1800
3000
1800
0600
2180
1860
0618
0186
0060
0018
0006
ENDCHAR
STARTCHAR 0x215d
ENCODING 8541
SWIDTH 1000 0
DWIDTH 16 0
BBX 16 16 0 -2
BITMAP
3000
0c00
0300
00c0
0030
000c
0006
000c
0030
00c2
030c
0c30
30c0
0300
0c00
3000
ENDCHAR
STARTCHAR 0x215e
ENCODING 8542
SWIDTH 1000 0
DWIDTH 16 0
BBX 16 16 0 -2
BITMAP
0000
0000
0000
0000
0c18
1224
2142
2082
2142
1224
0c18
0000
0000
0000
0000
0000
ENDCHAR
STARTCHAR 0x215f
ENCODING 8543
SWIDTH 1000 0
DWIDTH 16 0
BBX 16 16 0 -2
BITMAP
0000
0000
0c0c
1e1e
1e1e
0c0c
0000
0000
0000
00c0
01e0
01e0
00c0
0000
0000
0000
ENDCHAR
STARTCHAR 0x2160
ENCODING 8544
SWIDTH 1000 0
DWIDTH 16 0
BBX 16 16 0 -2
BITMAP
0000
0000
0180
03c0
03c0
0180
0000
0000
0000
1818
3c3c
3c3c
1818
0000
0000
0000
ENDCHAR
STARTCHAR 0x2161
ENCODING 8545
SWIDTH 1000 0
DWIDTH 16 0
BBX 16 16 0 -2
BITMAP
0000
0080
01c0
02a0
0490
0080
0080
0080
0080
01c0
0220
0220
0220
01c0
0000
0000
ENDCHAR
STARTCHAR 0x2162
ENCODING 8546
SWIDTH 1000 0
DWIDTH 16 0
BBX 16 16 0 -2
BITMAP
0000
01c0
0220
0220
0220
01c0
0080
0080
0ff8
0080
0080
0080
0080
0080
0000
0000
ENDCHAR
STARTCHAR 0x2163
ENCODING 8547
SWIDTH 1000 0
DWIDTH 16 0
BBX 16 16 0 -2
BITMAP
0000
01c0
0220
0220
0220
01c0
0000
0000
0000
0000
0000
0000
0000
0000
0000
0000
ENDCHAR
STARTCHAR 0x2164
ENCODING 8548
SWIDTH 1000 0
DWIDTH 16 0
BBX 16 16 0 -2
BITMAP
0000
0020
0020
0060
0040
00c0
0080
0180
0100
0100
0000
0000
0000
0000
0000
0000
ENDCHAR
STARTCHAR 0x2165
ENCODING 8549
SWIDTH 1000 0
DWIDTH 16 0
BBX 16 16 0 -2
BITMAP
0000
0090
0090
01b0
0120
0360
0240
06c0
0480
0480
0000
0000
0000
0000
0000
0000
ENDCHAR
STARTCHAR 0x2166
ENCODING 8550
SWIDTH 1000 0
DWIDTH 16 0
BBX 16 16 0 -2
BITMAP
3000
4800
4810
33f8
0630
0c10
0c00
0c00
0c00
0c00
0c00
0608
0310
01e0
0000
0000
ENDCHAR
STARTCHAR 0x2167
ENCODING 8551
SWIDTH 1000 0
DWIDTH 16 0
BBX 16 16 0 -2
BITMAP
0000
0100
03d0
0d70
1910
1900
0d00
0700
01c0
0160
0130
1130
1d60
1780
0100
0000
ENDCHAR
STARTCHAR 0x2168
ENCODING 8552
SWIDTH 1000 0
DWIDTH 16 0
BBX 16 16 0 -2
BITMAP
0000
0000
21c2
1634
0808
1004
1004
2002
2002
2002
1004
1004
0808
1634
21c2
0000
ENDCHAR
STARTCHAR 0x2169
ENCODING 8553
SWIDTH 1000 0
DWIDTH 16 0
BBX 16 16 0 -2
BITMAP
0000
0050
03f0
06b0
0c90
1880
1880
1900
1900
1900
1900
0a08
0610
03e0
0400
0000
ENDCHAR
STARTCHAR 0x216a
ENCODING 8554
SWIDTH 1000 0
DWIDTH 16 0
BBX 16 16 0 -2
BITMAP
0000
0000
0070
00f8
0098
0190
0180
0ff0
0180
0180
0100
0380
05c8
0278
0030
0000
ENDCHAR
STARTCHAR 0x216b
ENCODING 8555
SWIDTH 1000 0
DWIDTH 16 0
BBX 16 16 0 -2
BITMAP
0000
0002
0c04
1208
1210
1220
0c40
0080
0100
02c6
0529
0929
1129
20c6
0000
0000
ENDCHAR
STARTCHAR 0x216c
ENCODING 8556
SWIDTH 1000 0
DWIDTH 16 0
BBX 16 16 0 -2
BITMAP
0000
01c0
0220
0200
0100
0080
0140
0220
0220
0140
0080
0040
0020
0220
01c0
0000
ENDCHAR
STARTCHAR 0x216d
ENCODING 8557
SWIDTH 1000 0
DWIDTH 16 0
BBX 16 16 0 -2
BITMAP
0000
3830
1870
1c40
1440
1640
1640
1640
134c
1352
1152
11d2
10cc
60c0
605e
0000
ENDCHAR
STARTCHAR 0x216e
ENCODING 8558
SWIDTH 1000 0
DWIDTH 16 0
BBX 16 16 0 -2
BITMAP
0080
0080
0140
0140
0220
7c1f
2002
1004
0808
0410
0888
0948
1634
180c
2002
0000
ENDCHAR
STARTCHAR 0x216f
ENCODING 8559
SWIDTH 1000 0
DWIDTH 16 0
BBX 16 16 0 -2
BITMAP
0080
0080
01c0
01c0
03e0
7fff
3ffe
1ffc
0ff8
07f0
0ff8
0f78
1e3c
180c
2002
0000
ENDCHAR
STARTCHAR 0x2170
ENCODING 8560
SWIDTH 1000 0
DWIDTH 16 0
BBX 16 16 0 -2
BITMAP
03e0
0c18
1004
2002
2002
4001
4001
4001
4001
4001
2002
2002
1004
0c18
03e0
0000
ENDCHAR
STARTCHAR 0x2171
ENCODING 8561
SWIDTH 1000 0
DWIDTH 16 0
BBX 16 16 0 -2
BITMAP
03e0
0ff8
1ffc
3ffe
3ffe
7fff
7fff
7fff
7fff
7fff
3ffe
3ffe
1ffc
0ff8
03e0
0000
ENDCHAR
STARTCHAR 0x2172
ENCODING 8562
SWIDTH 1000 0
DWIDTH 16 0
BBX 16 16 0 -2
BITMAP
03e0
0c18
11c4
2632
280a
4809
5005
5005
5005
4809
280a
2632
11c4
0c18
03e0
0000
ENDCHAR
STARTCHAR 0x2173
ENCODING 8563
SWIDTH 1000 0
DWIDTH 16 0
BBX 16 16 0 -2
BITMAP
0080
0140
0220
0410
0808
1004
2002
4001
2002
1004
0808
0410
0220
0140
0080
0000
ENDCHAR
STARTCHAR 0x2174
ENCODING 8564
SWIDTH 1000 0
DWIDTH 16 0
BBX 16 16 0 -2
BITMAP
0080
01c0
03e0
07f0
0ff8
1ffc
3ffe
7fff
3ffe
1ffc
0ff8
07f0
03e0
01c0
0080
0000
ENDCHAR
STARTCHAR 0x2175
ENCODING 8565
SWIDTH 1000 0
DWIDTH 16 0
BBX 16 16 0 -2
BITMAP
0000
0000
1ffe
1002
1002
1002
1002
1002
1002
1002
1002
1002
1002
1ffe
0000
0000
ENDCHAR
STARTCHAR 0x2176
ENCODING 8566
SWIDTH 1000 0
DWIDTH 16 0
BBX 16 16 0 -2
BITMAP
0000
0000
1ffe
1ffe
1ffe
1ffe
1ffe
1ffe
1ffe
1ffe
1ffe
1ffe
1ffe
1ffe
0000
0000
ENDCHAR
STARTCHAR 0x2177
ENCODING 8567
SWIDTH 1000 0
DWIDTH 16 0
BBX 16 16 0 -2
BITMAP
0000
0080
01c0
0140
0220
0220
0410
0410
0808
0808
1004
1004
2002
7fff
0000
0000
ENDCHAR
STARTCHAR 0x2178
ENCODING 8568
SWIDTH 1000 0
DWIDTH 16 0
BBX 16 16 0 -2
BITMAP
0000
0080
01c0
01c0
03e0
03e0
07f0
07f0
0ff8
0ff8
1ffc
1ffc
3ffe
7fff
0000
0000
ENDCHAR
STARTCHAR 0x2179
ENCODING 8569
SWIDTH 1000 0
DWIDTH 16 0
BBX 16 16 0 -2
BITMAP
0000
0000
0000
1188
0990
0420
0240
1998
1998
0240
0420
0990
1188
0000
0000
0000
ENDCHAR
STARTCHAR 0x217a
ENCODING 8570
SWIDTH 1000 0
DWIDTH 16 0
BBX 16 16 0 -2
BITMAP
0000
0000
0000
0000
0040
0030
003c
3ffe
003c
0030
0040
0000
0000
0000
0000
0000
ENDCHAR
STARTCHAR 0x217b
ENCODING 8571
SWIDTH 1000 0
DWIDTH 16 0
BBX 16 16 0 -2
BITMAP
0000
0000
0000
0000
0100
0600
1e00
3ffe
1e00
0600
0100
0000
0000
0000
0000
0000
ENDCHAR
STARTCHAR 0x217c
ENCODING 8572
SWIDTH 1000 0
DWIDTH 16 0
BBX 16 16 0 -2
BITMAP
0000
0080
01c0
01c0
03e0
03e0
0490
0080
0080
0080
0080
0080
0080
0080
0080
0000
ENDCHAR
STARTCHAR 0x217d
ENCODING 8573
SWIDTH 1000 0
DWIDTH 16 0
BBX 16 16 0 -2
BITMAP
0000
0080
0080
0080
0080
0080
0080
0080
0080
0490
03e0
03e0
01c0
01c0
0080
0000
ENDCHAR
STARTCHAR 0x217e
ENCODING 8574
SWIDTH 1000 0
DWIDTH 16 0
BBX 16 16 0 -2
BITMAP
0000
1ffc
1ffc
1ffc
1ffc
1ffc
0000
0000
0000
0000
1ffc
1ffc
1ffc
1ffc
1ffc
0000
ENDCHAR
STARTCHAR 0x2221
ENCODING 8737
SWIDTH 1000 0
DWIDTH 16 0
BBX 16 16 0 -2
BITMAP
0000
0000
0000
0000
0000
0000
0000
0000
0000
0000
0000
0000
0000
0000
0000
0000
ENDCHAR
STARTCHAR 0x2222
ENCODING 8738
SWIDTH 1000 0
DWIDTH 16 0
BBX 16 16 0 -2
BITMAP
0000
0000
0000
0000
0000
0000
0000
0000
0000
0000
0000
0000
0000
0000
0000
0000
ENDCHAR
STARTCHAR 0x2223
ENCODING 8739
SWIDTH 1000 0
DWIDTH 16 0
BBX 16 16 0 -2
BITMAP
0000
0000
0000
0000
0000
0000
0000
0000
0000
0000
0000
0000
0000
0000
0000
0000
ENDCHAR
STARTCHAR 0x2224
ENCODING 8740
SWIDTH 1000 0
DWIDTH 16 0
BBX 16 16 0 -2
BITMAP
0000
0000
0000
0000
0000
0000
0000
0000
0000
0000
0000
0000
0000
0000
0000
0000
ENDCHAR
STARTCHAR 0x2225
ENCODING 8741
SWIDTH 1000 0
DWIDTH 16 0
BBX 16 16 0 -2
BITMAP
0000
0000
0000
0000
0000
0000
0000
0000
0000
0000
0000
0000
0000
0000
0000
0000
ENDCHAR
STARTCHAR 0x2226
ENCODING 8742
SWIDTH 1000 0
DWIDTH 16 0
BBX 16 16 0 -2
BITMAP
0000
0000
0000
0000
0000
0000
0000
0000
0000
0000
0000
0000
0000
0000
0000
0000
ENDCHAR
STARTCHAR 0x2227
ENCODING 8743
SWIDTH 1000 0
DWIDTH 16 0
BBX 16 16 0 -2
BITMAP
0000
0000
0000
0000
0000
0000
0000
0000
0000
0000
0000
0000
0000
0000
0000
0000
ENDCHAR
STARTCHAR 0x2228
ENCODING 8744
SWIDTH 1000 0
DWIDTH 16 0
BBX 16 16 0 -2
BITMAP
0000
0000
0000
0000
0000
0000
0000
0000
0000
0000
0000
0000
0000
0000
0000
0000
ENDCHAR
STARTCHAR 0x2229
ENCODING 8745
SWIDTH 1000 0
DWIDTH 16 0
BBX 16 16 0 -2
BITMAP
0000
0000
0000
0000
0000
0000
0000
0000
0000
0000
0000
0000
0000
0000
0000
0000
ENDCHAR
STARTCHAR 0x222a
ENCODING 8746
SWIDTH 1000 0
DWIDTH 16 0
BBX 16 16 0 -2
BITMAP
0000
0000
0000
0000
0000
0000
0000
0000
0000
0000
0000
0000
0000
0000
0000
0000
ENDCHAR
STARTCHAR 0x222b
ENCODING 8747
SWIDTH 1000 0
DWIDTH 16 0
BBX 16 16 0 -2
BITMAP
0000
0000
0000
0000
0000
0000
0000
0000
0000
0000
0000
0000
0000
0000
0000
0000
ENDCHAR
STARTCHAR 0x222c
ENCODING 8748
SWIDTH 1000 0
DWIDTH 16 0
BBX 16 16 0 -2
BITMAP
0000
0000
0000
0000
0000
0000
0000
0000
0000
0000
0000
0000
0000
0000
0000
0000
ENDCHAR
STARTCHAR 0x222d
ENCODING 8749
SWIDTH 1000 0
DWIDTH 16 0
BBX 16 16 0 -2
BITMAP
0000
0000
0000
0000
0000
0000
0000
0000
0000
0000
0000
0000
0000
0000
0000
0000
ENDCHAR
STARTCHAR 0x222e
ENCODING 8750
SWIDTH 1000 0
DWIDTH 16 0
BBX 16 16 0 -2
BITMAP
0000
0000
0000
0000
0000
0000
0000
0000
0000
0000
0000
0000
0000
0000
0000
0000
ENDCHAR
STARTCHAR 0x222f
ENCODING 8751
SWIDTH 1000 0
DWIDTH 16 0
BBX 16 16 0 -2
BITMAP
0000
0000
0000
0000
0000
0000
0000
0000
0000
0000
0000
0000
0000
0000
0000
0000
ENDCHAR
STARTCHAR 0x2230
ENCODING 8752
SWIDTH 1000 0
DWIDTH 16 0
BBX 16 16 0 -2
BITMAP
0000
0000
0000
0000
0000
0000
0000
0000
0000
0000
0000
0000
0000
0000
0000
0000
ENDCHAR
STARTCHAR 0x2231
ENCODING 8753
SWIDTH 1000 0
DWIDTH 16 0
BBX 16 16 0 -2
BITMAP
0000
0100
0700
0300
0300
0300
0300
0300
0300
0300
0300
0300
0300
0330
07b0
0000
ENDCHAR
STARTCHAR 0x2232
ENCODING 8754
SWIDTH 1000 0
DWIDTH 16 0
BBX 16 16 0 -2
BITMAP
0000
0700
0d80
18c0
08c0
00c0
0080
0180
0300
0200
0600
0400
0c40
08d8
1fd8
0000
ENDCHAR
STARTCHAR 0x2233
ENCODING 8755
SWIDTH 1000 0
DWIDTH 16 0
BBX 16 16 0 -2
BITMAP
0000
0700
0d80
18c0
08c0
00c0
0080
0180
0700
0180
0080
08c0
18c0
08d8
0d98
0700
ENDCHAR
STARTCHAR 0x2234
ENCODING 8756
SWIDTH 1000 0
DWIDTH 16 0
BBX 16 16 0 -2
BITMAP
0000
0100
0300
0700
0b00
0b00
1300
1300
1300
3fe0
0300
0300
0300
0330
07b0
0000
ENDCHAR
STARTCHAR 0x2235
ENCODING 8757
SWIDTH 1000 0
DWIDTH 16 0
BBX 16 16 0 -2
BITMAP
0000
0fe0
0860
0820
0800
0800
0b80
0cc0
0840
0060
0060
0860
0860
04cc
038c
0000
ENDCHAR
STARTCHAR 0x2236
ENCODING 8758
SWIDTH 1000 0
DWIDTH 16 0
BBX 16 16 0 -2
BITMAP
0000
07c0
08e0
1840
1800
1800
1b80
1cc0
1840
1860
1860
1860
1860
0ccc
078c
0000
ENDCHAR
STARTCHAR 0x2237
ENCODING 8759
SWIDTH 1000 0
DWIDTH 16 0
BBX 16 16 0 -2
BITMAP
0000
1fe0
10c0
00c0
00c0
00c0
00c0
0180
0380
0300
0300
0600
0600
0630
0230
0000
ENDCHAR
STARTCHAR 0x2238
ENCODING 8760
SWIDTH 1000 0
DWIDTH 16 0
BBX 16 16 0 -2
BITMAP
0000
0700
0d80
18c0
18c0
18c0
0880
0580
0700
0d80
18c0
18c0
18c0
0d98
0718
0000
ENDCHAR
STARTCHAR 0x2239
ENCODING 8761
SWIDTH 1000 0
DWIDTH 16 0
BBX 16 16 0 -2
BITMAP
0000
0700
0d80
18c0
18c0
18c0
18c0
0dc0
06c0
00c0
00c0
10c0
18c0
0d98
0718
0000
ENDCHAR
STARTCHAR 0x223a
ENCODING 8762
SWIDTH 1000 0
DWIDTH 16 0
BBX 16 16 0 -2
BITMAP
0000
08e0
39b0
1b18
1b18
1b18
1b18
1b18
1b18
1b18
1b18
1b18
1b18
19b6
3ce6
0000
ENDCHAR
STARTCHAR 0x223b
ENCODING 8763
SWIDTH 1000 0
DWIDTH 16 0
BBX 16 16 0 -2
BITMAP
0000
0420
1ce0
0c60
0c60
0c60
0c60
0c60
0c60
0c60
0c60
0c60
0c60
0c66
1ef6
0000
ENDCHAR
STARTCHAR 0x223c
ENCODING 8764
SWIDTH 1000 0
DWIDTH 16 0
BBX 16 16 0 -2
BITMAP
0000
08e0
39b0
1b18
1b18
1918
1810
1830
1820
1860
1840
18c0
1888
199b
3dfb
0000
ENDCHAR
STARTCHAR 0x223d
ENCODING 8765
SWIDTH 1000 0
DWIDTH 16 0
BBX 16 16 0 -2
BITMAP
0000
08e0
39b0
1b18
1b18
1918
1810
1830
18e0
1870
1918
1b18
1b18
19b3
3ce3
0000
ENDCHAR
STARTCHAR 0x223e
ENCODING 8766
SWIDTH 1000 0
DWIDTH 16 0
BBX 16 16 0 -2
BITMAP
0000
0820
3860
18e0
18e0
1960
1960
1960
1a60
1a60
1a60
1ff8
1860
1863
3cf3
0000
ENDCHAR
STARTCHAR 0x223f
ENCODING 8767
SWIDTH 1000 0
DWIDTH 16 0
BBX 16 16 0 -2
BITMAP
0000
0bf8
3a08
1a00
1a00
1a00
1ae0
1b30
1a18
1818
1818
1a18
1b18
19b3
3ce3
0000
ENDCHAR
STARTCHAR 0x2240
ENCODING 8768
SWIDTH 1000 0
DWIDTH 16 0
BBX 16 16 0 -2
BITMAP
0000
08f0
39b8
1b10
1a00
1a00
1ae0
1bb0
1b18
1b18
1b18
1b18
1b18
19b3
3ce3
0000
ENDCHAR
STARTCHAR 0x2241
ENCODING 8769
SWIDTH 1000 0
DWIDTH 16 0
BBX 16 16 0 -2
BITMAP
0000
0bf8
3a18
1810
1830
1820
1860
1840
18c0
18c0
1880
1980
1980
1998
3d18
0000
ENDCHAR
STARTCHAR 0x2242
ENCODING 8770
SWIDTH 1000 0
DWIDTH 16 0
BBX 16 16 0 -2
BITMAP
0000
08e0
39b0
1b18
1b18
1b18
1910
18b0
18e0
19b0
1b18
1b18
1b18
19b3
3ce3
0000
ENDCHAR
STARTCHAR 0x2243
ENCODING 8771
SWIDTH 1000 0
DWIDTH 16 0
BBX 16 16 0 -2
BITMAP
0000
08e0
39b0
1b18
1b18
1b18
1b18
19b8
18d8
1818
1918
1b18
1b18
19b3
3ce3
0000
ENDCHAR
STARTCHAR 0x2244
ENCODING 8772
SWIDTH 1000 0
DWIDTH 16 0
BBX 16 16 0 -2
BITMAP
0000
1c70
36d8
26d8
66d8
26d8
06d8
06d8
04d8
0cd8
0cd8
18d8
18d8
32db
3e73
0000
ENDCHAR
STARTCHAR 0x2245
ENCODING 8773
SWIDTH 1000 0
DWIDTH 16 0
BBX 16 16 0 -2
BITMAP
0000
0808
1084
1384
2182
2182
2182
2182
2182
2182
2182
2182
13c4
1004
0808
0000
ENDCHAR
STARTCHAR 0x2246
ENCODING 8774
SWIDTH 1000 0
DWIDTH 16 0
BBX 16 16 0 -2
BITMAP
0000
0808
11c4
1364
2632
2432
2032
2062
20c2
2182
2312
27f2
1004
1004
0808
0000
ENDCHAR
STARTCHAR 0x2247
ENCODING 8775
SWIDTH 1000 0
DWIDTH 16 0
BBX 16 16 0 -2
BITMAP
0000
0808
11c4
1364
2632
2232
2062
20c2
2062
2232
2632
2362
11c4
1004
0808
0000
ENDCHAR
STARTCHAR 0x2248
ENCODING 8776
SWIDTH 1000 0
DWIDTH 16 0
BBX 16 16 0 -2
BITMAP
0000
0848
10c4
11c4
22c2
22c2
24c2
24c2
28c2
2ff2
20c2
20c2
11e4
1004
0808
0000
ENDCHAR
STARTCHAR 0x2249
ENCODING 8777
SWIDTH 1000 0
DWIDTH 16 0
BBX 16 16 0 -2
BITMAP
0000
0808
1004
17f4
27e2
2402
25c2
2762
2432
2032
2632
2362
11c4
1004
0808
0000
ENDCHAR
STARTCHAR 0x224a
ENCODING 8778
SWIDTH 1000 0
DWIDTH 16 0
BBX 16 16 0 -2
BITMAP
0000
0808
11e4
1334
2612
2602
26c2
2762
2732
2632
2632
2362
11c4
1004
0808
0000
ENDCHAR
STARTCHAR 0x224b
ENCODING 8779
SWIDTH 1000 0
DWIDTH 16 0
BBX 16 16 0 -2
BITMAP
0000
0808
1004
17f4
27f2
2432
2022
2062
2062
20c2
2182
2302
1304
1204
0808
0000
ENDCHAR
STARTCHAR 0x224c
ENCODING 8780
SWIDTH 1000 0
DWIDTH 16 0
BBX 16 16 0 -2
BITMAP
0000
0808
11c4
1364
2632
2632
2362
21c2
2362
2632
2632
2362
11c4
1004
0808
0000
ENDCHAR
STARTCHAR 0x224d
ENCODING 8781
SWIDTH 1000 0
DWIDTH 16 0
BBX 16 16 0 -2
BITMAP
0000
0808
1004
11c4
2362
2632
2632
2632
2372
20b2
2632
2362
11c4
1004
0808
0000
ENDCHAR
STARTCHAR 0x224e
ENCODING 8782
SWIDTH 1000 0
DWIDTH 16 0
BBX 16 16 0 -2
BITMAP
0000
0808
1274
1edc
26da
26da
26da
26da
26da
26da
26da
26da
1f74
1004
0808
0000
ENDCHAR
STARTCHAR 0x224f
ENCODING 8783
SWIDTH 1000 0
DWIDTH 16 0
BBX 16 16 0 -2
BITMAP
0000
0808
1214
1e74
2632
2632
2632
2632
2632
2632
2632
2632
1f7c
1004
0808
0000
ENDCHAR
STARTCHAR 0x2250
ENCODING 8784
SWIDTH 1000 0
DWIDTH 16 0
BBX 16 16 0 -2
BITMAP
0000
0808
1274
1edc
279a
269a
261a
2632
2632
2662
2662
26ca
1ffc
1004
0808
0000
ENDCHAR
STARTCHAR 0x2251
ENCODING 8785
SWIDTH 1000 0
DWIDTH 16 0
BBX 16 16 0 -2
BITMAP
0000
0808
1274
1edc
279a
269a
263a
2632
261a
269a
279a
26da
1f74
1004
0808
0000
ENDCHAR
STARTCHAR 0x2252
ENCODING 8786
SWIDTH 1000 0
DWIDTH 16 0
BBX 16 16 0 -2
BITMAP
0000
0808
1214
1e34
2672
26f2
26b2
27b2
27b2
27fa
2632
2632
1f7c
1004
0808
0000
ENDCHAR
STARTCHAR 0x2253
ENCODING 8787
SWIDTH 1000 0
DWIDTH 16 0
BBX 16 16 0 -2
BITMAP
0000
0808
1204
1efc
26c2
26e2
26ba
261e
264e
26ce
26ce
26fa
1f7c
1004
0808
0000
ENDCHAR
STARTCHAR 0x2254
ENCODING 8788
SWIDTH 1000 0
DWIDTH 16 0
BBX 16 16 0 -2
BITMAP
0000
0808
1274
1efc
26ca
26c2
26f2
26fa
26da
26da
26da
26fa
1f74
1004
0808
0000
ENDCHAR
STARTCHAR 0x2255
ENCODING 8789
SWIDTH 1000 0
DWIDTH 16 0
BBX 16 16 0 -2
BITMAP
0000
0808
1204
1efc
261a
261a
261a
2632
2632
2632
2662
2662
1f64
1004
0808
0000
ENDCHAR
STARTCHAR 0x2256
ENCODING 8790
SWIDTH 1000 0
DWIDTH 16 0
BBX 16 16 0 -2
BITMAP
0000
0808
1274
1edc
27da
26da
26fa
2672
26da
26da
27da
26da
1f74
1004
0808
0000
ENDCHAR
STARTCHAR 0x2257
ENCODING 8791
SWIDTH 1000 0
DWIDTH 16 0
BBX 16 16 0 -2
BITMAP
0000
0808
1274
1edc
27da
26da
26da
267a
261a
265a
27da
26da
1f74
1004
0808
0000
ENDCHAR
STARTCHAR 0x2258
ENCODING 8792
SWIDTH 1000 0
DWIDTH 16 0
BBX 16 16 0 -2
BITMAP
0000
0808
1e74
1bdc
23da
23da
23da
26da
26da
2cda
2cda
39da
1f74
1004
0808
0000
ENDCHAR
STARTCHAR 0x2259
ENCODING 8793
SWIDTH 1000 0
DWIDTH 16 0
BBX 16 16 0 -2
BITMAP
03e0
0c18
1044
21c2
20c2
40c1
40c1
40c1
40c1
40c1
20c2
21e2
1004
0c18
03e0
0000
ENDCHAR
STARTCHAR 0x225a
ENCODING 8794
SWIDTH 1000 0
DWIDTH 16 0
BBX 16 16 0 -2
BITMAP
03e0
0c18
11c4
2362
2632
4431
4031
4061
40c1
4181
2312
27f2
1004
0c18
03e0
0000
ENDCHAR
STARTCHAR 0x225b
ENCODING 8795
SWIDTH 1000 0
DWIDTH 16 0
BBX 16 16 0 -2
BITMAP
03e0
0c18
11c4
2362
2632
4231
4061
40c1
4061
4231
2632
2362
11c4
0c18
03e0
0000
ENDCHAR
STARTCHAR 0x225c
ENCODING 8796
SWIDTH 1000 0
DWIDTH 16 0
BBX 16 16 0 -2
BITMAP
03e0
0c18
1044
20c2
21c2
42c1
42c1
44c1
44c1
4ff1
20c2
20c2
11e4
0c18
03e0
0000
ENDCHAR
STARTCHAR 0x225d
ENCODING 8797
SWIDTH 1000 0
DWIDTH 16 0
BBX 16 16 0 -2
BITMAP
03e0
0c18
1004
27f2
27e2
4401
45c1
4761
4431
4031
2632
2362
11c4
0c18
03e0
0000
ENDCHAR
STARTCHAR 0x225e
ENCODING 8798
SWIDTH 1000 0
DWIDTH 16 0
BBX 16 16 0 -2
BITMAP
03e0
0c18
11e4
2332
2612
4601
46c1
4761
4731
4631
2632
2362
11c4
0c18
03e0
0000
ENDCHAR
STARTCHAR 0x225f
ENCODING 8799
SWIDTH 1000 0
DWIDTH 16 0
BBX 16 16 0 -2
BITMAP
03e0
0c18
1004
27f2
27f2
4431
4021
4061
4061
40c1
2182
2302
1304
0c18
03e0
0000
ENDCHAR
STARTCHAR 0x2260
ENCODING 8800
SWIDTH 1000 0
DWIDTH 16 0
BBX 16 16 0 -2
BITMAP
03e0
0c18
11c4
2362
2632
4631
4361
41c1
4361
4631
2632
2362
11c4
0c18
03e0
0000
ENDCHAR
STARTCHAR 0x2261
ENCODING 8801
SWIDTH 1000 0
DWIDTH 16 0
BBX 16 16 0 -2
BITMAP
03e0
0c18
1004
21c2
2362
4631
4631
4631
4371
40b1
2632
2362
11c4
0c18
03e0
0000
ENDCHAR
STARTCHAR 0x2262
ENCODING 8802
SWIDTH 1000 0
DWIDTH 16 0
BBX 16 16 0 -2
BITMAP
03e0
0c18
1274
2eda
26da
46d9
46d9
46d9
46d9
46d9
26da
2f72
1004
0c18
03e0
0000
ENDCHAR
STARTCHAR 0x2263
ENCODING 8803
SWIDTH 1000 0
DWIDTH 16 0
BBX 16 16 0 -2
BITMAP
0000
0000
0000
0000
0000
0000
0000
0000
0000
0000
0000
0000
0000
0000
0000
0000
ENDCHAR
STARTCHAR 0x2264
ENCODING 8804
SWIDTH 1000 0
DWIDTH 16 0
BBX 16 16 0 -2
BITMAP
0000
0000
0000
0000
0000
0000
0000
0000
0000
0000
0000
0000
0000
0000
0000
0000
ENDCHAR
STARTCHAR 0x2265
ENCODING 8805
SWIDTH 1000 0
DWIDTH 16 0
BBX 16 16 0 -2
BITMAP
0000
0808
1004
1004
2002
2002
2012
2ffa
2002
2002
2002
2002
1004
1004
0808
0000
ENDCHAR
STARTCHAR 0x2266
ENCODING 8806
SWIDTH 1000 0
DWIDTH 16 0
BBX 16 16 0 -2
BITMAP
0000
0808
1004
1024
27f2
2002
2002
2002
2002
2002
2012
2ffa
1004
1004
0808
0000
ENDCHAR
STARTCHAR 0x2267
ENCODING 8807
SWIDTH 1000 0
DWIDTH 16 0
BBX 16 16 0 -2
BITMAP
0000
0808
1024
17f4
2002
2002
2042
23e2
2002
2002
2012
2ffa
1004
1004
0808
0000
ENDCHAR
STARTCHAR 0x2268
ENCODING 8808
SWIDTH 1000 0
DWIDTH 16 0
BBX 16 16 0 -2
BITMAP
0000
0808
1004
180c
2ffe
294a
294a
294a
2b4a
2c7a
280a
2ffa
180c
1004
0808
0000
ENDCHAR
STARTCHAR 0x2269
ENCODING 8809
SWIDTH 1000 0
DWIDTH 16 0
BBX 16 16 0 -2
BITMAP
0000
0808
1024
17f4
2102
2122
27f2
2122
2122
2122
212a
2ffa
1004
1004
0808
0000
ENDCHAR
STARTCHAR 0x226a
ENCODING 8810
SWIDTH 1000 0
DWIDTH 16 0
BBX 16 16 0 -2
BITMAP
0000
0908
1184
1094
2ffa
2002
2042
2242
2262
2222
2222
2412
1414
1004
0808
0000
ENDCHAR
STARTCHAR 0x226b
ENCODING 8811
SWIDTH 1000 0
DWIDTH 16 0
BBX 16 16 0 -2
BITMAP
0000
0808
1104
1104
2102
213a
23e2
2d02
2102
2102
2102
218a
10f4
1004
0808
0000
ENDCHAR
STARTCHAR 0x226c
ENCODING 8812
SWIDTH 1000 0
DWIDTH 16 0
BBX 16 16 0 -2
BITMAP
0000
0888
1044
1244
2242
2242
2262
2222
2222
2422
2432
2812
1014
1004
0808
0000
ENDCHAR
STARTCHAR 0x226d
ENCODING 8813
SWIDTH 1000 0
DWIDTH 16 0
BBX 16 16 0 -2
BITMAP
0000
0908
1104
1124
27f2
2122
2122
2162
2142
2342
2252
245a
1874
1004
0808
0000
ENDCHAR
STARTCHAR 0x226e
ENCODING 8814
SWIDTH 1000 0
DWIDTH 16 0
BBX 16 16 0 -2
BITMAP
0000
0808
1084
1084
2082
2082
2092
2ffa
2082
2082
2082
2082
1084
1084
0808
0000
ENDCHAR
STARTCHAR 0x226f
ENCODING 8815
SWIDTH 1000 0
DWIDTH 16 0
BBX 16 16 0 -2
BITMAP
0000
0000
0000
0000
0000
0000
0000
0000
0000
0000
0000
0000
0000
0000
0000
0000
ENDCHAR
STARTCHAR 0x2270
ENCODING 8816
SWIDTH 1000 0
DWIDTH 16 0
BBX 16 16 0 -2
BITMAP
0000
0000
0000
0000
0000
0000
0000
0000
0000
0000
0000
0000
0000
0000
0000
0000
ENDCHAR
STARTCHAR 0x2271
ENCODING 8817
SWIDTH 1000 0
DWIDTH 16 0
BBX 16 16 0 -2
BITMAP
0000
0000
01c0
0080
0080
0080
0080
0080
0080
0080
0080
0080
0080
01c0
0000
0000
ENDCHAR
STARTCHAR 0x2272
ENCODING 8818
SWIDTH 1000 0
DWIDTH 16 0
BBX 16 16 0 -2
BITMAP
0000
0000
0770
0220
0220
0220
0220
0220
0220
0220
0220
0220
0220
0770
0000
0000
ENDCHAR
STARTCHAR 0x2273
ENCODING 8819
SWIDTH 1000 0
DWIDTH 16 0
BBX 16 16 0 -2
BITMAP
0000
0000
1ddc
0888
0888
0888
0888
0888
0888
0888
0888
0888
0888
1ddc
0000
0000
ENDCHAR
STARTCHAR 0x2274
ENCODING 8820
SWIDTH 1000 0
DWIDTH 16 0
BBX 16 16 0 -2
BITMAP
0000
0000
1ddc
0888
0888
0888
0888
0888
0888
0850
0850
0850
0820
1c20
0000
0000
ENDCHAR
STARTCHAR 0x2275
ENCODING 8821
SWIDTH 1000 0
DWIDTH 16 0
BBX 16 16 0 -2
BITMAP
0000
0000
0e38
0410
0410
0410
0610
0220
0220
0320
0140
0140
0080
0080
0000
0000
ENDCHAR
STARTCHAR 0x2276
ENCODING 8822
SWIDTH 1000 0
DWIDTH 16 0
BBX 16 16 0 -2
BITMAP
0000
0000
1ddc
0888
0888
0888
0888
0888
0508
0508
0508
0508
0208
021c
0000
0000
ENDCHAR
STARTCHAR 0x2277
ENCODING 8823
SWIDTH 1000 0
DWIDTH 16 0
BBX 16 16 0 -2
BITMAP
0000
0000
3bbe
1114
1114
1114
1114
1114
0a14
0a14
0a14
0a14
0414
043e
0000
0000
ENDCHAR
STARTCHAR 0x2278
ENCODING 8824
SWIDTH 1000 0
DWIDTH 16 0
BBX 16 16 0 -2
BITMAP
0000
0000
3bfe
1154
1154
1154
1154
1154
0a54
0a54
0a54
0a54
0454
04fe
0000
0000
ENDCHAR
STARTCHAR 0x2279
ENCODING 8825
SWIDTH 1000 0
DWIDTH 16 0
BBX 16 16 0 -2
BITMAP
0000
0000
1ddc
0888
0888
0888
0850
0850
0820
0850
0850
0888
0888
1ddc
0000
0000
ENDCHAR
STARTCHAR 0x227a
ENCODING 8826
SWIDTH 1000 0
DWIDTH 16 0
BBX 16 16 0 -2
BITMAP
0000
0000
0e38
0410
0410
0220
0140
0080
0140
0220
0220
0410
0410
0e38
0000
0000
ENDCHAR
STARTCHAR 0x227b
ENCODING 8827
SWIDTH 1000 0
DWIDTH 16 0
BBX 16 16 0 -2
BITMAP
0000
0000
1ddc
0888
0888
0888
0508
0508
0208
0508
0888
0888
0888
1ddc
0000
0000
ENDCHAR
STARTCHAR 0x227c
ENCODING 8828
SWIDTH 1000 0
DWIDTH 16 0
BBX 16 16 0 -2
BITMAP
0000
0000
3fbe
1114
1114
1114
0a14
0a14
0414
0a14
1114
1114
1114
3fbe
0000
0000
ENDCHAR
STARTCHAR 0x227d
ENCODING 8829
SWIDTH 1000 0
DWIDTH 16 0
BBX 16 16 0 -2
BITMAP
0000
0000
0000
0000
0000
0000
0000
0000
0000
0000
0000
0000
0000
0000
0000
0000
ENDCHAR
STARTCHAR 0x227e
ENCODING 8830
SWIDTH 1000 0
DWIDTH 16 0
BBX 16 16 0 -2
BITMAP
0000
0000
0000
0000
0000
0000
0000
0000
0000
0000
0000
0000
0000
0000
0000
0000
ENDCHAR
STARTCHAR 0x2321
ENCODING 8993
SWIDTH 1000 0
DWIDTH 16 0
BBX 16 16 0 -2
BITMAP
0000
0180
03c0
03c0
03c0
03c0
03c0
0180
0180
0180
0000
0180
03c0
0180
0000
0000
ENDCHAR
STARTCHAR 0x2322
ENCODING 8994
SWIDTH 1000 0
DWIDTH 16 0
BBX 16 16 0 -2
BITMAP
0000
0000
0000
0420
0e70
0e70
0420
0420
0000
0000
0000
0000
0000
0000
0000
0000
ENDCHAR
STARTCHAR 0x2323
ENCODING 8995
SWIDTH 1000 0
DWIDTH 16 0
BBX 16 16 0 -2
BITMAP
0000
0000
0220
0220
0ff8
0ff8
0220
0220
0220
0ff8
0ff8
0220
0220
0220
0000
0000
ENDCHAR
STARTCHAR 0x2324
ENCODING 8996
SWIDTH 1000 0
DWIDTH 16 0
BBX 16 16 0 -2
BITMAP
0000
0000
1c38
0810
0420
0240
0240
0180
0ff0
0180
0180
0180
0180
03c0
0000
0000
ENDCHAR
STARTCHAR 0x2325
ENCODING 8997
SWIDTH 1000 0
DWIDTH 16 0
BBX 16 16 0 -2
BITMAP
0000
0000
0c04
1208
1210
0c20
0040
0080
0100
0218
0424
0824
1018
0000
0000
0000
ENDCHAR
STARTCHAR 0x2326
ENCODING 8998
SWIDTH 1000 0
DWIDTH 16 0
BBX 16 16 0 -2
BITMAP
0000
0000
00e0
0190
0310
0320
0140
0380
058c
0cd8
1870
1060
18f0
0f1e
0000
0000
ENDCHAR
STARTCHAR 0x2327
ENCODING 8999
SWIDTH 1000 0
DWIDTH 16 0
BBX 16 16 0 -2
BITMAP
0000
0000
0000
0070
0060
00c0
0080
0100
0000
0000
0000
0000
0000
0000
0000
0000
ENDCHAR
STARTCHAR 0x2328
ENCODING 9000
SWIDTH 1000 0
DWIDTH 16 0
BBX 16 16 0 -2
BITMAP
0000
0008
0010
0060
0040
00c0
0080
0180
0180
0080
00c0
0040
0060
0010
0008
0000
ENDCHAR
STARTCHAR 0x2329
ENCODING 9001
SWIDTH 1000 0
DWIDTH 16 0
BBX 16 16 0 -2
BITMAP
0000
1000
0800
0600
0200
0300
0100
0180
0180
0100
0300
0200
0600
0800
1000
0000
ENDCHAR
STARTCHAR 0x232a
ENCODING 9002
SWIDTH 1000 0
DWIDTH 16 0
BBX 16 16 0 -2
BITMAP
0000
0000
0000
0000
0000
0630
0220
0140
1ffc
0140
0220
0630
0000
0000
0000
0000
ENDCHAR
STARTCHAR 0x232b
ENCODING 9003
SWIDTH 1000 0
DWIDTH 16 0
BBX 16 16 0 -2
BITMAP
0000
0000
0000
0080
0080
0080
0080
0ff8
0080
0080
0080
0080
0080
0000
0000
0000
ENDCHAR
STARTCHAR 0x232c
ENCODING 9004
SWIDTH 1000 0
DWIDTH 16 0
BBX 16 16 0 -2
BITMAP
0000
0000
0000
0000
0000
0000
0000
0000
0c00
1e00
1e00
0c00
0400
0800
1000
0000
ENDCHAR
STARTCHAR 0x232d
ENCODING 9005
SWIDTH 1000 0
DWIDTH 16 0
BBX 16 16 0 -2
BITMAP
0000
0000
0000
0000
0000
0000
0000
0ff8
0000
0000
0000
0000
0000
0000
0000
0000
ENDCHAR
STARTCHAR 0x232e
ENCODING 9006
SWIDTH 1000 0
DWIDTH 16 0
BBX 16 16 0 -2
BITMAP
0000
0000
0000
0000
0000
0000
0000
0000
0000
0000
0000
1800
3c00
3c00
1800
0000
ENDCHAR
STARTCHAR 0x232f
ENCODING 9007
SWIDTH 1000 0
DWIDTH 16 0
BBX 16 16 0 -2
BITMAP
0000
0002
0004
0008
0010
0020
0040
0080
0100
0200
0400
0800
1000
2000
0000
0000
ENDCHAR
STARTCHAR 0x2330
ENCODING 9008
SWIDTH 1000 0
DWIDTH 16 0
BBX 16 16 0 -2
BITMAP
0000
0000
01c0
0360
0630
0630
0630
0630
0630
0630
0630
0630
0360
01c0
0000
0000
ENDCHAR
STARTCHAR 0x2331
ENCODING 9009
SWIDTH 1000 0
DWIDTH 16 0
BBX 16 16 0 -2
BITMAP
0000
0000
0080
0380
0180
0180
0180
0180
0180
0180
0180
0180
0180
03c0
0000
0000
ENDCHAR
STARTCHAR 0x2332
ENCODING 9010
SWIDTH 1000 0
DWIDTH 16 0
BBX 16 16 0 -2
BITMAP
0000
0000
01c0
0360
0630
0630
0230
0030
0060
00c0
0180
0300
0610
07f0
0000
0000
ENDCHAR
STARTCHAR 0x2333
ENCODING 9011
SWIDTH 1000 0
DWIDTH 16 0
BBX 16 16 0 -2
BITMAP
0000
0000
01e0
0370
0630
0030
0060
01c0
0060
0030
0e30
0c30
0660
03c0
0000
0000
ENDCHAR
STARTCHAR 0x2334
ENCODING 9012
SWIDTH 1000 0
DWIDTH 16 0
BBX 16 16 0 -2
BITMAP
0000
0040
00c0
01c0
02c0
02c0
06c0
04c0
04c0
0cc0
0ff0
00c0
00c0
01e0
0000
0000
ENDCHAR
STARTCHAR 0x2335
ENCODING 9013
SWIDTH 1000 0
DWIDTH 16 0
BBX 16 16 0 -2
BITMAP
0000
0000
07f0
07f0
0400
0400
05c0
0760
0430
0030
0230
0630
0360
01c0
0000
0000
ENDCHAR
STARTCHAR 0x2336
ENCODING 9014
SWIDTH 1000 0
DWIDTH 16 0
BBX 16 16 0 -2
BITMAP
0000
0000
01c0
0360
0630
0600
06c0
0760
0630
0630
0630
0630
0360
01c0
0000
0000
ENDCHAR
STARTCHAR 0x2337
ENCODING 9015
SWIDTH 1000 0
DWIDTH 16 0
BBX 16 16 0 -2
BITMAP
0000
0000
0ff0
0ff0
0830
0060
00c0
00c0
0180
0180
0300
0300
0600
0600
0000
0000
ENDCHAR
STARTCHAR 0x2338
ENCODING 9016
SWIDTH 1000 0
DWIDTH 16 0
BBX 16 16 0 -2
BITMAP
0000
0000
01c0
0360
0630
0630
0360
01c0
0360
0630
0630
0630
0360
01c0
0000
0000
ENDCHAR
STARTCHAR 0x2339
ENCODING 9017
SWIDTH 1000 0
DWIDTH 16 0
BBX 16 16 0 -2
BITMAP
0000
0000
01c0
0360
0630
0630
0630
0630
0370
01f0
0030
0630
0360
01c0
0000
0000
ENDCHAR
STARTCHAR 0x233a
ENCODING 9018
SWIDTH 1000 0
DWIDTH 16 0
BBX 16 16 0 -2
BITMAP
0000
0000
0000
0000
0000
0000
0600
0f00
0f00
0600
0000
0600
0f00
0f00
0600
0000
ENDCHAR
STARTCHAR 0x233b
ENCODING 9019
SWIDTH 1000 0
DWIDTH 16 0
BBX 16 16 0 -2
BITMAP
0000
0000
0000
0000
0000
0c00
1e00
1e00
0c00
0000
0c00
1e00
1e00
0c00
0400
0800
ENDCHAR
STARTCHAR 0x233c
ENCODING 9020
SWIDTH 1000 0
DWIDTH 16 0
BBX 16 16 0 -2
BITMAP
0000
0000
000c
0030
00c0
0300
0c00
3000
6000
3000
0c00
0300
00c0
0030
000c
0000
ENDCHAR
STARTCHAR 0x233d
ENCODING 9021
SWIDTH 1000 0
DWIDTH 16 0
BBX 16 16 0 -2
BITMAP
0000
0000
0000
0000
0000
0ff8
0000
0000
0ff8
0000
0000
0000
0000
0000
0000
0000
ENDCHAR
STARTCHAR 0x233e
ENCODING 9022
SWIDTH 1000 0
DWIDTH 16 0
BBX 16 16 0 -2
BITMAP
0000
0000
1800
0600
0180
0060
0018
0006
0003
0006
0018
0060
0180
0600
1800
0000
ENDCHAR
STARTCHAR 0x233f
ENCODING 9023
SWIDTH 1000 0
DWIDTH 16 0
BBX 16 16 0 -2
BITMAP
0000
0000
07f0
1818
300c
380c
0038
00e0
00c0
0080
0000
0000
0180
03c0
0180
0000
ENDCHAR
STARTCHAR 0x2340
ENCODING 9024
SWIDTH 1000 0
DWIDTH 16 0
BBX 16 16 0 -2
BITMAP
0000
0000
03e0
0410
0808
11c4
1224
1224
1224
1234
11cc
0800
0408
03f0
0000
0000
ENDCHAR
STARTCHAR 0x2341
ENCODING 9025
SWIDTH 1000 0
DWIDTH 16 0
BBX 16 16 0 -2
BITMAP
0000
0000
0080
01c0
0140
0260
0260
0430
0430
07f0
0c38
0818
0818
1c3c
0000
0000
ENDCHAR
STARTCHAR 0x2342
ENCODING 9026
SWIDTH 1000 0
DWIDTH 16 0
BBX 16 16 0 -2
BITMAP
0000
0000
1fe0
0c38
0c18
0c18
0c30
0ff0
0c18
0c0c
0c0c
0c0c
0c38
1fe0
0000
0000
ENDCHAR
STARTCHAR 0x2343
ENCODING 9027
SWIDTH 1000 0
DWIDTH 16 0
BBX 16 16 0 -2
BITMAP
0000
0000
03e0
0638
0c18
1800
1800
1800
1800
1800
1800
0c08
0630
03e0
0000
0000
ENDCHAR
STARTCHAR 0x2344
ENCODING 9028
SWIDTH 1000 0
DWIDTH 16 0
BBX 16 16 0 -2
BITMAP
0000
0000
1fc0
0c70
0c18
0c0c
0c0c
0c0c
0c0c
0c0c
0c0c
0c18
0c70
1fc0
0000
0000
ENDCHAR
STARTCHAR 0x2345
ENCODING 9029
SWIDTH 1000 0
DWIDTH 16 0
BBX 16 16 0 -2
BITMAP
0000
0000
1ff8
0c18
0c08
0c00
0c20
0fe0
0c20
0c00
0c00
0c08
0c18
1ff8
0000
0000
ENDCHAR
STARTCHAR 0x2346
ENCODING 9030
SWIDTH 1000 0
DWIDTH 16 0
BBX 16 16 0 -2
BITMAP
0000
0000
1ff8
0c18
0c08
0c00
0c20
0fe0
0c20
0c00
0c00
0c00
0c00
1e00
0000
0000
ENDCHAR
STARTCHAR 0x2347
ENCODING 9031
SWIDTH 1000 0
DWIDTH 16 0
BBX 16 16 0 -2
BITMAP
0000
0000
03f0
061c
0c0c
1804
1800
1800
1800
183c
1818
0c18
0618
03f0
0000
0000
ENDCHAR
STARTCHAR 0x2348
ENCODING 9032
SWIDTH 1000 0
DWIDTH 16 0
BBX 16 16 0 -2
BITMAP
0000
0000
1e3c
0c18
0c18
0c18
0c18
0ff8
0c18
0c18
0c18
0c18
0c18
1e3c
0000
0000
ENDCHAR
STARTCHAR 0x2349
ENCODING 9033
SWIDTH 1000 0
DWIDTH 16 0
BBX 16 16 0 -2
BITMAP
0000
0000
03c0
0180
0180
0180
0180
0180
0180
0180
0180
0180
0180
03c0
0000
0000
ENDCHAR
STARTCHAR 0x234a
ENCODING 9034
SWIDTH 1000 0
DWIDTH 16 0
BBX 16 16 0 -2
BITMAP
0000
0000
01e0
00c0
00c0
00c0
00c0
00c0
00c0
00c0
00c0
38c0
18c0
0f80
0000
0000
ENDCHAR
STARTCHAR 0x234b
ENCODING 9035
SWIDTH 1000 0
DWIDTH 16 0
BBX 16 16 0 -2
BITMAP
0000
0000
1e7c
0c30
0c60
0cc0
0d80
0f80
0dc0
0ce0
0c70
0c38
0c1c
1e1e
0000
0000
ENDCHAR
STARTCHAR 0x234c
ENCODING 9036
SWIDTH 1000 0
DWIDTH 16 0
BBX 16 16 0 -2
BITMAP
0000
0000
1e00
0c00
0c00
0c00
0c00
0c00
0c00
0c00
0c00
0c08
0c18
1ff8
0000
0000
ENDCHAR
STARTCHAR 0x234d
ENCODING 9037
SWIDTH 1000 0
DWIDTH 16 0
BBX 16 16 0 -2
BITMAP
0000
0000
380e
180c
1c1c
162c
162c
136c
134c
114c
11cc
108c
108c
381e
0000
0000
ENDCHAR
STARTCHAR 0x234e
ENCODING 9038
SWIDTH 1000 0
DWIDTH 16 0
BBX 16 16 0 -2
BITMAP
0000
0000
1c1c
0e08
0b08
0b08
0988
0988
08c8
08c8
0868
0868
0838
1c1c
0000
0000
ENDCHAR
STARTCHAR 0x234f
ENCODING 9039
SWIDTH 1000 0
DWIDTH 16 0
BBX 16 16 0 -2
BITMAP
0000
0000
03e0
0630
0c18
180c
180c
180c
180c
180c
180c
0c18
0630
03e0
0000
0000
ENDCHAR
STARTCHAR 0x2350
ENCODING 9040
SWIDTH 1000 0
DWIDTH 16 0
BBX 16 16 0 -2
BITMAP
0000
0000
1fe0
0e30
0c18
0c18
0c18
0e30
0fe0
0c00
0c00
0c00
0c00
1e00
0000
0000
ENDCHAR
STARTCHAR 0x2351
ENCODING 9041
SWIDTH 1000 0
DWIDTH 16 0
BBX 16 16 0 -2
BITMAP
0000
0000
03e0
0e38
180c
180c
180c
180c
180c
180c
0c0c
0638
03f0
0030
0018
0000
ENDCHAR
STARTCHAR 0x2352
ENCODING 9042
SWIDTH 1000 0
DWIDTH 16 0
BBX 16 16 0 -2
BITMAP
0000
0000
1fc0
0c70
0c18
0c18
0c18
0c30
0fe0
0cc0
0c60
0c30
0c18
1e3e
0000
0000
ENDCHAR
STARTCHAR 0x2353
ENCODING 9043
SWIDTH 1000 0
DWIDTH 16 0
BBX 16 16 0 -2
BITMAP
0000
0000
07e8
0c18
1808
1800
0e00
03e0
0030
0018
0018
1018
1c30
17c0
0000
0000
ENDCHAR
STARTCHAR 0x2354
ENCODING 9044
SWIDTH 1000 0
DWIDTH 16 0
BBX 16 16 0 -2
BITMAP
0000
0000
3ffc
2184
0180
0180
0180
0180
0180
0180
0180
0180
0180
03c0
0000
0000
ENDCHAR
STARTCHAR 0x2355
ENCODING 9045
SWIDTH 1000 0
DWIDTH 16 0
BBX 16 16 0 -2
BITMAP
0000
0000
1e1c
0c08
0c08
0c08
0c08
0c08
0c08
0c08
0c08
0c18
0630
03e0
0000
0000
ENDCHAR
STARTCHAR 0x2356
ENCODING 9046
SWIDTH 1000 0
DWIDTH 16 0
BBX 16 16 0 -2
BITMAP
0000
0000
3c1c
1808
1808
1810
0c10
0c20
0c20
0640
0640
0280
0380
0100
0000
0000
ENDCHAR
STARTCHAR 0x2357
ENCODING 9047
SWIDTH 1000 0
DWIDTH 16 0
BBX 16 16 0 -2
BITMAP
0000
0000
3dee
18c4
18c4
18c4
0cc4
0cc8
0d68
0d68
0d68
0628
0630
0610
0000
0000
ENDCHAR
STARTCHAR 0x2358
ENCODING 9048
SWIDTH 1000 0
DWIDTH 16 0
BBX 16 16 0 -2
BITMAP
0000
0000
1e1c
0c08
0618
0730
0360
01c0
01c0
0360
0660
0430
0818
1c3c
0000
0000
ENDCHAR
STARTCHAR 0x2359
ENCODING 9049
SWIDTH 1000 0
DWIDTH 16 0
BBX 16 16 0 -2
BITMAP
0000
0000
7c1e
380c
1c18
0e30
0760
03c0
0180
0180
0180
0180
0180
03c0
0000
0000
ENDCHAR
STARTCHAR 0x235a
ENCODING 9050
SWIDTH 1000 0
DWIDTH 16 0
BBX 16 16 0 -2
BITMAP
0000
0000
3ff8
2018
0030
0060
00c0
0180
0300
0600
0c00
1808
3018
3ff8
0000
0000
ENDCHAR
STARTCHAR 0x235b
ENCODING 9051
SWIDTH 1000 0
DWIDTH 16 0
BBX 16 16 0 -2
BITMAP
0000
07f8
0400
0400
0400
0400
0400
0400
0400
0400
0400
0400
0400
0400
07f8
0000
ENDCHAR
STARTCHAR 0x235c
ENCODING 9052
SWIDTH 1000 0
DWIDTH 16 0
BBX 16 16 0 -2
BITMAP
0000
0000
1000
0800
0400
0200
0100
0080
0040
0020
0010
0008
0004
0002
0000
0000
ENDCHAR
STARTCHAR 0x235d
ENCODING 9053
SWIDTH 1000 0
DWIDTH 16 0
BBX 16 16 0 -2
BITMAP
0000
0ff0
0010
0010
0010
0010
0010
0010
0010
0010
0010
0010
0010
0010
0ff0
0000
ENDCHAR
STARTCHAR 0x235e
ENCODING 9054
SWIDTH 1000 0
DWIDTH 16 0
BBX 16 16 0 -2
BITMAP
0080
0140
0220
0410
0808
1004
0000
0000
0000
0000
0000
0000
0000
0000
0000
0000
ENDCHAR
STARTCHAR 0x235f
ENCODING 9055
SWIDTH 1000 0
DWIDTH 16 0
BBX 16 16 0 -2
BITMAP
0000
0000
0000
0000
0000
0000
0000
0000
0000
0000
0000
0000
0000
ffff
0000
0000
ENDCHAR
STARTCHAR 0x2360
ENCODING 9056
SWIDTH 1000 0
DWIDTH 16 0
BBX 16 16 0 -2
BITMAP
0100
0100
0180
0080
00c0
0040
0040
0000
0000
0000
0000
0000
0000
0000
0000
0000
ENDCHAR
STARTCHAR 0x2361
ENCODING 9057
SWIDTH 1000 0
DWIDTH 16 0
BBX 16 16 0 -2
BITMAP
0000
0000
0000
0000
0000
0000
07c0
0c60
0060
07e0
0c60
0c60
07d8
0000
0000
0000
ENDCHAR
STARTCHAR 0x2362
ENCODING 9058
SWIDTH 1000 0
DWIDTH 16 0
BBX 16 16 0 -2
BITMAP
0000
0000
0600
0e00
0600
0600
07e0
0618
0618
0618
0618
0618
03f0
0000
0000
0000
ENDCHAR
STARTCHAR 0x2363
ENCODING 9059
SWIDTH 1000 0
DWIDTH 16 0
BBX 16 16 0 -2
BITMAP
0000
0000
0000
0000
0000
0000
03e0
0c30
0c00
0c00
0c00
0c30
07e0
0000
0000
0000
ENDCHAR
STARTCHAR 0x2364
ENCODING 9060
SWIDTH 1000 0
DWIDTH 16 0
BBX 16 16 0 -2
BITMAP
0000
0000
0060
00e0
0060
0060
07e0
0c60
0c60
0c60
0c60
0c60
07f0
0000
0000
0000
ENDCHAR
STARTCHAR 0x2365
ENCODING 9061
SWIDTH 1000 0
DWIDTH 16 0
BBX 16 16 0 -2
BITMAP
0000
0000
0000
0000
0000
0000
01f0
0618
0618
07f8
0600
0618
03f0
0000
0000
0000
ENDCHAR
STARTCHAR 0x2366
ENCODING 9062
SWIDTH 1000 0
DWIDTH 16 0
BBX 16 16 0 -2
BITMAP
0000
0000
00f0
0198
0180
0180
07e0
0180
0180
0180
0180
0180
03c0
0000
0000
0000
ENDCHAR
STARTCHAR 0x2367
ENCODING 9063
SWIDTH 1000 0
DWIDTH 16 0
BBX 16 16 0 -2
BITMAP
0000
0000
0000
0000
0000
0000
07f0
0cc0
0cc0
0780
0c00
0f80
1ce0
1860
0cc0
0780
ENDCHAR
STARTCHAR 0x2368
ENCODING 9064
SWIDTH 1000 0
DWIDTH 16 0
BBX 16 16 0 -2
BITMAP
0000
0000
0600
0e00
0600
0600
06e0
0730
0630
0630
0630
0630
0e78
0000
0000
0000
ENDCHAR
STARTCHAR 0x2369
ENCODING 9065
SWIDTH 1000 0
DWIDTH 16 0
BBX 16 16 0 -2
BITMAP
0000
0000
0000
0180
0180
0000
0180
0380
0180
0180
0180
0180
03c0
0000
0000
0000
ENDCHAR
STARTCHAR 0x236a
ENCODING 9066
SWIDTH 1000 0
DWIDTH 16 0
BBX 16 16 0 -2
BITMAP
0000
0000
0000
0180
0180
0000
03c0
0180
0180
0180
0180
0180
1980
1980
0f00
0000
ENDCHAR
STARTCHAR 0x236b
ENCODING 9067
SWIDTH 1000 0
DWIDTH 16 0
BBX 16 16 0 -2
BITMAP
0000
0000
0600
0e00
0600
0600
0638
0630
0760
07c0
0660
0630
0e3c
0000
0000
0000
ENDCHAR
STARTCHAR 0x236c
ENCODING 9068
SWIDTH 1000 0
DWIDTH 16 0
BBX 16 16 0 -2
BITMAP
0000
0000
0180
0380
0180
0180
0180
0180
0180
0180
0180
0180
03c0
0000
0000
0000
ENDCHAR
STARTCHAR 0x236d
ENCODING 9069
SWIDTH 1000 0
DWIDTH 16 0
BBX 16 16 0 -2
BITMAP
0000
0000
0000
0000
0000
0000
6f7c
18c6
18c6
18c6
18c6
18c6
3def
0000
0000
0000
ENDCHAR
STARTCHAR 0x236e
ENCODING 9070
SWIDTH 1000 0
DWIDTH 16 0
BBX 16 16 0 -2
BITMAP
0000
0000
0000
0000
0000
0000
37e0
0c30
0c30
0c30
0c30
0c30
1e78
0000
0000
0000
ENDCHAR
STARTCHAR 0x236f
ENCODING 9071
SWIDTH 1000 0
DWIDTH 16 0
BBX 16 16 0 -2
BITMAP
0000
0000
0000
0000
0000
0000
03e0
0630
0630
0630
0630
0630
03e0
0000
0000
0000
ENDCHAR
STARTCHAR 0x2370
ENCODING 9072
SWIDTH 1000 0
DWIDTH 16 0
BBX 16 16 0 -2
BITMAP
0000
0000
0000
0000
0000
0000
19f0
0618
0618
0618
0618
0618
07e0
0600
0600
0f00
ENDCHAR
STARTCHAR 0x2371
ENCODING 9073
SWIDTH 1000 0
DWIDTH 16 0
BBX 16 16 0 -2
BITMAP
0000
0000
0000
0000
0000
0000
03e8
0630
0630
0630
0630
03f0
0030
0030
0030
0038
ENDCHAR
STARTCHAR 0x2372
ENCODING 9074
SWIDTH 1000 0
DWIDTH 16 0
BBX 16 16 0 -2
BITMAP
0000
0000
0000
0000
0000
0000
0ef8
030c
0300
0300
0300
0300
0780
0000
0000
0000
ENDCHAR
STARTCHAR 0x2373
ENCODING 9075
SWIDTH 1000 0
DWIDTH 16 0
BBX 16 16 0 -2
BITMAP
0000
0000
0000
0000
0000
0000
03e0
0630
0300
01e0
0030
0630
03e0
0000
0000
0000
ENDCHAR
STARTCHAR 0x2374
ENCODING 9076
SWIDTH 1000 0
DWIDTH 16 0
BBX 16 16 0 -2
BITMAP
0000
0000
0000
0080
0180
0180
0ff0
0180
0180
0180
0180
01b0
00e0
0000
0000
0000
ENDCHAR
STARTCHAR 0x2375
ENCODING 9077
SWIDTH 1000 0
DWIDTH 16 0
BBX 16 16 0 -2
BITMAP
0000
0000
0000
0000
0000
0000
1e78
0c30
0c30
0c30
0c30
0c70
07dc
0000
0000
0000
ENDCHAR
STARTCHAR 0x2376
ENCODING 9078
SWIDTH 1000 0
DWIDTH 16 0
BBX 16 16 0 -2
BITMAP
0000
0000
0000
0000
0000
0000
1e1e
0e0c
0608
0310
01a0
00c0
0080
0000
0000
0000
ENDCHAR
STARTCHAR 0x2377
ENCODING 9079
SWIDTH 1000 0
DWIDTH 16 0
BBX 16 16 0 -2
BITMAP
0000
0000
0000
0000
0000
0000
3dee
18c4
08cc
0d68
0528
0630
0210
0000
0000
0000
ENDCHAR
STARTCHAR 0x2378
ENCODING 9080
SWIDTH 1000 0
DWIDTH 16 0
BBX 16 16 0 -2
BITMAP
0000
0000
0000
0000
0000
0000
3c3c
0c30
0360
01c0
0360
0c30
3e7c
0000
0000
0000
ENDCHAR
STARTCHAR 0x2379
ENCODING 9081
SWIDTH 1000 0
DWIDTH 16 0
BBX 16 16 0 -2
BITMAP
0000
0000
0000
0000
0000
0000
1f1c
0e08
0610
0320
0340
0180
0100
0200
0400
1800
ENDCHAR
STARTCHAR 0x237a
ENCODING 9082
SWIDTH 1000 0
DWIDTH 16 0
BBX 16 16 0 -2
BITMAP
0000
0000
0000
0000
0000
0000
07f0
0430
0060
0180
0300
0610
07f0
0000
0000
0000
ENDCHAR
STARTCHAR 0x237b
ENCODING 9083
SWIDTH 1000 0
DWIDTH 16 0
BBX 16 16 0 -2
BITMAP
00c0
0100
0100
0100
0100
0100
0200
0400
0200
0100
0100
0100
0100
0100
00c0
0000
ENDCHAR
STARTCHAR 0x237c
ENCODING 9084
SWIDTH 1000 0
DWIDTH 16 0
BBX 16 16 0 -2
BITMAP
0080
0080
0080
0080
0080
0080
0080
0080
0080
0080
0080
0080
0080
0080
0080
0080
ENDCHAR
STARTCHAR 0x237d
ENCODING 9085
SWIDTH 1000 0
DWIDTH 16 0
BBX 16 16 0 -2
BITMAP
0180
0040
0040
0040
0040
0040
0020
0010
0020
0040
0040
0040
0040
0040
0180
0000
ENDCHAR
STARTCHAR 0x237e
ENCODING 9086
SWIDTH 1000 0
DWIDTH 16 0
BBX 16 16 0 -2
BITMAP
3ffe
3ffe
0000
0000
0000
0000
0000
0000
0000
0000
0000
0000
0000
0000
0000
0000
ENDCHAR
STARTCHAR 0x2421
ENCODING 9249
SWIDTH 1000 0
DWIDTH 16 0
BBX 16 16 0 -2
BITMAP
0000
0000
0100
0100
0100
0ff0
0100
0380
0540
09b0
1108
1688
0810
0020
0040
0000
ENDCHAR
STARTCHAR 0x2422
ENCODING 9250
SWIDTH 1000 0
DWIDTH 16 0
BBX 16 16 0 -2
BITMAP
0000
0080
0080
0100
1ff8
0100
0180
0360
0550
0948
0884
1144
0e08
0010
0020
0000
ENDCHAR
STARTCHAR 0x2423
ENCODING 9251
SWIDTH 1000 0
DWIDTH 16 0
BBX 16 16 0 -2
BITMAP
0000
0000
0000
0800
0820
0810
0818
0808
0400
0400
0200
0280
0100
0000
0000
0000
ENDCHAR
STARTCHAR 0x2424
ENCODING 9252
SWIDTH 1000 0
DWIDTH 16 0
BBX 16 16 0 -2
BITMAP
0000
0000
1000
1000
1020
1010
101c
1808
0800
0800
0c00
0480
0500
0200
0000
0000
ENDCHAR
STARTCHAR 0x2425
ENCODING 9253
SWIDTH 1000 0
DWIDTH 16 0
BBX 16 16 0 -2
BITMAP
0000
0000
0000
07c0
0060
0180
0200
0fe0
0030
0010
0060
00c0
0100
0200
0000
0000
ENDCHAR
STARTCHAR 0x2426
ENCODING 9254
SWIDTH 1000 0
DWIDTH 16 0
BBX 16 16 0 -2
BITMAP
0000
0000
07c0
0060
00c0
0100
0fe0
0030
0018
0010
0030
0060
0080
0100
0200
0000
ENDCHAR
STARTCHAR 0x2427
ENCODING 9255
SWIDTH 1000 0
DWIDTH 16 0
BBX 16 16 0 -2
BITMAP
0000
0000
0300
0180
0200
0000
0fe0
0040
0080
0100
0280
04c8
0870
0000
0000
0000
ENDCHAR
STARTCHAR 0x2428
ENCODING 9256
SWIDTH 1000 0
DWIDTH 16 0
BBX 16 16 0 -2
BITMAP
0000
0000
03c0
0080
0100
0000
0fe0
0040
0080
0100
0280
0480
08c4
107c
0000
0000
ENDCHAR
STARTCHAR 0x2429
ENCODING 9257
SWIDTH 1000 0
DWIDTH 16 0
BBX 16 16 0 -2
BITMAP
0000
0000
0800
0460
0430
0e00
0460
0590
0608
0c08
1490
0c60
0400
0000
0000
0000
ENDCHAR
STARTCHAR 0x242a
ENCODING 9258
SWIDTH 1000 0
DWIDTH 16 0
BBX 16 16 0 -2
BITMAP
0000
0000
0818
040c
0400
1f30
0448
0484
0504
0604
0c88
1450
0c20
0400
0000
0000
ENDCHAR
STARTCHAR 0x242b
ENCODING 9259
SWIDTH 1000 0
DWIDTH 16 0
BBX 16 16 0 -2
BITMAP
0000
0000
0200
0100
1110
0f88
0148
0244
0244
0444
044c
0888
0880
1100
0000
0000
ENDCHAR
STARTCHAR 0x242c
ENCODING 9260
SWIDTH 1000 0
DWIDTH 16 0
BBX 16 16 0 -2
BITMAP
0000
0008
0206
0100
1116
0f88
0148
0244
0244
0444
044c
0888
0880
1100
0000
0000
ENDCHAR
STARTCHAR 0x242d
ENCODING 9261
SWIDTH 1000 0
DWIDTH 16 0
BBX 16 16 0 -2
BITMAP
0000
0200
0200
01f0
0f00
0080
00f0
0f40
0040
0020
0320
04d0
0420
0300
00e0
0000
ENDCHAR
STARTCHAR 0x242e
ENCODING 9262
SWIDTH 1000 0
DWIDTH 16 0
BBX 16 16 0 -2
BITMAP
0008
0206
0208
01f6
0f00
0080
00f0
0f40
0040
0020
0320
04d0
0420
0300
00e0
0000
ENDCHAR
STARTCHAR 0x242f
ENCODING 9263
SWIDTH 1000 0
DWIDTH 16 0
BBX 16 16 0 -2
BITMAP
0000
0000
0040
00c0
0180
0300
0200
0400
0c00
0400
0200
0300
0180
00c0
0040
0000
ENDCHAR
STARTCHAR 0x2430
ENCODING 9264
SWIDTH 1000 0
DWIDTH 16 0
BBX 16 16 0 -2
BITMAP
0008
0006
0048
00c6
0180
0300
0200
0400
0c00
0400
0200
0300
0180
00c0
0040
0000
ENDCHAR
STARTCHAR 0x2431
ENCODING 9265
SWIDTH 1000 0
DWIDTH 16 0
BBX 16 16 0 -2
BITMAP
0000
0020
1030
1010
107c
1010
1010
1810
0810
0810
0c10
0510
0610
0420
0040
0000
ENDCHAR
STARTCHAR 0x2432
ENCODING 9266
SWIDTH 1000 0
DWIDTH 16 0
BBX 16 16 0 -2
BITMAP
0004
0003
1024
1013
1010
107c
1010
1810
0810
0810
0c10
0510
0610
0420
0040
0000
ENDCHAR
STARTCHAR 0x2433
ENCODING 9267
SWIDTH 1000 0
DWIDTH 16 0
BBX 16 16 0 -2
BITMAP
0000
0000
0000
0fc0
00e0
0180
0000
0000
0000
1000
1000
0c38
07f0
0000
0000
0000
ENDCHAR
STARTCHAR 0x2434
ENCODING 9268
SWIDTH 1000 0
DWIDTH 16 0
BBX 16 16 0 -2
BITMAP
0008
0006
0008
0fc6
00e0
0180
0000
0000
0000
1000
1000
0c38
07f0
0000
0000
0000
ENDCHAR
STARTCHAR 0x2435
ENCODING 9269
SWIDTH 1000 0
DWIDTH 16 0
BBX 16 16 0 -2
BITMAP
0000
0200
0200
0100
01f0
0e80
00c0
0040
0040
0020
0330
04c0
0420
0300
00e0
0000
ENDCHAR
STARTCHAR 0x2436
ENCODING 9270
SWIDTH 1000 0
DWIDTH 16 0
BBX 16 16 0 -2
BITMAP
0008
0206
0208
0106
01f0
0e80
00c0
0040
0040
0020
0330
04c0
0420
0300
00e0
0000
ENDCHAR
STARTCHAR 0x2437
ENCODING 9271
SWIDTH 1000 0
DWIDTH 16 0
BBX 16 16 0 -2
BITMAP
0000
0000
0400
0400
0400
0400
0400
0400
0400
0400
0408
0610
0320
01c0
0000
0000
ENDCHAR
STARTCHAR 0x2438
ENCODING 9272
SWIDTH 1000 0
DWIDTH 16 0
BBX 16 16 0 -2
BITMAP
0000
0010
040c
0410
040c
0400
0400
0400
0400
0400
0408
0610
0320
01c0
0000
0000
ENDCHAR
STARTCHAR 0x2439
ENCODING 9273
SWIDTH 1000 0
DWIDTH 16 0
BBX 16 16 0 -2
BITMAP
0000
0080
0080
0080
0080
1ffc
0080
0180
0280
0280
0140
0040
0080
0100
0200
0000
ENDCHAR
STARTCHAR 0x243a
ENCODING 9274
SWIDTH 1000 0
DWIDTH 16 0
BBX 16 16 0 -2
BITMAP
0008
0086
0088
0086
0080
1ffc
0080
0180
0280
0280
0140
0040
0080
0100
0200
0000
ENDCHAR
STARTCHAR 0x243b
ENCODING 9275
SWIDTH 1000 0
DWIDTH 16 0
BBX 16 16 0 -2
BITMAP
0000
0000
0020
0220
0220
1ffc
0220
0220
0220
02a0
0240
0200
0200
01f8
0000
0000
ENDCHAR
STARTCHAR 0x243c
ENCODING 9276
SWIDTH 1000 0
DWIDTH 16 0
BBX 16 16 0 -2
BITMAP
0008
0006
0028
0226
0220
1ffc
0220
0220
0220
02a0
0240
0200
0200
01f8
0000
0000
ENDCHAR
STARTCHAR 0x243d
ENCODING 9277
SWIDTH 1000 0
DWIDTH 16 0
BBX 16 16 0 -2
BITMAP
0000
0000
07c0
0240
0080
0100
0200
0470
0b80
1c80
0100
0100
0100
0080
0070
0000
ENDCHAR
STARTCHAR 0x243e
ENCODING 9278
SWIDTH 1000 0
DWIDTH 16 0
BBX 16 16 0 -2
BITMAP
0008
0006
07c8
0246
0080
0100
0200
0470
0b80
1c80
0100
0100
0100
0080
0070
0000
ENDCHAR
STARTCHAR 0x243f
ENCODING 9279
SWIDTH 1000 0
DWIDTH 16 0
BBX 16 16 0 -2
BITMAP
0000
0000
0400
0438
1f0c
0408
0410
0400
0400
0400
0c80
1880
1040
303c
2000
0000
ENDCHAR
STARTCHAR 0x2440
ENCODING 9280
SWIDTH 1000 0
DWIDTH 16 0
BBX 16 16 0 -2
BITMAP
0004
0003
0404
043b
1f0c
0408
0410
0400
0400
0400
0c80
1880
1040
303c
2000
0000
ENDCHAR
STARTCHAR 0x2441
ENCODING 9281
SWIDTH 1000 0
DWIDTH 16 0
BBX 16 16 0 -2
BITMAP
0000
0080
00a0
0c90
07e0
0080
0080
0080
00b0
00c8
018c
000c
0018
0030
0040
0000
ENDCHAR
STARTCHAR 0x2442
ENCODING 9282
SWIDTH 1000 0
DWIDTH 16 0
BBX 16 16 0 -2
BITMAP
0004
0083
00a4
0c93
07e0
0080
0080
0080
00b0
00c8
018c
000c
0018
0030
0040
0000
ENDCHAR
STARTCHAR 0x2443
ENCODING 9283
SWIDTH 1000 0
DWIDTH 16 0
BBX 16 16 0 -2
BITMAP
0000
0000
0000
0000
0000
08e0
0710
0008
0008
0010
0060
0080
0000
0000
0000
0000
ENDCHAR
STARTCHAR 0x2444
ENCODING 9284
SWIDTH 1000 0
DWIDTH 16 0
BBX 16 16 0 -2
BITMAP
0000
0000
0000
0000
0070
2388
1c04
0004
0008
0008
0030
00c0
0100
0000
0000
0000
ENDCHAR
STARTCHAR 0x2445
ENCODING 9285
SWIDTH 1000 0
DWIDTH 16 0
BBX 16 16 0 -2
BITMAP
0008
0006
0008
0006
0070
2388
1c04
0004
0008
0008
0030
00c0
0100
0000
0000
0000
ENDCHAR
STARTCHAR 0x2446
ENCODING 9286
SWIDTH 1000 0
DWIDTH 16 0
BBX 16 16 0 -2
BITMAP
0000
0000
0000
003c
03c0
1d00
0100
0100
0100
0100
0200
0200
0130
00e0
0000
0000
ENDCHAR
STARTCHAR 0x2447
ENCODING 9287
SWIDTH 1000 0
DWIDTH 16 0
BBX 16 16 0 -2
BITMAP
0004
0003
0004
003b
03c0
1d00
0100
0100
0100
0100
0200
0200
0130
00e0
0000
0000
ENDCHAR
STARTCHAR 0x2448
ENCODING 9288
SWIDTH 1000 0
DWIDTH 16 0
BBX 16 16 0 -2
BITMAP
0000
0000
0100
0100
0100
0100
0140
0180
0300
0400
0800
0800
0800
0460
03c0
0000
ENDCHAR
STARTCHAR 0x2449
ENCODING 9289
SWIDTH 1000 0
DWIDTH 16 0
BBX 16 16 0 -2
BITMAP
0000
0008
0106
0108
0106
0100
0140
0180
0300
0400
0800
0800
0800
0460
03c0
0000
ENDCHAR
STARTCHAR 0x244a
ENCODING 9290
SWIDTH 1000 0
DWIDTH 16 0
BBX 16 16 0 -2
BITMAP
0000
0000
0400
0430
1f18
0408
0410
0420
0420
0410
0c10
18d0
1138
3094
2060
0000
ENDCHAR
STARTCHAR 0x244b
ENCODING 9291
SWIDTH 1000 0
DWIDTH 16 0
BBX 16 16 0 -2
BITMAP
0000
0000
0800
0808
08f0
0800
0800
1000
1000
1000
1000
1200
0c8c
0878
0000
0000
ENDCHAR
STARTCHAR 0x244c
ENCODING 9292
SWIDTH 1000 0
DWIDTH 16 0
BBX 16 16 0 -2
BITMAP
0000
0000
0400
0270
0188
1704
1504
0a04
0a04
1404
2a38
294c
1036
0000
0000
0000
ENDCHAR
STARTCHAR 0x244d
ENCODING 9293
SWIDTH 1000 0
DWIDTH 16 0
BBX 16 16 0 -2
BITMAP
0000
0800
0800
0860
3c90
0908
0904
2a04
2c04
1808
1838
284c
5836
0800
0000
0000
ENDCHAR
STARTCHAR 0x244e
ENCODING 9294
SWIDTH 1000 0
DWIDTH 16 0
BBX 16 16 0 -2
BITMAP
0000
0000
0380
0c60
1110
2108
2108
2104
2104
1208
1208
1410
0820
0040
0000
0000
ENDCHAR
STARTCHAR 0x244f
ENCODING 9295
SWIDTH 1000 0
DWIDTH 16 0
BBX 16 16 0 -2
BITMAP
0000
0020
0820
0924
08f8
0820
0820
0820
0810
1010
1010
10e0
1538
0944
0080
0000
ENDCHAR
STARTCHAR 0x2450
ENCODING 9296
SWIDTH 1000 0
DWIDTH 16 0
BBX 16 16 0 -2
BITMAP
0004
0023
0824
0923
08f8
0820
0820
0820
0810
1010
1010
10e0
1538
0944
0080
0000
ENDCHAR
STARTCHAR 0x2451
ENCODING 9297
SWIDTH 1000 0
DWIDTH 16 0
BBX 16 16 0 -2
BITMAP
0002
0025
0822
0924
08f8
0820
0820
0820
0810
1010
1010
10e0
1538
0944
0080
0000
ENDCHAR
STARTCHAR 0x2452
ENCODING 9298
SWIDTH 1000 0
DWIDTH 16 0
BBX 16 16 0 -2
BITMAP
0000
0000
0010
0618
1c18
0814
0814
0812
0810
1010
1008
1008
0810
0660
0180
0000
ENDCHAR
STARTCHAR 0x2453
ENCODING 9299
SWIDTH 1000 0
DWIDTH 16 0
BBX 16 16 0 -2
BITMAP
0004
0003
0014
061b
1c18
0814
0814
0812
0810
1010
1008
1008
0810
0660
0180
0000
ENDCHAR
STARTCHAR 0x2454
ENCODING 9300
SWIDTH 1000 0
DWIDTH 16 0
BBX 16 16 0 -2
BITMAP
0000
0002
0015
061a
1c18
0814
0814
0812
0810
1010
1008
1008
0810
0660
0180
0000
ENDCHAR
STARTCHAR 0x2455
ENCODING 9301
SWIDTH 1000 0
DWIDTH 16 0
BBX 16 16 0 -2
BITMAP
0000
0000
0000
0300
0180
0100
0200
0100
0080
01e0
0658
3a4e
1144
0080
0000
0000
ENDCHAR
STARTCHAR 0x2456
ENCODING 9302
SWIDTH 1000 0
DWIDTH 16 0
BBX 16 16 0 -2
BITMAP
0000
0010
000c
0310
018c
0100
0200
0100
0080
01e0
0658
3a4e
1144
0080
0000
0000
ENDCHAR
STARTCHAR 0x2457
ENCODING 9303
SWIDTH 1000 0
DWIDTH 16 0
BBX 16 16 0 -2
BITMAP
0000
0000
0008
0314
0188
0100
0200
0100
0080
01e0
0658
3a4e
1144
0080
0000
0000
ENDCHAR
STARTCHAR 0x2458
ENCODING 9304
SWIDTH 1000 0
DWIDTH 16 0
BBX 16 16 0 -2
BITMAP
0000
0000
0000
0000
0000
0000
0400
0a00
1180
00e0
0038
000e
0000
0000
0000
0000
ENDCHAR
STARTCHAR 0x2459
ENCODING 9305
SWIDTH 1000 0
DWIDTH 16 0
BBX 16 16 0 -2
BITMAP
0000
0010
000c
0010
000c
0000
0400
0a00
1180
00e0
0038
000e
0000
0000
0000
0000
ENDCHAR
STARTCHAR 0x245a
ENCODING 9306
SWIDTH 1000 0
DWIDTH 16 0
BBX 16 16 0 -2
BITMAP
0000
0000
0008
0014
0008
0000
0400
0a00
1180
00e0
0038
000e
0000
0000
0000
0000
ENDCHAR
STARTCHAR 0x245b
ENCODING 9307
SWIDTH 1000 0
DWIDTH 16 0
BBX 16 16 0 -2
BITMAP
0000
00f8
0820
0820
09fc
0820
0820
0820
0810
1010
1010
10e0
1538
0944
0080
0000
ENDCHAR
STARTCHAR 0x245c
ENCODING 9308
SWIDTH 1000 0
DWIDTH 16 0
BBX 16 16 0 -2
BITMAP
0004
00fb
0824
0823
09fc
0820
0820
0820
0810
1010
1010
10e0
1538
0944
0080
0000
ENDCHAR
STARTCHAR 0x245d
ENCODING 9309
SWIDTH 1000 0
DWIDTH 16 0
BBX 16 16 0 -2
BITMAP
0000
00fa
0825
0822
09fc
0820
0820
0820
0810
1010
1010
10e0
1538
0944
0080
0000
ENDCHAR
STARTCHAR 0x245e
ENCODING 9310
SWIDTH 1000 0
DWIDTH 16 0
BBX 16 16 0 -2
BITMAP
0000
0080
0080
0080
03e0
0080
0080
07f0
0080
0080
0080
0680
09c0
1360
0c00
0000
ENDCHAR
STARTCHAR 0x245f
ENCODING 9311
SWIDTH 1000 0
DWIDTH 16 0
BBX 16 16 0 -2
BITMAP
0000
0000
0000
0f00
0100
0210
0210
0410
1430
2e20
49a0
5060
50b0
2118
0000
0000
ENDCHAR
STARTCHAR 0x2460
ENCODING 9312
SWIDTH 1000 0
DWIDTH 16 0
BBX 16 16 0 -2
BITMAP
0000
0400
0400
1f00
040c
0412
0410
0c10
1608
1608
0c08
0408
0408
0610
0be0
0000
ENDCHAR
STARTCHAR 0x2461
ENCODING 9313
SWIDTH 1000 0
DWIDTH 16 0
BBX 16 16 0 -2
BITMAP
0000
0080
1080
13c0
1ca0
0890
0d88
1304
2104
2288
1248
1410
0820
0040
0000
0000
ENDCHAR
STARTCHAR 0x2462
ENCODING 9314
SWIDTH 1000 0
DWIDTH 16 0
BBX 16 16 0 -2
BITMAP
0000
0100
0100
0700
01c0
0180
0320
0510
0308
01c8
0108
0108
0110
00a0
0040
0000
ENDCHAR
STARTCHAR 0x2463
ENCODING 9315
SWIDTH 1000 0
DWIDTH 16 0
BBX 16 16 0 -2
BITMAP
0000
0000
0000
0340
0480
0210
0268
0b84
0604
0128
0110
0080
0060
0030
0020
0000
ENDCHAR
STARTCHAR 0x2464
ENCODING 9316
SWIDTH 1000 0
DWIDTH 16 0
BBX 16 16 0 -2
BITMAP
0000
0000
0000
0600
0908
0834
04c4
3702
0e02
0124
0118
0080
00c0
0078
0030
0000
ENDCHAR
STARTCHAR 0x2465
ENCODING 9317
SWIDTH 1000 0
DWIDTH 16 0
BBX 16 16 0 -2
BITMAP
0000
0000
0020
0070
08a8
0964
0924
0924
0924
0924
0aa8
0e70
0420
0040
0080
0000
ENDCHAR
STARTCHAR 0x2466
ENCODING 9318
SWIDTH 1000 0
DWIDTH 16 0
BBX 16 16 0 -2
BITMAP
0000
0020
1050
10ec
1124
1122
1122
1122
1122
1122
10a2
1262
140c
0830
00c0
0000
ENDCHAR
STARTCHAR 0x2467
ENCODING 9319
SWIDTH 1000 0
DWIDTH 16 0
BBX 16 16 0 -2
BITMAP
0000
0000
0080
0080
00e0
0080
0080
0040
0040
0040
03a0
0420
0258
0180
0000
0000
ENDCHAR
STARTCHAR 0x2468
ENCODING 9320
SWIDTH 1000 0
DWIDTH 16 0
BBX 16 16 0 -2
BITMAP
0000
0080
0080
00e0
0080
0080
0080
0040
0040
0040
0020
03a0
0470
0458
0380
0000
ENDCHAR
STARTCHAR 0x2469
ENCODING 9321
SWIDTH 1000 0
DWIDTH 16 0
BBX 16 16 0 -2
BITMAP
0000
0000
00c0
0060
0180
0200
0200
0200
0200
02f0
0398
0008
0018
0070
0180
0000
ENDCHAR
STARTCHAR 0x246a
ENCODING 9322
SWIDTH 1000 0
DWIDTH 16 0
BBX 16 16 0 -2
BITMAP
0000
0000
0400
0400
0400
0580
06c0
0640
0e20
0420
0020
0040
0040
0080
0100
0000
ENDCHAR
STARTCHAR 0x246b
ENCODING 9323
SWIDTH 1000 0
DWIDTH 16 0
BBX 16 16 0 -2
BITMAP
0000
0000
09c0
0640
0080
0080
0100
0170
0388
0604
0c04
18c4
0128
0090
0060
0000
ENDCHAR
STARTCHAR 0x246c
ENCODING 9324
SWIDTH 1000 0
DWIDTH 16 0
BBX 16 16 0 -2
BITMAP
0000
0800
0800
0860
3c90
0910
0910
2a20
2c20
1820
1820
2822
5814
0808
0000
0000
ENDCHAR
STARTCHAR 0x246d
ENCODING 9325
SWIDTH 1000 0
DWIDTH 16 0
BBX 16 16 0 -2
BITMAP
0000
0000
09c0
0640
0080
0080
0100
0170
0388
060c
0c04
180c
0008
0010
0020
0000
ENDCHAR
STARTCHAR 0x246e
ENCODING 9326
SWIDTH 1000 0
DWIDTH 16 0
BBX 16 16 0 -2
BITMAP
0000
0000
0800
0400
0400
0e00
04c0
0530
0608
0c08
1410
0c20
0400
0000
0000
0000
ENDCHAR
STARTCHAR 0x246f
ENCODING 9327
SWIDTH 1000 0
DWIDTH 16 0
BBX 16 16 0 -2
BITMAP
0000
0000
0800
0400
0400
1f00
0430
04c8
0504
0604
0c08
1410
0c20
0400
0000
0000
ENDCHAR
STARTCHAR 0x2470
ENCODING 9328
SWIDTH 1000 0
DWIDTH 16 0
BBX 16 16 0 -2
BITMAP
0000
0000
0000
3e00
2400
0460
0590
0608
0c0c
1804
280c
4868
2888
1050
0020
0000
ENDCHAR
STARTCHAR 0x2471
ENCODING 9329
SWIDTH 1000 0
DWIDTH 16 0
BBX 16 16 0 -2
BITMAP
0000
0000
03c0
0080
0160
0390
0410
00a0
0140
0080
0300
0410
0a28
154c
0090
0000
ENDCHAR
STARTCHAR 0x2472
ENCODING 9330
SWIDTH 1000 0
DWIDTH 16 0
BBX 16 16 0 -2
BITMAP
0000
0100
0100
07c0
0100
0218
0424
0f48
19b0
00c0
0380
0480
0880
0410
03e0
0000
ENDCHAR
STARTCHAR 0x2473
ENCODING 9331
SWIDTH 1000 0
DWIDTH 16 0
BBX 16 16 0 -2
BITMAP
0000
0000
0100
0100
0200
0200
04c0
0520
0620
0420
0820
0820
1014
1008
0000
0000
ENDCHAR
STARTCHAR 0x2474
ENCODING 9332
SWIDTH 1000 0
DWIDTH 16 0
BBX 16 16 0 -2
BITMAP
0000
0000
0000
0000
0000
0000
0000
0000
0000
0000
0000
0000
0000
0000
0000
0000
ENDCHAR
STARTCHAR 0x2475
ENCODING 9333
SWIDTH 1000 0
DWIDTH 16 0
BBX 16 16 0 -2
BITMAP
0000
0000
0000
0000
0000
0000
0000
0000
0000
0000
0000
0000
0000
0000
0000
0000
ENDCHAR
STARTCHAR 0x2476
ENCODING 9334
SWIDTH 1000 0
DWIDTH 16 0
BBX 16 16 0 -2
BITMAP
0000
0000
0000
0000
0000
0000
0000
0000
0000
0000
0000
0000
0000
0000
0000
0000
ENDCHAR
STARTCHAR 0x2477
ENCODING 9335
SWIDTH 1000 0
DWIDTH 16 0
BBX 16 16 0 -2
BITMAP
0000
0000
0000
0000
0000
0000
0000
0000
0000
0000
0000
0000
0000
0000
0000
0000
ENDCHAR
STARTCHAR 0x2478
ENCODING 9336
SWIDTH 1000 0
DWIDTH 16 0
BBX 16 16 0 -2
BITMAP
0000
0000
0000
0000
0000
0000
0000
0000
0000
0000
0000
0000
0000
0000
0000
0000
ENDCHAR
STARTCHAR 0x2479
ENCODING 9337
SWIDTH 1000 0
DWIDTH 16 0
BBX 16 16 0 -2
BITMAP
0000
0000
0000
0000
0000
0000
0000
0000
0000
0000
0000
0000
0000
0000
0000
0000
ENDCHAR
STARTCHAR 0x247a
ENCODING 9338
SWIDTH 1000 0
DWIDTH 16 0
BBX 16 16 0 -2
BITMAP
0000
0000
0000
0000
0000
0000
0000
0000
0000
0000
0000
0000
0000
0000
0000
0000
ENDCHAR
STARTCHAR 0x247b
ENCODING 9339
SWIDTH 1000 0
DWIDTH 16 0
BBX 16 16 0 -2
BITMAP
0000
0000
0000
0000
0000
0000
0000
0000
0000
0000
0000
0000
0000
0000
0000
0000
ENDCHAR
STARTCHAR 0x247c
ENCODING 9340
SWIDTH 1000 0
DWIDTH 16 0
BBX 16 16 0 -2
BITMAP
0000
0000
0000
0000
0000
0000
0000
0000
0000
0000
0000
0000
0000
0000
0000
0000
ENDCHAR
STARTCHAR 0x247d
ENCODING 9341
SWIDTH 1000 0
DWIDTH 16 0
BBX 16 16 0 -2
BITMAP
0000
0000
0000
0000
0000
0000
0000
0000
0000
0000
0000
0000
0000
0000
0000
0000
ENDCHAR
STARTCHAR 0x247e
ENCODING 9342
SWIDTH 1000 0
DWIDTH 16 0
BBX 16 16 0 -2
BITMAP
0000
0000
0000
0000
0000
0000
0000
0000
0000
0000
0000
0000
0000
0000
0000
0000
ENDCHAR
STARTCHAR 0x2521
ENCODING 9505
SWIDTH 1000 0
DWIDTH 16 0
BBX 16 16 0 -2
BITMAP
0000
0000
0000
0ff8
0018
0160
0180
0100
0100
0200
0200
0400
0800
0000
0000
0000
ENDCHAR
STARTCHAR 0x2522
ENCODING 9506
SWIDTH 1000 0
DWIDTH 16 0
BBX 16 16 0 -2
BITMAP
0000
1ffe
0004
0098
00e0
0080
0080
0080
0180
0100
0200
0200
0400
0800
1000
0000
ENDCHAR
STARTCHAR 0x2523
ENCODING 9507
SWIDTH 1000 0
DWIDTH 16 0
BBX 16 16 0 -2
BITMAP
0000
0000
0000
0060
0180
0700
0900
0100
0100
0100
0100
0100
0100
0000
0000
0000
ENDCHAR
STARTCHAR 0x2524
ENCODING 9508
SWIDTH 1000 0
DWIDTH 16 0
BBX 16 16 0 -2
BITMAP
0000
003c
01e0
0f80
3080
0080
0080
0080
0080
0080
0080
0080
0080
0080
0080
0000
ENDCHAR
STARTCHAR 0x2525
ENCODING 9509
SWIDTH 1000 0
DWIDTH 16 0
BBX 16 16 0 -2
BITMAP
0000
0000
0080
0080
0ff8
0808
0808
0010
0010
0020
0040
0080
0100
0000
0000
0000
ENDCHAR
STARTCHAR 0x2526
ENCODING 9510
SWIDTH 1000 0
DWIDTH 16 0
BBX 16 16 0 -2
BITMAP
0000
0040
0040
0ffe
0802
0804
0004
0008
0008
0010
0010
0020
0040
0080
0100
0000
ENDCHAR
STARTCHAR 0x2527
ENCODING 9511
SWIDTH 1000 0
DWIDTH 16 0
BBX 16 16 0 -2
BITMAP
0000
0000
0000
0000
07f0
0080
0080
0080
0080
0080
1ffc
0000
0000
0000
0000
0000
ENDCHAR
STARTCHAR 0x2528
ENCODING 9512
SWIDTH 1000 0
DWIDTH 16 0
BBX 16 16 0 -2
BITMAP
0000
0000
0000
0ff8
0080
0080
0080
0080
0080
0080
0080
3ffe
0000
0000
0000
0000
ENDCHAR
STARTCHAR 0x2529
ENCODING 9513
SWIDTH 1000 0
DWIDTH 16 0
BBX 16 16 0 -2
BITMAP
0000
0000
0000
0020
0020
0ff8
0060
00a0
0120
0220
04a0
0860
0020
0000
0000
0000
ENDCHAR
STARTCHAR 0x252a
ENCODING 9514
SWIDTH 1000 0
DWIDTH 16 0
BBX 16 16 0 -2
BITMAP
0000
0010
0010
0010
1ffe
0030
0050
0090
0110
0210
0410
0810
1050
0030
0010
0000
ENDCHAR
STARTCHAR 0x252b
ENCODING 9515
SWIDTH 1000 0
DWIDTH 16 0
BBX 16 16 0 -2
BITMAP
0000
0100
0100
0100
3ff8
0108
0108
0108
0208
0208
0410
0410
0810
10a0
2040
0000
ENDCHAR
STARTCHAR 0x252c
ENCODING 9516
SWIDTH 1000 0
DWIDTH 16 0
BBX 16 16 0 -2
BITMAP
0008
0106
0108
0106
3ff8
0108
0108
0108
0208
0208
0410
0410
0810
10a0
2040
0000
ENDCHAR
STARTCHAR 0x252d
ENCODING 9517
SWIDTH 1000 0
DWIDTH 16 0
BBX 16 16 0 -2
BITMAP
0000
0200
0200
0100
01f8
0f80
0080
0080
00f8
0fc0
0040
0040
0020
0020
0000
0000
ENDCHAR
STARTCHAR 0x252e
ENCODING 9518
SWIDTH 1000 0
DWIDTH 16 0
BBX 16 16 0 -2
BITMAP
0008
0206
0208
0106
01f8
0f80
0080
0080
00f8
0fc0
0040
0040
0020
0020
0000
0000
ENDCHAR
STARTCHAR 0x252f
ENCODING 9519
SWIDTH 1000 0
DWIDTH 16 0
BBX 16 16 0 -2
BITMAP
0000
0200
0200
0400
07f0
0410
0820
1020
0040
0080
0100
0200
0400
0800
1000
0000
ENDCHAR
STARTCHAR 0x2530
ENCODING 9520
SWIDTH 1000 0
DWIDTH 16 0
BBX 16 16 0 -2
BITMAP
0008
0206
0208
0406
07f0
0410
0820
1020
0040
0080
0100
0200
0400
0800
1000
0000
ENDCHAR
STARTCHAR 0x2531
ENCODING 9521
SWIDTH 1000 0
DWIDTH 16 0
BBX 16 16 0 -2
BITMAP
0000
0100
0200
0400
0bf8
1040
0040
0080
0080
0100
0200
0400
0800
1000
0000
0000
ENDCHAR
STARTCHAR 0x2532
ENCODING 9522
SWIDTH 1000 0
DWIDTH 16 0
BBX 16 16 0 -2
BITMAP
0008
0106
0200
0406
0bf8
1040
0040
0080
0080
0100
0200
0400
0800
1000
0000
0000
ENDCHAR
STARTCHAR 0x2533
ENCODING 9523
SWIDTH 1000 0
DWIDTH 16 0
BBX 16 16 0 -2
BITMAP
0000
0000
0000
0000
1ff8
0008
0008
0008
0008
0008
0008
3ffc
0000
0000
0000
0000
ENDCHAR
STARTCHAR 0x2534
ENCODING 9524
SWIDTH 1000 0
DWIDTH 16 0
BBX 16 16 0 -2
BITMAP
0008
0006
0008
0006
1ff8
0008
0008
0008
0008
0008
0008
3ffc
0000
0000
0000
0000
ENDCHAR
STARTCHAR 0x2535
ENCODING 9525
SWIDTH 1000 0
DWIDTH 16 0
BBX 16 16 0 -2
BITMAP
0000
0020
0220
0220
0220
3ffe
0220
0220
0220
0220
0020
0020
0020
0040
0080
0000
ENDCHAR
STARTCHAR 0x2536
ENCODING 9526
SWIDTH 1000 0
DWIDTH 16 0
BBX 16 16 0 -2
BITMAP
0008
0026
0228
0226
0220
3ffe
0220
0220
0220
0220
0020
0020
0020
0040
0080
0000
ENDCHAR
STARTCHAR 0x2537
ENCODING 9527
SWIDTH 1000 0
DWIDTH 16 0
BBX 16 16 0 -2
BITMAP
0000
0000
0c00
0600
0000
0004
0c08
0610
0020
0040
0080
0100
0200
0c00
1800
0000
ENDCHAR
STARTCHAR 0x2538
ENCODING 9528
SWIDTH 1000 0
DWIDTH 16 0
BBX 16 16 0 -2
BITMAP
0008
0006
0c08
0606
0000
0004
0c08
0610
0020
0040
0080
0100
0200
0c00
1800
0000
ENDCHAR
STARTCHAR 0x2539
ENCODING 9529
SWIDTH 1000 0
DWIDTH 16 0
BBX 16 16 0 -2
BITMAP
0000
0000
0000
0ff8
0010
0020
0040
0080
0140
0220
0410
0808
1004
0000
0000
0000
ENDCHAR
STARTCHAR 0x253a
ENCODING 9530
SWIDTH 1000 0
DWIDTH 16 0
BBX 16 16 0 -2
BITMAP
0008
0006
0008
0ff6
0010
0020
0040
0080
0140
0220
0410
0808
1004
0000
0000
0000
ENDCHAR
STARTCHAR 0x253b
ENCODING 9531
SWIDTH 1000 0
DWIDTH 16 0
BBX 16 16 0 -2
BITMAP
0000
0000
0200
0200
02fc
3f04
0208
0210
0200
0200
0200
0200
03f0
0000
0000
0000
ENDCHAR
STARTCHAR 0x253c
ENCODING 9532
SWIDTH 1000 0
DWIDTH 16 0
BBX 16 16 0 -2
BITMAP
0008
0006
0208
0206
02fc
3f04
0208
0210
0200
0200
0200
0200
03f0
0000
0000
0000
ENDCHAR
STARTCHAR 0x253d
ENCODING 9533
SWIDTH 1000 0
DWIDTH 16 0
BBX 16 16 0 -2
BITMAP
0000
0000
0010
0010
0810
0c10
0420
0020
0020
0040
0080
0100
0200
0400
0800
0000
ENDCHAR
STARTCHAR 0x253e
ENCODING 9534
SWIDTH 1000 0
DWIDTH 16 0
BBX 16 16 0 -2
BITMAP
0008
0006
0008
0016
0810
0c10
0420
0020
0020
0040
0080
0100
0200
0400
0800
0000
ENDCHAR
STARTCHAR 0x253f
ENCODING 9535
SWIDTH 1000 0
DWIDTH 16 0
BBX 16 16 0 -2
BITMAP
0000
0200
0200
0400
07f0
0410
0820
1220
0140
0080
0140
0220
0400
0800
1000
0000
ENDCHAR
STARTCHAR 0x2540
ENCODING 9536
SWIDTH 1000 0
DWIDTH 16 0
BBX 16 16 0 -2
BITMAP
0008
0206
0208
0406
07f0
0410
0820
1220
0140
0080
0140
0220
0400
0800
1000
0000
ENDCHAR
STARTCHAR 0x2541
ENCODING 9537
SWIDTH 1000 0
DWIDTH 16 0
BBX 16 16 0 -2
BITMAP
0000
0000
00f0
0f00
0080
0080
0080
3ffc
0080
0100
0100
0200
0400
0800
1000
0000
ENDCHAR
STARTCHAR 0x2542
ENCODING 9538
SWIDTH 1000 0
DWIDTH 16 0
BBX 16 16 0 -2
BITMAP
0008
0006
00e8
0f06
0080
0080
0080
3ffc
0080
0100
0100
0200
0400
0800
1000
0000
ENDCHAR
STARTCHAR 0x2543
ENCODING 9539
SWIDTH 1000 0
DWIDTH 16 0
BBX 16 16 0 -2
BITMAP
0000
0000
0000
0000
0020
0520
0520
0040
0040
0080
0100
0200
0400
0000
0000
0000
ENDCHAR
STARTCHAR 0x2544
ENCODING 9540
SWIDTH 1000 0
DWIDTH 16 0
BBX 16 16 0 -2
BITMAP
0000
0000
0000
1108
1988
0890
0020
0040
0080
0100
0200
0400
0800
1000
0000
0000
ENDCHAR
STARTCHAR 0x2545
ENCODING 9541
SWIDTH 1000 0
DWIDTH 16 0
BBX 16 16 0 -2
BITMAP
0008
0006
0008
110e
1988
0890
0020
0040
0080
0100
0200
0400
0800
1000
0000
0000
ENDCHAR
STARTCHAR 0x2546
ENCODING 9542
SWIDTH 1000 0
DWIDTH 16 0
BBX 16 16 0 -2
BITMAP
0000
0000
0ff0
0000
0000
0000
3ffc
0080
0080
0100
0100
0200
0400
0800
1000
0000
ENDCHAR
STARTCHAR 0x2547
ENCODING 9543
SWIDTH 1000 0
DWIDTH 16 0
BBX 16 16 0 -2
BITMAP
0008
0006
0fe8
0006
0000
0000
3ffc
0080
0080
0100
0100
0200
0400
0800
1000
0000
ENDCHAR
STARTCHAR 0x2548
ENCODING 9544
SWIDTH 1000 0
DWIDTH 16 0
BBX 16 16 0 -2
BITMAP
0000
0200
0200
0200
0200
0300
0280
0240
0220
0200
0200
0200
0200
0200
0200
0000
ENDCHAR
STARTCHAR 0x2549
ENCODING 9545
SWIDTH 1000 0
DWIDTH 16 0
BBX 16 16 0 -2
BITMAP
0008
0206
0208
0206
0200
0300
0280
0240
0220
0200
0200
0200
0200
0200
0200
0000
ENDCHAR
STARTCHAR 0x254a
ENCODING 9546
SWIDTH 1000 0
DWIDTH 16 0
BBX 16 16 0 -2
BITMAP
0000
0000
0080
0080
0080
0080
3ffe
0080
0080
0100
0100
0200
0400
0800
1000
0000
ENDCHAR
STARTCHAR 0x254b
ENCODING 9547
SWIDTH 1000 0
DWIDTH 16 0
BBX 16 16 0 -2
BITMAP
0000
0000
0000
0ff8
0000
0000
0000
0000
0000
0000
3ffe
0000
0000
0000
0000
0000
ENDCHAR
STARTCHAR 0x254c
ENCODING 9548
SWIDTH 1000 0
DWIDTH 16 0
BBX 16 16 0 -2
BITMAP
0000
0000
0000
0ff8
0010
0010
0420
0220
0140
0080
0140
0220
0400
0800
1000
0000
ENDCHAR
STARTCHAR 0x254d
ENCODING 9549
SWIDTH 1000 0
DWIDTH 16 0
BBX 16 16 0 -2
BITMAP
0000
0200
0100
0080
0fc0
0080
0100
02a0
0490
0888
1080
2080
0080
0080
0080
0000
ENDCHAR
STARTCHAR 0x254e
ENCODING 9550
SWIDTH 1000 0
DWIDTH 16 0
BBX 16 16 0 -2
BITMAP
0000
0000
0010
0030
0060
0040
0080
0100
0200
0400
0800
1000
0000
0000
0000
0000
ENDCHAR
STARTCHAR 0x254f
ENCODING 9551
SWIDTH 1000 0
DWIDTH 16 0
BBX 16 16 0 -2
BITMAP
0000
0000
0000
0100
0300
0220
0410
0408
0808
1004
2000
0000
0000
0000
0000
0000
ENDCHAR
STARTCHAR 0x2550
ENCODING 9552
SWIDTH 1000 0
DWIDTH 16 0
BBX 16 16 0 -2
BITMAP
0008
0006
0008
0106
0300
0220
0410
0408
0808
1004
2000
0000
0000
0000
0000
0000
ENDCHAR
STARTCHAR 0x2551
ENCODING 9553
SWIDTH 1000 0
DWIDTH 16 0
BBX 16 16 0 -2
BITMAP
0000
0004
000a
0104
0300
0220
0410
0408
0808
1004
2000
0000
0000
0000
0000
0000
ENDCHAR
STARTCHAR 0x2552
ENCODING 9554
SWIDTH 1000 0
DWIDTH 16 0
BBX 16 16 0 -2
BITMAP
0000
0000
0200
0200
0230
02c0
0300
0200
0200
0200
0200
0200
01f0
0000
0000
0000
ENDCHAR
STARTCHAR 0x2553
ENCODING 9555
SWIDTH 1000 0
DWIDTH 16 0
BBX 16 16 0 -2
BITMAP
0008
0006
0208
0206
0230
02c0
0300
0200
0200
0200
0200
0200
01f0
0000
0000
0000
ENDCHAR
STARTCHAR 0x2554
ENCODING 9556
SWIDTH 1000 0
DWIDTH 16 0
BBX 16 16 0 -2
BITMAP
0000
0004
020a
0204
0230
02c0
0300
0200
0200
0200
0200
0200
01f0
0000
0000
0000
ENDCHAR
STARTCHAR 0x2555
ENCODING 9557
SWIDTH 1000 0
DWIDTH 16 0
BBX 16 16 0 -2
BITMAP
0000
0000
0000
1ff8
0008
0010
0020
0040
0080
0100
0200
0400
0800
1000
0000
0000
ENDCHAR
STARTCHAR 0x2556
ENCODING 9558
SWIDTH 1000 0
DWIDTH 16 0
BBX 16 16 0 -2
BITMAP
0008
0006
0008
1ff6
0008
0010
0020
0040
0080
0100
0200
0400
0800
1000
0000
0000
ENDCHAR
STARTCHAR 0x2557
ENCODING 9559
SWIDTH 1000 0
DWIDTH 16 0
BBX 16 16 0 -2
BITMAP
0000
0002
0004
1ffa
0008
0010
0020
0040
0080
0100
0200
0400
0800
1000
0000
0000
ENDCHAR
STARTCHAR 0x2558
ENCODING 9560
SWIDTH 1000 0
DWIDTH 16 0
BBX 16 16 0 -2
BITMAP
0000
0000
0000
0000
0000
0200
0500
0880
1040
0020
0010
0008
0004
0000
0000
0000
ENDCHAR
STARTCHAR 0x2559
ENCODING 9561
SWIDTH 1000 0
DWIDTH 16 0
BBX 16 16 0 -2
BITMAP
0008
0006
0008
0006
0000
0200
0500
0880
1040
0020
0010
0008
0004
0000
0000
0000
ENDCHAR
STARTCHAR 0x255a
ENCODING 9562
SWIDTH 1000 0
DWIDTH 16 0
BBX 16 16 0 -2
BITMAP
0000
0004
0008
0004
0000
0200
0500
0880
1040
0020
0010
0008
0004
0000
0000
0000
ENDCHAR
STARTCHAR 0x255b
ENCODING 9563
SWIDTH 1000 0
DWIDTH 16 0
BBX 16 16 0 -2
BITMAP
0000
0000
0080
0080
3ffe
01c0
02a0
0490
0888
1084
2082
0280
0180
0080
0000
0000
ENDCHAR
STARTCHAR 0x255c
ENCODING 9564
SWIDTH 1000 0
DWIDTH 16 0
BBX 16 16 0 -2
BITMAP
0008
0006
0088
0086
0080
3ffe
02a0
0490
0888
1084
2082
0280
0180
0080
0000
0000
ENDCHAR
STARTCHAR 0x255d
ENCODING 9565
SWIDTH 1000 0
DWIDTH 16 0
BBX 16 16 0 -2
BITMAP
0000
0002
0085
0082
0080
3ffe
02a0
0490
0888
1084
2082
0280
0180
0080
0000
0000
ENDCHAR
STARTCHAR 0x255e
ENCODING 9566
SWIDTH 1000 0
DWIDTH 16 0
BBX 16 16 0 -2
BITMAP
0000
0000
0000
0000
1ffc
0008
0010
0020
0040
0280
0100
0080
0040
0000
0000
0000
ENDCHAR
STARTCHAR 0x255f
ENCODING 9567
SWIDTH 1000 0
DWIDTH 16 0
BBX 16 16 0 -2
BITMAP
0000
0000
0e00
01e0
0000
0000
0e00
01e0
0000
1000
0e00
01e0
0018
0000
0000
0000
ENDCHAR
STARTCHAR 0x2560
ENCODING 9568
SWIDTH 1000 0
DWIDTH 16 0
BBX 16 16 0 -2
BITMAP
0000
0000
0040
00c0
0080
0100
0100
0200
0200
0410
0808
1ff4
0002
0000
0000
0000
ENDCHAR
STARTCHAR 0x2561
ENCODING 9569
SWIDTH 1000 0
DWIDTH 16 0
BBX 16 16 0 -2
BITMAP
0000
0000
0008
0018
0010
0420
0220
01c0
0080
0140
0220
0400
0800
1000
0000
0000
ENDCHAR
STARTCHAR 0x2562
ENCODING 9570
SWIDTH 1000 0
DWIDTH 16 0
BBX 16 16 0 -2
BITMAP
0000
0000
0000
07f0
0080
0080
0080
0080
3ffc
0080
0080
0080
00f8
0000
0000
0000
ENDCHAR
STARTCHAR 0x2563
ENCODING 9571
SWIDTH 1000 0
DWIDTH 16 0
BBX 16 16 0 -2
BITMAP
0000
0000
0000
0200
0200
0ff8
0108
0110
0080
0080
0040
0040
0040
0000
0000
0000
ENDCHAR
STARTCHAR 0x2564
ENCODING 9572
SWIDTH 1000 0
DWIDTH 16 0
BBX 16 16 0 -2
BITMAP
0000
0000
0400
0400
1ffc
0208
0210
0200
0100
0100
0100
0080
0080
0080
0000
0000
ENDCHAR
STARTCHAR 0x2565
ENCODING 9573
SWIDTH 1000 0
DWIDTH 16 0
BBX 16 16 0 -2
BITMAP
0000
0000
0000
0000
07e0
0020
0020
0020
0020
1ff8
0000
0000
0000
0000
0000
0000
ENDCHAR
STARTCHAR 0x2566
ENCODING 9574
SWIDTH 1000 0
DWIDTH 16 0
BBX 16 16 0 -2
BITMAP
0000
0000
0000
0000
1ff0
0010
0010
0010
0020
0000
3ffe
0000
0000
0000
0000
0000
ENDCHAR
STARTCHAR 0x2567
ENCODING 9575
SWIDTH 1000 0
DWIDTH 16 0
BBX 16 16 0 -2
BITMAP
0000
0000
0000
07f0
0010
0010
0010
07f0
0010
0010
0010
07f0
0000
0000
0000
0000
ENDCHAR
STARTCHAR 0x2568
ENCODING 9576
SWIDTH 1000 0
DWIDTH 16 0
BBX 16 16 0 -2
BITMAP
0000
0000
1ffc
0004
0004
0004
0004
1ffc
0004
0004
0004
0004
0004
1ffc
0000
0000
ENDCHAR
STARTCHAR 0x2569
ENCODING 9577
SWIDTH 1000 0
DWIDTH 16 0
BBX 16 16 0 -2
BITMAP
0000
0000
07f0
0000
0000
1ffc
0008
0010
0020
0040
0080
0100
0200
0400
0800
0000
ENDCHAR
STARTCHAR 0x256a
ENCODING 9578
SWIDTH 1000 0
DWIDTH 16 0
BBX 16 16 0 -2
BITMAP
0000
0040
0040
0440
0440
0440
0440
0440
0440
0440
0040
0080
0100
0200
0400
0000
ENDCHAR
STARTCHAR 0x256b
ENCODING 9579
SWIDTH 1000 0
DWIDTH 16 0
BBX 16 16 0 -2
BITMAP
0000
0040
0440
0440
0440
0440
0440
0440
0440
0440
0844
0848
1050
1060
2040
0000
ENDCHAR
STARTCHAR 0x256c
ENCODING 9580
SWIDTH 1000 0
DWIDTH 16 0
BBX 16 16 0 -2
BITMAP
0000
0000
0400
0400
0400
0404
0408
0410
0420
0440
0480
0500
0600
0c00
0000
0000
ENDCHAR
STARTCHAR 0x256d
ENCODING 9581
SWIDTH 1000 0
DWIDTH 16 0
BBX 16 16 0 -2
BITMAP
0000
0000
0000
0ffc
0804
0804
0804
0804
0804
0804
0804
0804
0ffc
0000
0000
0000
ENDCHAR
STARTCHAR 0x256e
ENCODING 9582
SWIDTH 1000 0
DWIDTH 16 0
BBX 16 16 0 -2
BITMAP
0000
0000
0000
0000
0ff8
0808
0808
0010
0010
0020
0040
0080
0100
0000
0000
0000
ENDCHAR
STARTCHAR 0x256f
ENCODING 9583
SWIDTH 1000 0
DWIDTH 16 0
BBX 16 16 0 -2
BITMAP
0000
0000
0000
0ffe
0802
0804
0004
0008
0008
0010
0010
0020
0040
0080
0100
0000
ENDCHAR
STARTCHAR 0x2570
ENCODING 9584
SWIDTH 1000 0
DWIDTH 16 0
BBX 16 16 0 -2
BITMAP
0000
0080
0080
0080
0ff0
0880
0880
0880
0880
3ffe
0080
0080
0080
0080
0000
0000
ENDCHAR
STARTCHAR 0x2571
ENCODING 9585
SWIDTH 1000 0
DWIDTH 16 0
BBX 16 16 0 -2
BITMAP
0000
0000
0000
0ff8
0010
0020
00c0
0080
0080
0080
0080
3ffe
0000
0000
0000
0000
ENDCHAR
STARTCHAR 0x2572
ENCODING 9586
SWIDTH 1000 0
DWIDTH 16 0
BBX 16 16 0 -2
BITMAP
0000
0000
1ff8
0008
1ff8
0010
0020
0040
0080
0100
0200
0400
0800
1000
0000
0000
ENDCHAR
STARTCHAR 0x2573
ENCODING 9587
SWIDTH 1000 0
DWIDTH 16 0
BBX 16 16 0 -2
BITMAP
0000
0000
0000
0c00
0600
0004
0008
0010
0020
0040
0080
0100
0200
0c00
1800
0000
ENDCHAR
STARTCHAR 0x2574
ENCODING 9588
SWIDTH 1000 0
DWIDTH 16 0
BBX 16 16 0 -2
BITMAP
0004
0003
0044
0043
0ffe
0804
0004
0008
0008
0010
0010
0020
0040
0080
0100
0000
ENDCHAR
STARTCHAR 0x2575
ENCODING 9589
SWIDTH 1000 0
DWIDTH 16 0
BBX 16 16 0 -2
BITMAP
0000
0000
0080
0080
07f8
0088
0088
0088
0108
0108
0228
0410
0000
0000
0000
0000
ENDCHAR
STARTCHAR 0x2576
ENCODING 9590
SWIDTH 1000 0
DWIDTH 16 0
BBX 16 16 0 -2
BITMAP
0000
0000
0000
0100
0200
03f0
0440
0840
0080
0080
0100
0200
0400
0000
0000
0000
ENDCHAR
STARTCHAR 0x2577
ENCODING 9591
SWIDTH 1000 0
DWIDTH 16 0
BBX 16 16 0 -2
BITMAP
0000
0000
0000
0000
0000
0000
0000
0000
0000
0000
0000
0000
0000
0000
0000
0000
ENDCHAR
STARTCHAR 0x2578
ENCODING 9592
SWIDTH 1000 0
DWIDTH 16 0
BBX 16 16 0 -2
BITMAP
0000
0000
0000
0000
0000
0000
0000
0000
0000
0000
0000
0000
0000
0000
0000
0000
ENDCHAR
STARTCHAR 0x2579
ENCODING 9593
SWIDTH 1000 0
DWIDTH 16 0
BBX 16 16 0 -2
BITMAP
0000
0000
0000
0000
0000
0000
0000
0000
0000
0000
0000
0000
0000
0000
0000
0000
ENDCHAR
STARTCHAR 0x257a
ENCODING 9594
SWIDTH 1000 0
DWIDTH 16 0
BBX 16 16 0 -2
BITMAP
0000
0000
0000
0000
0000
0000
0000
0000
0000
0000
0000
0000
0000
0000
0000
0000
ENDCHAR
STARTCHAR 0x257b
ENCODING 9595
SWIDTH 1000 0
DWIDTH 16 0
BBX 16 16 0 -2
BITMAP
0000
0000
0000
0000
0000
0000
0000
0000
0000
0000
0000
0000
0000
0000
0000
0000
ENDCHAR
STARTCHAR 0x257c
ENCODING 9596
SWIDTH 1000 0
DWIDTH 16 0
BBX 16 16 0 -2
BITMAP
0000
0000
0000
0000
0000
0000
0000
0000
0000
0000
0000
0000
0000
0000
0000
0000
ENDCHAR
STARTCHAR 0x257d
ENCODING 9597
SWIDTH 1000 0
DWIDTH 16 0
BBX 16 16 0 -2
BITMAP
0000
0000
0000
0000
0000
0000
0000
0000
0000
0000
0000
0000
0000
0000
0000
0000
ENDCHAR
STARTCHAR 0x257e
ENCODING 9598
SWIDTH 1000 0
DWIDTH 16 0
BBX 16 16 0 -2
BITMAP
0000
0000
0000
0000
0000
0000
0000
0000
0000
0000
0000
0000
0000
0000
0000
0000
ENDCHAR
STARTCHAR 0x2621
ENCODING 9761
SWIDTH 1000 0
DWIDTH 16 0
BBX 16 16 0 -2
BITMAP
0180
01c0
03c0
0260
0660
0430
0c30
0ff8
1818
100c
300c
781e
0000
0000
0000
0000
ENDCHAR
STARTCHAR 0x2622
ENCODING 9762
SWIDTH 1000 0
DWIDTH 16 0
BBX 16 16 0 -2
BITMAP
0000
7ff0
3838
3018
3018
3038
3fc0
3038
3018
3018
3838
7ff0
0000
0000
0000
0000
ENDCHAR
STARTCHAR 0x2623
ENCODING 9763
SWIDTH 1000 0
DWIDTH 16 0
BBX 16 16 0 -2
BITMAP
0000
7ff8
3818
3008
3000
3000
3000
3000
3000
3000
3000
7800
0000
0000
0000
0000
ENDCHAR
STARTCHAR 0x2624
ENCODING 9764
SWIDTH 1000 0
DWIDTH 16 0
BBX 16 16 0 -2
BITMAP
0000
0180
03c0
0660
0660
0c30
0c30
1818
1818
300c
300c
7ffe
0000
0000
0000
0000
ENDCHAR
STARTCHAR 0x2625
ENCODING 9765
SWIDTH 1000 0
DWIDTH 16 0
BBX 16 16 0 -2
BITMAP
0000
7ff8
3818
3008
3000
3040
3fc0
3040
3000
3008
3818
7ff8
0000
0000
0000
0000
ENDCHAR
STARTCHAR 0x2626
ENCODING 9766
SWIDTH 1000 0
DWIDTH 16 0
BBX 16 16 0 -2
BITMAP
0000
3ffc
3018
2030
0060
00c0
0180
0300
0600
0c04
180c
3ffc
0000
0000
0000
0000
ENDCHAR
STARTCHAR 0x2627
ENCODING 9767
SWIDTH 1000 0
DWIDTH 16 0
BBX 16 16 0 -2
BITMAP
0000
781e
300c
300c
300c
300c
3ffc
300c
300c
300c
300c
781e
0000
0000
0000
0000
ENDCHAR
STARTCHAR 0x2628
ENCODING 9768
SWIDTH 1000 0
DWIDTH 16 0
BBX 16 16 0 -2
BITMAP
0000
0fe0
1830
3018
600c
682c
6fec
682c
600c
3018
1830
0fe0
0000
0000
0000
0000
ENDCHAR
STARTCHAR 0x2629
ENCODING 9769
SWIDTH 1000 0
DWIDTH 16 0
BBX 16 16 0 -2
BITMAP
0000
03c0
0180
0180
0180
0180
0180
0180
0180
0180
0180
03c0
0000
0000
0000
0000
ENDCHAR
STARTCHAR 0x262a
ENCODING 9770
SWIDTH 1000 0
DWIDTH 16 0
BBX 16 16 0 -2
BITMAP
0000
79e0
3180
3300
3600
3c00
3c00
3600
3300
3180
30c0
78f0
0000
0000
0000
0000
ENDCHAR
STARTCHAR 0x262b
ENCODING 9771
SWIDTH 1000 0
DWIDTH 16 0
BBX 16 16 0 -2
BITMAP
0000
0100
0380
06c0
06c0
0c60
0c60
1830
1830
3018
3018
783c
0000
0000
0000
0000
ENDCHAR
STARTCHAR 0x262c
ENCODING 9772
SWIDTH 1000 0
DWIDTH 16 0
BBX 16 16 0 -2
BITMAP
0000
f01e
701c
783c
682c
6c6c
644c
66cc
628c
638c
610c
f01e
0000
0000
0000
0000
ENDCHAR
STARTCHAR 0x262d
ENCODING 9773
SWIDTH 1000 0
DWIDTH 16 0
BBX 16 16 0 -2
BITMAP
0000
701e
380c
3c0c
360c
330c
318c
30cc
306c
303c
301c
780e
0000
0000
0000
0000
ENDCHAR
STARTCHAR 0x262e
ENCODING 9774
SWIDTH 1000 0
DWIDTH 16 0
BBX 16 16 0 -2
BITMAP
0000
3ffc
300c
2004
0000
0c30
0ff0
0c30
0000
2004
300c
3ffc
0000
0000
0000
0000
ENDCHAR
STARTCHAR 0x262f
ENCODING 9775
SWIDTH 1000 0
DWIDTH 16 0
BBX 16 16 0 -2
BITMAP
0000
07c0
1830
3018
600c
600c
600c
600c
600c
3018
1830
07c0
0000
0000
0000
0000
ENDCHAR
STARTCHAR 0x2630
ENCODING 9776
SWIDTH 1000 0
DWIDTH 16 0
BBX 16 16 0 -2
BITMAP
0000
7ffe
381c
300c
300c
300c
300c
300c
300c
300c
300c
781e
0000
0000
0000
0000
ENDCHAR
STARTCHAR 0x2631
ENCODING 9777
SWIDTH 1000 0
DWIDTH 16 0
BBX 16 16 0 -2
BITMAP
0000
7ff0
3818
300c
300c
3818
3ff0
3000
3000
3000
3000
7800
0000
0000
0000
0000
ENDCHAR
STARTCHAR 0x2632
ENCODING 9778
SWIDTH 1000 0
DWIDTH 16 0
BBX 16 16 0 -2
BITMAP
0000
7ffc
300c
1804
0c00
0600
0200
0600
0c00
1804
300c
7ffc
0000
0000
0000
0000
ENDCHAR
STARTCHAR 0x2633
ENCODING 9779
SWIDTH 1000 0
DWIDTH 16 0
BBX 16 16 0 -2
BITMAP
0000
7ffe
6186
4182
0180
0180
0180
0180
0180
0180
0180
03c0
0000
0000
0000
0000
ENDCHAR
STARTCHAR 0x2634
ENCODING 9780
SWIDTH 1000 0
DWIDTH 16 0
BBX 16 16 0 -2
BITMAP
0000
0060
06b0
0980
0180
0180
0180
0180
0180
0180
0180
03c0
0000
0000
0000
0000
ENDCHAR
STARTCHAR 0x2635
ENCODING 9781
SWIDTH 1000 0
DWIDTH 16 0
BBX 16 16 0 -2
BITMAP
0000
03c0
0180
0ff0
1998
318c
318c
318c
1998
0ff0
0180
03c0
0000
0000
0000
0000
ENDCHAR
STARTCHAR 0x2636
ENCODING 9782
SWIDTH 1000 0
DWIDTH 16 0
BBX 16 16 0 -2
BITMAP
0000
781e
1818
0c30
0660
03c0
0180
03c0
0660
0c30
1818
781e
0000
0000
0000
0000
ENDCHAR
STARTCHAR 0x2637
ENCODING 9783
SWIDTH 1000 0
DWIDTH 16 0
BBX 16 16 0 -2
BITMAP
0000
63c6
318c
1188
1998
1998
1998
0ff0
0180
0180
0180
03c0
0000
0000
0000
0000
ENDCHAR
STARTCHAR 0x2638
ENCODING 9784
SWIDTH 1000 0
DWIDTH 16 0
BBX 16 16 0 -2
BITMAP
0000
07c0
0c60
1830
3018
3018
3018
3018
1830
4c64
644c
7c7c
0000
0000
0000
0000
ENDCHAR
STARTCHAR 0x2639
ENCODING 9785
SWIDTH 1000 0
DWIDTH 16 0
BBX 16 16 0 -2
BITMAP
0000
0000
0000
0000
0000
0000
0000
0000
0000
0000
0000
0000
0000
0000
0000
0000
ENDCHAR
STARTCHAR 0x263a
ENCODING 9786
SWIDTH 1000 0
DWIDTH 16 0
BBX 16 16 0 -2
BITMAP
0000
0000
0000
0000
0000
0000
0000
0000
0000
0000
0000
0000
0000
0000
0000
0000
ENDCHAR
STARTCHAR 0x263b
ENCODING 9787
SWIDTH 1000 0
DWIDTH 16 0
BBX 16 16 0 -2
BITMAP
0000
0000
0000
0000
0000
0000
0000
0000
0000
0000
0000
0000
0000
0000
0000
0000
ENDCHAR
STARTCHAR 0x263c
ENCODING 9788
SWIDTH 1000 0
DWIDTH 16 0
BBX 16 16 0 -2
BITMAP
0000
0000
0000
0000
0000
0000
0000
0000
0000
0000
0000
0000
0000
0000
0000
0000
ENDCHAR
STARTCHAR 0x263d
ENCODING 9789
SWIDTH 1000 0
DWIDTH 16 0
BBX 16 16 0 -2
BITMAP
0000
0000
0000
0000
0000
0000
0000
0000
0000
0000
0000
0000
0000
0000
0000
0000
ENDCHAR
STARTCHAR 0x263e
ENCODING 9790
SWIDTH 1000 0
DWIDTH 16 0
BBX 16 16 0 -2
BITMAP
0000
0000
0000
0000
0000
0000
0000
0000
0000
0000
0000
0000
0000
0000
0000
0000
ENDCHAR
STARTCHAR 0x263f
ENCODING 9791
SWIDTH 1000 0
DWIDTH 16 0
BBX 16 16 0 -2
BITMAP
0000
0000
0000
0000
0000
0000
0000
0000
0000
0000
0000
0000
0000
0000
0000
0000
ENDCHAR
STARTCHAR 0x2640
ENCODING 9792
SWIDTH 1000 0
DWIDTH 16 0
BBX 16 16 0 -2
BITMAP
0000
0000
0000
0000
0000
0000
0000
0000
0000
0000
0000
0000
0000
0000
0000
0000
ENDCHAR
STARTCHAR 0x2641
ENCODING 9793
SWIDTH 1000 0
DWIDTH 16 0
BBX 16 16 0 -2
BITMAP
0000
0000
0000
0760
18e0
3060
3060
3060
3060
3060
18e8
0730
0000
0000
0000
0000
ENDCHAR
STARTCHAR 0x2642
ENCODING 9794
SWIDTH 1000 0
DWIDTH 16 0
BBX 16 16 0 -2
BITMAP
0000
07c0
1860
1860
18c0
1f00
18c0
1830
1830
1830
1c60
1bc0
1800
1800
1800
0000
ENDCHAR
STARTCHAR 0x2643
ENCODING 9795
SWIDTH 1000 0
DWIDTH 16 0
BBX 16 16 0 -2
BITMAP
0000
0000
0000
0e18
1b30
3330
0160
01e0
01c0
01c0
01c0
0180
0180
0180
0180
0000
ENDCHAR
STARTCHAR 0x2644
ENCODING 9796
SWIDTH 1000 0
DWIDTH 16 0
BBX 16 16 0 -2
BITMAP
0000
03c0
0660
0300
0180
02c0
0660
0c30
0c30
0c30
0660
03c0
0000
0000
0000
0000
ENDCHAR
STARTCHAR 0x2645
ENCODING 9797
SWIDTH 1000 0
DWIDTH 16 0
BBX 16 16 0 -2
BITMAP
0000
0000
0000
0780
0cc0
0c00
0600
0180
0600
0c00
0cc0
0780
0000
0000
0000
0000
ENDCHAR
STARTCHAR 0x2646
ENCODING 9798
SWIDTH 1000 0
DWIDTH 16 0
BBX 16 16 0 -2
BITMAP
0000
0200
0440
06c0
0300
0300
0600
0c00
0c00
0c00
0600
03c0
0060
0060
03c0
0000
ENDCHAR
STARTCHAR 0x2647
ENCODING 9799
SWIDTH 1000 0
DWIDTH 16 0
BBX 16 16 0 -2
BITMAP
0000
0000
0000
01e0
0a30
1630
0630
0630
0630
0630
0630
0630
0030
0030
0030
0000
ENDCHAR
STARTCHAR 0x2648
ENCODING 9800
SWIDTH 1000 0
DWIDTH 16 0
BBX 16 16 0 -2
BITMAP
0000
0380
0c60
0820
1830
1830
1ff0
1830
1830
0820
0c60
0380
0000
0000
0000
0000
ENDCHAR
STARTCHAR 0x2649
ENCODING 9801
SWIDTH 1000 0
DWIDTH 16 0
BBX 16 16 0 -2
BITMAP
0000
0000
0000
0380
0180
0180
0180
0180
0180
0180
0180
01a0
01c0
0000
0000
0000
ENDCHAR
STARTCHAR 0x264a
ENCODING 9802
SWIDTH 1000 0
DWIDTH 16 0
BBX 16 16 0 -2
BITMAP
0000
0000
0000
1c38
0c60
0cc0
0d80
0f00
0d80
0cc0
0c60
1e78
0000
0000
0000
0000
ENDCHAR
STARTCHAR 0x264b
ENCODING 9803
SWIDTH 1000 0
DWIDTH 16 0
BBX 16 16 0 -2
BITMAP
0400
0a00
0a00
0300
0300
0300
0380
0280
06c0
0450
0c70
0820
0000
0000
0000
0000
ENDCHAR
STARTCHAR 0x264c
ENCODING 9804
SWIDTH 1000 0
DWIDTH 16 0
BBX 16 16 0 -2
BITMAP
0000
0000
0000
0c60
0c60
0c60
0c60
0c60
0c60
0c60
0ce8
0f30
0c00
0c00
0c00
0000
ENDCHAR
STARTCHAR 0x264d
ENCODING 9805
SWIDTH 1000 0
DWIDTH 16 0
BBX 16 16 0 -2
BITMAP
0000
0000
0000
1820
0810
0c30
0420
0660
0240
02c0
0380
0180
0000
0000
0000
0000
ENDCHAR
STARTCHAR 0x264e
ENCODING 9806
SWIDTH 1000 0
DWIDTH 16 0
BBX 16 16 0 -2
BITMAP
0000
0600
0c00
0780
0c00
0c00
0780
0c00
0800
0800
0c00
07c0
0060
0260
01c0
0000
ENDCHAR
STARTCHAR 0x264f
ENCODING 9807
SWIDTH 1000 0
DWIDTH 16 0
BBX 16 16 0 -2
BITMAP
0000
0000
0000
0780
0cc0
1860
1020
1020
1020
1860
0cc0
0780
0000
0000
0000
0000
ENDCHAR
STARTCHAR 0x2650
ENCODING 9808
SWIDTH 1000 0
DWIDTH 16 0
BBX 16 16 0 -2
BITMAP
0000
0000
0000
1ffc
2660
0660
0660
0660
0660
0460
0c68
1830
0000
0000
0000
0000
ENDCHAR
STARTCHAR 0x2651
ENCODING 9809
SWIDTH 1000 0
DWIDTH 16 0
BBX 16 16 0 -2
BITMAP
0000
0000
0000
07c0
0c60
1830
1830
1830
1830
1c30
1e60
1bc0
1800
1800
1800
0000
ENDCHAR
STARTCHAR 0x2652
ENCODING 9810
SWIDTH 1000 0
DWIDTH 16 0
BBX 16 16 0 -2
BITMAP
0000
0000
0000
07f8
0c60
1830
1830
1830
1830
1830
0c60
07c0
0000
0000
0000
0000
ENDCHAR
STARTCHAR 0x2653
ENCODING 9811
SWIDTH 1000 0
DWIDTH 16 0
BBX 16 16 0 -2
BITMAP
0000
0000
0000
07e0
0d80
0180
0180
0180
0180
0180
01a0
00c0
0000
0000
0000
0000
ENDCHAR
STARTCHAR 0x2654
ENCODING 9812
SWIDTH 1000 0
DWIDTH 16 0
BBX 16 16 0 -2
BITMAP
0000
0000
0000
0c60
1630
0630
0630
0630
0630
0630
0630
03e0
0000
0000
0000
0000
ENDCHAR
STARTCHAR 0x2655
ENCODING 9813
SWIDTH 1000 0
DWIDTH 16 0
BBX 16 16 0 -2
BITMAP
0000
0180
0180
07e0
0db0
1998
1998
1998
1998
1998
0db0
07e0
0180
0180
0180
0000
ENDCHAR
STARTCHAR 0x2656
ENCODING 9814
SWIDTH 1000 0
DWIDTH 16 0
BBX 16 16 0 -2
BITMAP
0000
0c18
1630
0630
0360
03c0
0180
0180
03c0
06c0
0c60
0c68
1830
0000
0000
0000
ENDCHAR
STARTCHAR 0x2657
ENCODING 9815
SWIDTH 1000 0
DWIDTH 16 0
BBX 16 16 0 -2
BITMAP
0000
0180
0180
19a0
2db0
0db0
0db0
0db0
0db0
0db0
0db0
07e0
0180
0180
0180
0000
ENDCHAR
STARTCHAR 0x2658
ENCODING 9816
SWIDTH 1000 0
DWIDTH 16 0
BBX 16 16 0 -2
BITMAP
0000
0000
0000
0440
1830
3118
3118
3118
3118
3118
1bb0
0c60
0000
0000
0000
0000
ENDCHAR
STARTCHAR 0x2659
ENCODING 9817
SWIDTH 1000 0
DWIDTH 16 0
BBX 16 16 0 -2
BITMAP
0000
0000
0000
0000
0000
0000
0000
0000
0000
0000
0000
0000
0000
0000
0000
0000
ENDCHAR
STARTCHAR 0x265a
ENCODING 9818
SWIDTH 1000 0
DWIDTH 16 0
BBX 16 16 0 -2
BITMAP
0000
0000
0000
0000
0000
0000
0000
0000
0000
0000
0000
0000
0000
0000
0000
0000
ENDCHAR
STARTCHAR 0x265b
ENCODING 9819
SWIDTH 1000 0
DWIDTH 16 0
BBX 16 16 0 -2
BITMAP
0000
0000
0000
0000
0000
0000
0000
0000
0000
0000
0000
0000
0000
0000
0000
0000
ENDCHAR
STARTCHAR 0x265c
ENCODING 9820
SWIDTH 1000 0
DWIDTH 16 0
BBX 16 16 0 -2
BITMAP
0000
0000
0000
0000
0000
0000
0000
0000
0000
0000
0000
0000
0000
0000
0000
0000
ENDCHAR
STARTCHAR 0x265d
ENCODING 9821
SWIDTH 1000 0
DWIDTH 16 0
BBX 16 16 0 -2
BITMAP
0000
0000
0000
0000
0000
0000
0000
0000
0000
0000
0000
0000
0000
0000
0000
0000
ENDCHAR
STARTCHAR 0x265e
ENCODING 9822
SWIDTH 1000 0
DWIDTH 16 0
BBX 16 16 0 -2
BITMAP
0000
0000
0000
0000
0000
0000
0000
0000
0000
0000
0000
0000
0000
0000
0000
0000
ENDCHAR
STARTCHAR 0x265f
ENCODING 9823
SWIDTH 1000 0
DWIDTH 16 0
BBX 16 16 0 -2
BITMAP
0000
0000
0000
0000
0000
0000
0000
0000
0000
0000
0000
0000
0000
0000
0000
0000
ENDCHAR
STARTCHAR 0x2660
ENCODING 9824
SWIDTH 1000 0
DWIDTH 16 0
BBX 16 16 0 -2
BITMAP
0000
0000
0000
0000
0000
0000
0000
0000
0000
0000
0000
0000
0000
0000
0000
0000
ENDCHAR
STARTCHAR 0x2661
ENCODING 9825
SWIDTH 1000 0
DWIDTH 16 0
BBX 16 16 0 -2
BITMAP
0000
0000
0000
0000
0000
0000
0000
0000
0000
0000
0000
0000
0000
0000
0000
0000
ENDCHAR
STARTCHAR 0x2662
ENCODING 9826
SWIDTH 1000 0
DWIDTH 16 0
BBX 16 16 0 -2
BITMAP
0000
0000
0000
0000
0000
0000
0000
0000
0000
0000
0000
0000
0000
0000
0000
0000
ENDCHAR
STARTCHAR 0x2663
ENCODING 9827
SWIDTH 1000 0
DWIDTH 16 0
BBX 16 16 0 -2
BITMAP
0000
0000
0000
0000
0000
0000
0000
0000
0000
0000
0000
0000
0000
0000
0000
0000
ENDCHAR
STARTCHAR 0x2664
ENCODING 9828
SWIDTH 1000 0
DWIDTH 16 0
BBX 16 16 0 -2
BITMAP
0000
0000
0000
0000
0000
0000
0000
0000
0000
0000
0000
0000
0000
0000
0000
0000
ENDCHAR
STARTCHAR 0x2665
ENCODING 9829
SWIDTH 1000 0
DWIDTH 16 0
BBX 16 16 0 -2
BITMAP
0000
0000
0000
0000
0000
0000
0000
0000
0000
0000
0000
0000
0000
0000
0000
0000
ENDCHAR
STARTCHAR 0x2666
ENCODING 9830
SWIDTH 1000 0
DWIDTH 16 0
BBX 16 16 0 -2
BITMAP
0000
0000
0000
0000
0000
0000
0000
0000
0000
0000
0000
0000
0000
0000
0000
0000
ENDCHAR
STARTCHAR 0x2667
ENCODING 9831
SWIDTH 1000 0
DWIDTH 16 0
BBX 16 16 0 -2
BITMAP
0000
0000
0000
0000
0000
0000
0000
0000
0000
0000
0000
0000
0000
0000
0000
0000
ENDCHAR
STARTCHAR 0x2668
ENCODING 9832
SWIDTH 1000 0
DWIDTH 16 0
BBX 16 16 0 -2
BITMAP
0000
0000
0000
0000
0000
0000
0000
0000
0000
0000
0000
0000
0000
0000
0000
0000
ENDCHAR
STARTCHAR 0x2669
ENCODING 9833
SWIDTH 1000 0
DWIDTH 16 0
BBX 16 16 0 -2
BITMAP
0000
0000
0000
0000
0000
0000
0000
0000
0000
0000
0000
0000
0000
0000
0000
0000
ENDCHAR
STARTCHAR 0x266a
ENCODING 9834
SWIDTH 1000 0
DWIDTH 16 0
BBX 16 16 0 -2
BITMAP
0000
0000
0000
0000
0000
0000
0000
0000
0000
0000
0000
0000
0000
0000
0000
0000
ENDCHAR
STARTCHAR 0x266b
ENCODING 9835
SWIDTH 1000 0
DWIDTH 16 0
BBX 16 16 0 -2
BITMAP
0000
0000
0000
0000
0000
0000
0000
0000
0000
0000
0000
0000
0000
0000
0000
0000
ENDCHAR
STARTCHAR 0x266c
ENCODING 9836
SWIDTH 1000 0
DWIDTH 16 0
BBX 16 16 0 -2
BITMAP
0000
0000
0000
0000
0000
0000
0000
0000
0000
0000
0000
0000
0000
0000
0000
0000
ENDCHAR
STARTCHAR 0x266d
ENCODING 9837
SWIDTH 1000 0
DWIDTH 16 0
BBX 16 16 0 -2
BITMAP
0000
0000
0000
0000
0000
0000
0000
0000
0000
0000
0000
0000
0000
0000
0000
0000
ENDCHAR
STARTCHAR 0x266e
ENCODING 9838
SWIDTH 1000 0
DWIDTH 16 0
BBX 16 16 0 -2
BITMAP
0000
0000
0000
0000
0000
0000
0000
0000
0000
0000
0000
0000
0000
0000
0000
0000
ENDCHAR
STARTCHAR 0x266f
ENCODING 9839
SWIDTH 1000 0
DWIDTH 16 0
BBX 16 16 0 -2
BITMAP
0000
0000
0000
0000
0000
0000
0000
0000
0000
0000
0000
0000
0000
0000
0000
0000
ENDCHAR
STARTCHAR 0x2670
ENCODING 9840
SWIDTH 1000 0
DWIDTH 16 0
BBX 16 16 0 -2
BITMAP
0000
0000
0000
0000
0000
0000
0000
0000
0000
0000
0000
0000
0000
0000
0000
0000
ENDCHAR
STARTCHAR 0x2671
ENCODING 9841
SWIDTH 1000 0
DWIDTH 16 0
BBX 16 16 0 -2
BITMAP
0000
0000
0000
0000
0000
0000
0000
0000
0000
0000
0000
0000
0000
0000
0000
0000
ENDCHAR
STARTCHAR 0x2672
ENCODING 9842
SWIDTH 1000 0
DWIDTH 16 0
BBX 16 16 0 -2
BITMAP
0000
0000
0000
0000
0000
0000
0000
0000
0000
0000
0000
0000
0000
0000
0000
0000
ENDCHAR
STARTCHAR 0x2673
ENCODING 9843
SWIDTH 1000 0
DWIDTH 16 0
BBX 16 16 0 -2
BITMAP
0000
0000
0000
0000
0000
0000
0000
0000
0000
0000
0000
0000
0000
0000
0000
0000
ENDCHAR
STARTCHAR 0x2674
ENCODING 9844
SWIDTH 1000 0
DWIDTH 16 0
BBX 16 16 0 -2
BITMAP
0000
0000
0000
0000
0000
0000
0000
0000
0000
0000
0000
0000
0000
0000
0000
0000
ENDCHAR
STARTCHAR 0x2675
ENCODING 9845
SWIDTH 1000 0
DWIDTH 16 0
BBX 16 16 0 -2
BITMAP
0000
0000
0000
0000
0000
0000
0000
0000
0000
0000
0000
0000
0000
0000
0000
0000
ENDCHAR
STARTCHAR 0x2676
ENCODING 9846
SWIDTH 1000 0
DWIDTH 16 0
BBX 16 16 0 -2
BITMAP
0000
0000
0000
0000
0000
0000
0000
0000
0000
0000
0000
0000
0000
0000
0000
0000
ENDCHAR
STARTCHAR 0x2677
ENCODING 9847
SWIDTH 1000 0
DWIDTH 16 0
BBX 16 16 0 -2
BITMAP
0000
0000
0000
0000
0000
0000
0000
0000
0000
0000
0000
0000
0000
0000
0000
0000
ENDCHAR
STARTCHAR 0x2678
ENCODING 9848
SWIDTH 1000 0
DWIDTH 16 0
BBX 16 16 0 -2
BITMAP
0000
0000
0000
0000
0000
0000
0000
0000
0000
0000
0000
0000
0000
0000
0000
0000
ENDCHAR
STARTCHAR 0x2679
ENCODING 9849
SWIDTH 1000 0
DWIDTH 16 0
BBX 16 16 0 -2
BITMAP
0000
0000
0000
0000
0000
0000
0000
0000
0000
0000
0000
0000
0000
0000
0000
0000
ENDCHAR
STARTCHAR 0x267a
ENCODING 9850
SWIDTH 1000 0
DWIDTH 16 0
BBX 16 16 0 -2
BITMAP
0000
0000
0000
0000
0000
0000
0000
0000
0000
0000
0000
0000
0000
0000
0000
0000
ENDCHAR
STARTCHAR 0x267b
ENCODING 9851
SWIDTH 1000 0
DWIDTH 16 0
BBX 16 16 0 -2
BITMAP
0000
0000
0000
0000
0000
0000
0000
0000
0000
0000
0000
0000
0000
0000
0000
0000
ENDCHAR
STARTCHAR 0x267c
ENCODING 9852
SWIDTH 1000 0
DWIDTH 16 0
BBX 16 16 0 -2
BITMAP
0000
0000
0000
0000
0000
0000
0000
0000
0000
0000
0000
0000
0000
0000
0000
0000
ENDCHAR
STARTCHAR 0x267d
ENCODING 9853
SWIDTH 1000 0
DWIDTH 16 0
BBX 16 16 0 -2
BITMAP
0000
0000
0000
0000
0000
0000
0000
0000
0000
0000
0000
0000
0000
0000
0000
0000
ENDCHAR
STARTCHAR 0x267e
ENCODING 9854
SWIDTH 1000 0
DWIDTH 16 0
BBX 16 16 0 -2
BITMAP
0000
0000
0000
0000
0000
0000
0000
0000
0000
0000
0000
0000
0000
0000
0000
0000
ENDCHAR
STARTCHAR 0x2721
ENCODING 10017
SWIDTH 1000 0
DWIDTH 16 0
BBX 16 16 0 -2
BITMAP
0000
0080
01c0
0140
0360
0260
0260
0430
07f0
0430
0818
0818
0818
1c3c
0000
0000
ENDCHAR
STARTCHAR 0x2722
ENCODING 10018
SWIDTH 1000 0
DWIDTH 16 0
BBX 16 16 0 -2
BITMAP
0000
0000
1ff8
0e18
0c08
0c00
0c00
0fe0
0c70
0c38
0c18
0c18
0e30
1fe0
0000
0000
ENDCHAR
STARTCHAR 0x2723
ENCODING 10019
SWIDTH 1000 0
DWIDTH 16 0
BBX 16 16 0 -2
BITMAP
0000
0000
1ff0
0e38
0c18
0c38
0c70
0fc0
0c70
0c38
0c18
0c18
0e30
1fe0
0000
0000
ENDCHAR
STARTCHAR 0x2724
ENCODING 10020
SWIDTH 1000 0
DWIDTH 16 0
BBX 16 16 0 -2
BITMAP
0000
0000
1ff8
0e18
0c08
0c00
0c00
0c00
0c00
0c00
0c00
0c00
0c00
1e00
0000
0000
ENDCHAR
STARTCHAR 0x2725
ENCODING 10021
SWIDTH 1000 0
DWIDTH 16 0
BBX 16 16 0 -2
BITMAP
0000
0000
0ff8
0230
0230
0230
0430
0430
0430
0830
0830
0830
3ffc
2004
0000
0000
ENDCHAR
STARTCHAR 0x2726
ENCODING 10022
SWIDTH 1000 0
DWIDTH 16 0
BBX 16 16 0 -2
BITMAP
0000
0000
1ff8
0e18
0c08
0c00
0c20
0fe0
0c20
0c00
0c00
0c08
0e18
1ff8
0000
0000
ENDCHAR
STARTCHAR 0x2727
ENCODING 10023
SWIDTH 1000 0
DWIDTH 16 0
BBX 16 16 0 -2
BITMAP
0000
0220
0000
1ff8
0c18
0c08
0c00
0c20
0fe0
0c20
0c00
0c00
0c08
0e18
1ff8
0000
ENDCHAR
STARTCHAR 0x2728
ENCODING 10024
SWIDTH 1000 0
DWIDTH 16 0
BBX 16 16 0 -2
BITMAP
0000
0000
73ce
399c
0990
0990
05a0
0db0
0ff0
0db0
1998
1998
318c
7bde
0000
0000
ENDCHAR
STARTCHAR 0x2729
ENCODING 10025
SWIDTH 1000 0
DWIDTH 16 0
BBX 16 16 0 -2
BITMAP
0000
03c0
1470
1838
101c
0038
0070
01c0
0070
0038
101c
0838
0670
01e0
0000
0000
ENDCHAR
STARTCHAR 0x272a
ENCODING 10026
SWIDTH 1000 0
DWIDTH 16 0
BBX 16 16 0 -2
BITMAP
0000
0000
1e3c
0c18
0c38
0c58
0c58
0c98
0c98
0d18
0d18
0e18
0c18
1e3c
0000
0000
ENDCHAR
STARTCHAR 0x272b
ENCODING 10027
SWIDTH 1000 0
DWIDTH 16 0
BBX 16 16 0 -2
BITMAP
0000
0630
03e0
1e3c
0c18
0c38
0c58
0c58
0c98
0c98
0d18
0d18
0e18
0c18
1e3c
0000
ENDCHAR
STARTCHAR 0x272c
ENCODING 10028
SWIDTH 1000 0
DWIDTH 16 0
BBX 16 16 0 -2
BITMAP
0000
0000
1e18
0c34
0c60
0c80
0d00
0f80
0cc0
0c60
0c70
0c38
0c18
1e1e
0000
0000
ENDCHAR
STARTCHAR 0x272d
ENCODING 10029
SWIDTH 1000 0
DWIDTH 16 0
BBX 16 16 0 -2
BITMAP
0000
0000
0ff8
0230
0230
0230
0430
0430
0430
0830
0830
2830
3830
3078
0000
0000
ENDCHAR
STARTCHAR 0x272e
ENCODING 10030
SWIDTH 1000 0
DWIDTH 16 0
BBX 16 16 0 -2
BITMAP
0000
0000
0000
380e
1c1c
162c
162c
132c
134c
114c
11cc
108c
108c
381e
0000
0000
ENDCHAR
STARTCHAR 0x272f
ENCODING 10031
SWIDTH 1000 0
DWIDTH 16 0
BBX 16 16 0 -2
BITMAP
0000
0000
1e3c
0c18
0c18
0c18
0c18
0ff8
0c18
0c18
0c18
0c18
0c18
1e3c
0000
0000
ENDCHAR
STARTCHAR 0x2730
ENCODING 10032
SWIDTH 1000 0
DWIDTH 16 0
BBX 16 16 0 -2
BITMAP
0000
0000
03e0
0630
0c18
180c
180c
180c
180c
180c
180c
0c18
0630
03e0
0000
0000
ENDCHAR
STARTCHAR 0x2731
ENCODING 10033
SWIDTH 1000 0
DWIDTH 16 0
BBX 16 16 0 -2
BITMAP
0000
0000
1ffc
0c18
0c18
0c18
0c18
0c18
0c18
0c18
0c18
0c18
0c18
1e3c
0000
0000
ENDCHAR
STARTCHAR 0x2732
ENCODING 10034
SWIDTH 1000 0
DWIDTH 16 0
BBX 16 16 0 -2
BITMAP
0000
0000
1fe0
0e30
0c18
0c18
0c18
0e30
0fe0
0c00
0c00
0c00
0c00
1e00
0000
0000
ENDCHAR
STARTCHAR 0x2733
ENCODING 10035
SWIDTH 1000 0
DWIDTH 16 0
BBX 16 16 0 -2
BITMAP
0000
0000
03e0
0638
0c18
1808
1800
1800
1800
1800
1800
0c08
0630
03e0
0000
0000
ENDCHAR
STARTCHAR 0x2734
ENCODING 10036
SWIDTH 1000 0
DWIDTH 16 0
BBX 16 16 0 -2
BITMAP
0000
0000
1ff8
1188
0180
0180
0180
0180
0180
0180
0180
0180
03c0
0000
0000
0000
ENDCHAR
STARTCHAR 0x2735
ENCODING 10037
SWIDTH 1000 0
DWIDTH 16 0
BBX 16 16 0 -2
BITMAP
0000
0000
1e1c
0c08
0c08
0e08
0610
0710
0320
0360
01c0
0080
0900
1e00
0c00
0000
ENDCHAR
STARTCHAR 0x2736
ENCODING 10038
SWIDTH 1000 0
DWIDTH 16 0
BBX 16 16 0 -2
BITMAP
0000
0000
1e1c
0c08
0618
0730
0360
01c0
01c0
0360
0660
0430
0818
1c3c
0000
0000
ENDCHAR
STARTCHAR 0x2737
ENCODING 10039
SWIDTH 1000 0
DWIDTH 16 0
BBX 16 16 0 -2
BITMAP
0000
0000
03c0
0180
0ff0
1998
318c
318c
318c
318c
1998
0ff0
0180
03c0
0000
0000
ENDCHAR
STARTCHAR 0x2738
ENCODING 10040
SWIDTH 1000 0
DWIDTH 16 0
BBX 16 16 0 -2
BITMAP
0000
0000
1e3c
0c18
0c18
0c18
0c18
0c18
0c18
0c18
0c18
0c18
0c18
1ffe
0002
0000
ENDCHAR
STARTCHAR 0x2739
ENCODING 10041
SWIDTH 1000 0
DWIDTH 16 0
BBX 16 16 0 -2
BITMAP
0000
0000
1e3c
0c18
0c18
0c18
0c18
0c38
0678
03d8
0018
0018
0018
003c
0000
0000
ENDCHAR
STARTCHAR 0x273a
ENCODING 10042
SWIDTH 1000 0
DWIDTH 16 0
BBX 16 16 0 -2
BITMAP
0000
0000
7bde
318c
318c
318c
318c
318c
318c
318c
318c
318c
318c
7ffe
0000
0000
ENDCHAR
STARTCHAR 0x273b
ENCODING 10043
SWIDTH 1000 0
DWIDTH 16 0
BBX 16 16 0 -2
BITMAP
0000
0000
7bde
318c
318c
318c
318c
318c
318c
318c
318c
318c
7fff
0001
0000
0000
ENDCHAR
STARTCHAR 0x273c
ENCODING 10044
SWIDTH 1000 0
DWIDTH 16 0
BBX 16 16 0 -2
BITMAP
0000
0000
1f00
1600
0600
0600
0600
07e0
0730
0618
0618
0618
0730
0fe0
0000
0000
ENDCHAR
STARTCHAR 0x273d
ENCODING 10045
SWIDTH 1000 0
DWIDTH 16 0
BBX 16 16 0 -2
BITMAP
0000
0000
3c3c
1818
1818
1818
1818
1f18
1d98
18d8
18d8
18d8
1d98
3f3c
0000
0000
ENDCHAR
STARTCHAR 0x273e
ENCODING 10046
SWIDTH 1000 0
DWIDTH 16 0
BBX 16 16 0 -2
BITMAP
0000
0000
0f00
0600
0600
0600
0600
07e0
0730
0618
0618
0618
0730
0fe0
0000
0000
ENDCHAR
STARTCHAR 0x273f
ENCODING 10047
SWIDTH 1000 0
DWIDTH 16 0
BBX 16 16 0 -2
BITMAP
0000
0000
0be0
0e30
0c18
080c
000c
007c
000c
000c
000c
0818
0630
03e0
0000
0000
ENDCHAR
STARTCHAR 0x2740
ENCODING 10048
SWIDTH 1000 0
DWIDTH 16 0
BBX 16 16 0 -2
BITMAP
0000
0000
3cf8
198c
1906
1b06
1b06
1f06
1b06
1b06
1b06
1b06
198c
3cf8
0000
0000
ENDCHAR
STARTCHAR 0x2741
ENCODING 10049
SWIDTH 1000 0
DWIDTH 16 0
BBX 16 16 0 -2
BITMAP
0000
0000
03fc
0618
0c18
0c18
0c18
0678
03d8
0318
0618
0c18
1818
3c3c
0000
0000
ENDCHAR
STARTCHAR 0x2742
ENCODING 10050
SWIDTH 1000 0
DWIDTH 16 0
BBX 16 16 0 -2
BITMAP
0000
0000
0000
0000
0000
0000
0000
0000
0000
0000
0000
0000
0000
0000
0000
0000
ENDCHAR
STARTCHAR 0x2743
ENCODING 10051
SWIDTH 1000 0
DWIDTH 16 0
BBX 16 16 0 -2
BITMAP
0000
0000
0000
0000
0000
0000
0000
0000
0000
0000
0000
0000
0000
0000
0000
0000
ENDCHAR
STARTCHAR 0x2744
ENCODING 10052
SWIDTH 1000 0
DWIDTH 16 0
BBX 16 16 0 -2
BITMAP
0000
0000
0000
0000
0000
0000
0000
0000
0000
0000
0000
0000
0000
0000
0000
0000
ENDCHAR
STARTCHAR 0x2745
ENCODING 10053
SWIDTH 1000 0
DWIDTH 16 0
BBX 16 16 0 -2
BITMAP
0000
0000
0000
0000
0000
0000
0000
0000
0000
0000
0000
0000
0000
0000
0000
0000
ENDCHAR
STARTCHAR 0x2746
ENCODING 10054
SWIDTH 1000 0
DWIDTH 16 0
BBX 16 16 0 -2
BITMAP
0000
0000
0000
0000
0000
0000
0000
0000
0000
0000
0000
0000
0000
0000
0000
0000
ENDCHAR
STARTCHAR 0x2747
ENCODING 10055
SWIDTH 1000 0
DWIDTH 16 0
BBX 16 16 0 -2
BITMAP
0000
0000
0000
0000
0000
0000
0000
0000
0000
0000
0000
0000
0000
0000
0000
0000
ENDCHAR
STARTCHAR 0x2748
ENCODING 10056
SWIDTH 1000 0
DWIDTH 16 0
BBX 16 16 0 -2
BITMAP
0000
0000
0000
0000
0000
0000
0000
0000
0000
0000
0000
0000
0000
0000
0000
0000
ENDCHAR
STARTCHAR 0x2749
ENCODING 10057
SWIDTH 1000 0
DWIDTH 16 0
BBX 16 16 0 -2
BITMAP
0000
0000
0000
0000
0000
0000
0000
0000
0000
0000
0000
0000
0000
0000
0000
0000
ENDCHAR
STARTCHAR 0x274a
ENCODING 10058
SWIDTH 1000 0
DWIDTH 16 0
BBX 16 16 0 -2
BITMAP
0000
0000
0000
0000
0000
0000
0000
0000
0000
0000
0000
0000
0000
0000
0000
0000
ENDCHAR
STARTCHAR 0x274b
ENCODING 10059
SWIDTH 1000 0
DWIDTH 16 0
BBX 16 16 0 -2
BITMAP
0000
0000
0000
0000
0000
0000
0000
0000
0000
0000
0000
0000
0000
0000
0000
0000
ENDCHAR
STARTCHAR 0x274c
ENCODING 10060
SWIDTH 1000 0
DWIDTH 16 0
BBX 16 16 0 -2
BITMAP
0000
0000
0000
0000
0000
0000
0000
0000
0000
0000
0000
0000
0000
0000
0000
0000
ENDCHAR
STARTCHAR 0x274d
ENCODING 10061
SWIDTH 1000 0
DWIDTH 16 0
BBX 16 16 0 -2
BITMAP
0000
0000
0000
0000
0000
0000
0000
0000
0000
0000
0000
0000
0000
0000
0000
0000
ENDCHAR
STARTCHAR 0x274e
ENCODING 10062
SWIDTH 1000 0
DWIDTH 16 0
BBX 16 16 0 -2
BITMAP
0000
0000
0000
0000
0000
0000
0000
0000
0000
0000
0000
0000
0000
0000
0000
0000
ENDCHAR
STARTCHAR 0x274f
ENCODING 10063
SWIDTH 1000 0
DWIDTH 16 0
BBX 16 16 0 -2
BITMAP
0000
0000
0000
0000
0000
0000
0000
0000
0000
0000
0000
0000
0000
0000
0000
0000
ENDCHAR
STARTCHAR 0x2750
ENCODING 10064
SWIDTH 1000 0
DWIDTH 16 0
BBX 16 16 0 -2
BITMAP
0000
0000
0000
0000
0000
0000
0000
0000
0000
0000
0000
0000
0000
0000
0000
0000
ENDCHAR
STARTCHAR 0x2751
ENCODING 10065
SWIDTH 1000 0
DWIDTH 16 0
BBX 16 16 0 -2
BITMAP
0000
0000
0000
0380
06c0
0c60
0820
03a0
06e0
0c20
0c68
06d8
0390
0000
0000
0000
ENDCHAR
STARTCHAR 0x2752
ENCODING 10066
SWIDTH 1000 0
DWIDTH 16 0
BBX 16 16 0 -2
BITMAP
0000
0030
00e0
0380
0400
05c0
0760
0630
0630
0630
0630
0630
0360
01c0
0000
0000
ENDCHAR
STARTCHAR 0x2753
ENCODING 10067
SWIDTH 1000 0
DWIDTH 16 0
BBX 16 16 0 -2
BITMAP
0000
0000
0000
0fe0
0630
0630
0660
07c0
0660
0630
0630
0630
0fe0
0000
0000
0000
ENDCHAR
STARTCHAR 0x2754
ENCODING 10068
SWIDTH 1000 0
DWIDTH 16 0
BBX 16 16 0 -2
BITMAP
0000
0000
0000
0ff0
0630
0610
0600
0600
0600
0600
0600
0600
0f00
0000
0000
0000
ENDCHAR
STARTCHAR 0x2755
ENCODING 10069
SWIDTH 1000 0
DWIDTH 16 0
BBX 16 16 0 -2
BITMAP
0000
0000
0000
0ff8
0260
0260
0260
0460
0460
0860
1ff8
1008
0000
0000
0000
0000
ENDCHAR
STARTCHAR 0x2756
ENCODING 10070
SWIDTH 1000 0
DWIDTH 16 0
BBX 16 16 0 -2
BITMAP
0000
0000
0000
0000
01e0
0330
0618
0ff8
0c00
0608
0330
01e0
0000
0000
0000
0000
ENDCHAR
STARTCHAR 0x2757
ENCODING 10071
SWIDTH 1000 0
DWIDTH 16 0
BBX 16 16 0 -2
BITMAP
0000
0000
0000
0120
0000
01e0
0330
0618
07f8
0400
0608
0330
01e0
0000
0000
0000
ENDCHAR
STARTCHAR 0x2758
ENCODING 10072
SWIDTH 1000 0
DWIDTH 16 0
BBX 16 16 0 -2
BITMAP
0000
0000
0000
0000
0bd0
1998
05a0
05a0
03c0
05a0
0990
1bd8
0000
0000
0000
0000
ENDCHAR
STARTCHAR 0x2759
ENCODING 10073
SWIDTH 1000 0
DWIDTH 16 0
BBX 16 16 0 -2
BITMAP
0000
0000
0000
05c0
0760
0430
0060
00c0
0060
0430
0c30
0660
03c0
0000
0000
0000
ENDCHAR
STARTCHAR 0x275a
ENCODING 10074
SWIDTH 1000 0
DWIDTH 16 0
BBX 16 16 0 -2
BITMAP
0000
0000
0000
0f78
0630
0630
0670
06b0
0730
0630
0630
0f78
0000
0000
0000
0000
ENDCHAR
STARTCHAR 0x275b
ENCODING 10075
SWIDTH 1000 0
DWIDTH 16 0
BBX 16 16 0 -2
BITMAP
0000
0000
0000
0220
0000
0f78
0670
06b0
0730
0630
0630
0630
0f78
0000
0000
0000
ENDCHAR
STARTCHAR 0x275c
ENCODING 10076
SWIDTH 1000 0
DWIDTH 16 0
BBX 16 16 0 -2
BITMAP
0000
0000
0000
0f10
0638
0640
0780
06c0
0660
0620
0630
0f18
0000
0000
0000
0000
ENDCHAR
STARTCHAR 0x275d
ENCODING 10077
SWIDTH 1000 0
DWIDTH 16 0
BBX 16 16 0 -2
BITMAP
0000
0000
0000
0ff8
0130
0130
0130
0230
0230
0230
1c30
0c78
0000
0000
0000
0000
ENDCHAR
STARTCHAR 0x275e
ENCODING 10078
SWIDTH 1000 0
DWIDTH 16 0
BBX 16 16 0 -2
BITMAP
0000
0000
0000
0000
181c
0c38
0a38
0b58
09d8
0998
0918
1c3c
0000
0000
0000
0000
ENDCHAR
STARTCHAR 0x275f
ENCODING 10079
SWIDTH 1000 0
DWIDTH 16 0
BBX 16 16 0 -2
BITMAP
0000
0000
0000
0f78
0630
0630
0630
07f0
0630
0630
0630
0f78
0000
0000
0000
0000
ENDCHAR
STARTCHAR 0x2760
ENCODING 10080
SWIDTH 1000 0
DWIDTH 16 0
BBX 16 16 0 -2
BITMAP
0000
0000
0000
01c0
0360
0630
0630
0630
0630
0630
0360
01c0
0000
0000
0000
0000
ENDCHAR
STARTCHAR 0x2761
ENCODING 10081
SWIDTH 1000 0
DWIDTH 16 0
BBX 16 16 0 -2
BITMAP
0000
0000
0000
0ff8
0630
0630
0630
0630
0630
0630
0630
0f78
0000
0000
0000
0000
ENDCHAR
STARTCHAR 0x2762
ENCODING 10082
SWIDTH 1000 0
DWIDTH 16 0
BBX 16 16 0 -2
BITMAP
0000
0000
0000
06e0
0fb0
0618
0618
0730
06c0
0600
0600
0600
0f00
0000
0000
0000
ENDCHAR
STARTCHAR 0x2763
ENCODING 10083
SWIDTH 1000 0
DWIDTH 16 0
BBX 16 16 0 -2
BITMAP
0000
0000
0000
01e0
0330
0620
0600
0600
0600
0610
0360
01c0
0000
0000
0000
0000
ENDCHAR
STARTCHAR 0x2764
ENCODING 10084
SWIDTH 1000 0
DWIDTH 16 0
BBX 16 16 0 -2
BITMAP
0000
0000
0000
0ff0
0990
0180
0180
0180
0180
0180
0180
03c0
0000
0000
0000
0000
ENDCHAR
STARTCHAR 0x2765
ENCODING 10085
SWIDTH 1000 0
DWIDTH 16 0
BBX 16 16 0 -2
BITMAP
0000
0000
0000
0f38
0610
0610
0320
0160
01c0
0080
0100
0e00
0400
0000
0000
0000
ENDCHAR
STARTCHAR 0x2766
ENCODING 10086
SWIDTH 1000 0
DWIDTH 16 0
BBX 16 16 0 -2
BITMAP
0000
0080
0380
0180
0180
05a0
0ff0
1998
1998
0ff0
05a0
0180
0180
03c0
0000
0000
ENDCHAR
STARTCHAR 0x2767
ENCODING 10087
SWIDTH 1000 0
DWIDTH 16 0
BBX 16 16 0 -2
BITMAP
0000
0000
0000
0f38
0610
0610
0320
01c0
00c0
0160
0230
0430
0e78
0000
0000
0000
ENDCHAR
STARTCHAR 0x2768
ENCODING 10088
SWIDTH 1000 0
DWIDTH 16 0
BBX 16 16 0 -2
BITMAP
0000
0000
0000
0f78
0630
0630
0630
0630
0630
0630
0630
0ff8
0008
0000
0000
0000
ENDCHAR
STARTCHAR 0x2769
ENCODING 10089
SWIDTH 1000 0
DWIDTH 16 0
BBX 16 16 0 -2
BITMAP
0000
0000
0000
0f78
0630
0630
0630
0370
01f0
0030
0030
0030
0078
0000
0000
0000
ENDCHAR
STARTCHAR 0x276a
ENCODING 10090
SWIDTH 1000 0
DWIDTH 16 0
BBX 16 16 0 -2
BITMAP
0000
0000
0000
1ddc
0888
0888
0888
0888
0888
0888
0888
1ffc
0000
0000
0000
0000
ENDCHAR
STARTCHAR 0x276b
ENCODING 10091
SWIDTH 1000 0
DWIDTH 16 0
BBX 16 16 0 -2
BITMAP
0000
0000
0000
1ddc
0888
0888
0888
0888
0888
0888
0888
1ffc
0004
0000
0000
0000
ENDCHAR
STARTCHAR 0x276c
ENCODING 10092
SWIDTH 1000 0
DWIDTH 16 0
BBX 16 16 0 -2
BITMAP
0000
0000
0000
1f00
1600
0600
0600
07e0
0730
0618
0618
0730
0fe0
0000
0000
0000
ENDCHAR
STARTCHAR 0x276d
ENCODING 10093
SWIDTH 1000 0
DWIDTH 16 0
BBX 16 16 0 -2
BITMAP
0000
0000
0000
1e3c
0c18
0c18
0c18
0d98
0ed8
0c78
0c78
0ed8
1fbc
0000
0000
0000
ENDCHAR
STARTCHAR 0x276e
ENCODING 10094
SWIDTH 1000 0
DWIDTH 16 0
BBX 16 16 0 -2
BITMAP
0000
0000
0000
0f00
0600
0600
0600
07e0
0730
0618
0618
0730
0fe0
0000
0000
0000
ENDCHAR
STARTCHAR 0x276f
ENCODING 10095
SWIDTH 1000 0
DWIDTH 16 0
BBX 16 16 0 -2
BITMAP
0000
0000
0000
03c0
0460
0030
0018
00f8
0018
0418
0c30
0660
03c0
0000
0000
0000
ENDCHAR
STARTCHAR 0x2770
ENCODING 10096
SWIDTH 1000 0
DWIDTH 16 0
BBX 16 16 0 -2
BITMAP
0000
0000
0000
1e70
0cd8
0d8c
0d8c
0f8c
0d8c
0d8c
0d8c
0cd8
1e70
0000
0000
0000
ENDCHAR
STARTCHAR 0x2771
ENCODING 10097
SWIDTH 1000 0
DWIDTH 16 0
BBX 16 16 0 -2
BITMAP
0000
0000
0000
03f8
0770
0630
0630
0370
01f0
0330
0a30
1e30
0c78
0000
0000
0000
ENDCHAR
STARTCHAR 0x2772
ENCODING 10098
SWIDTH 1000 0
DWIDTH 16 0
BBX 16 16 0 -2
BITMAP
0000
0000
0000
0000
0000
0000
0000
0000
0000
0000
0000
0000
0000
0000
0000
0000
ENDCHAR
STARTCHAR 0x2773
ENCODING 10099
SWIDTH 1000 0
DWIDTH 16 0
BBX 16 16 0 -2
BITMAP
0000
0000
0000
0000
0000
0000
0000
0000
0000
0000
0000
0000
0000
0000
0000
0000
ENDCHAR
STARTCHAR 0x2774
ENCODING 10100
SWIDTH 1000 0
DWIDTH 16 0
BBX 16 16 0 -2
BITMAP
0000
0000
0000
0000
0000
0000
0000
0000
0000
0000
0000
0000
0000
0000
0000
0000
ENDCHAR
STARTCHAR 0x2775
ENCODING 10101
SWIDTH 1000 0
DWIDTH 16 0
BBX 16 16 0 -2
BITMAP
0000
0000
0000
0000
0000
0000
0000
0000
0000
0000
0000
0000
0000
0000
0000
0000
ENDCHAR
STARTCHAR 0x2776
ENCODING 10102
SWIDTH 1000 0
DWIDTH 16 0
BBX 16 16 0 -2
BITMAP
0000
0000
0000
0000
0000
0000
0000
0000
0000
0000
0000
0000
0000
0000
0000
0000
ENDCHAR
STARTCHAR 0x2777
ENCODING 10103
SWIDTH 1000 0
DWIDTH 16 0
BBX 16 16 0 -2
BITMAP
0000
0000
0000
0000
0000
0000
0000
0000
0000
0000
0000
0000
0000
0000
0000
0000
ENDCHAR
STARTCHAR 0x2778
ENCODING 10104
SWIDTH 1000 0
DWIDTH 16 0
BBX 16 16 0 -2
BITMAP
0000
0000
0000
0000
0000
0000
0000
0000
0000
0000
0000
0000
0000
0000
0000
0000
ENDCHAR
STARTCHAR 0x2779
ENCODING 10105
SWIDTH 1000 0
DWIDTH 16 0
BBX 16 16 0 -2
BITMAP
0000
0000
0000
0000
0000
0000
0000
0000
0000
0000
0000
0000
0000
0000
0000
0000
ENDCHAR
STARTCHAR 0x277a
ENCODING 10106
SWIDTH 1000 0
DWIDTH 16 0
BBX 16 16 0 -2
BITMAP
0000
0000
0000
0000
0000
0000
0000
0000
0000
0000
0000
0000
0000
0000
0000
0000
ENDCHAR
STARTCHAR 0x277b
ENCODING 10107
SWIDTH 1000 0
DWIDTH 16 0
BBX 16 16 0 -2
BITMAP
0000
0000
0000
0000
0000
0000
0000
0000
0000
0000
0000
0000
0000
0000
0000
0000
ENDCHAR
STARTCHAR 0x277c
ENCODING 10108
SWIDTH 1000 0
DWIDTH 16 0
BBX 16 16 0 -2
BITMAP
0000
0000
0000
0000
0000
0000
0000
0000
0000
0000
0000
0000
0000
0000
0000
0000
ENDCHAR
STARTCHAR 0x277d
ENCODING 10109
SWIDTH 1000 0
DWIDTH 16 0
BBX 16 16 0 -2
BITMAP
0000
0000
0000
0000
0000
0000
0000
0000
0000
0000
0000
0000
0000
0000
0000
0000
ENDCHAR
STARTCHAR 0x277e
ENCODING 10110
SWIDTH 1000 0
DWIDTH 16 0
BBX 16 16 0 -2
BITMAP
0000
0000
0000
0000
0000
0000
0000
0000
0000
0000
0000
0000
0000
0000
0000
0000
ENDCHAR
STARTCHAR 0x2821
ENCODING 10273
SWIDTH 1000 0
DWIDTH 16 0
BBX 16 16 0 -2
BITMAP
0000
0000
07e0
0000
0000
0760
0ce0
0c60
0c60
0c60
0c60
0ce0
0770
0000
0000
0000
ENDCHAR
STARTCHAR 0x2822
ENCODING 10274
SWIDTH 1000 0
DWIDTH 16 0
BBX 16 16 0 -2
BITMAP
0000
00c0
0180
0300
0000
0760
0ce0
0c60
0c60
0c60
0c60
0ce0
0770
0000
0000
0000
ENDCHAR
STARTCHAR 0x2823
ENCODING 10275
SWIDTH 1000 0
DWIDTH 16 0
BBX 16 16 0 -2
BITMAP
0000
0660
03c0
0180
0000
0760
0ce0
0c60
0c60
0c60
0c60
0ce0
0770
0000
0000
0000
ENDCHAR
STARTCHAR 0x2824
ENCODING 10276
SWIDTH 1000 0
DWIDTH 16 0
BBX 16 16 0 -2
BITMAP
0000
0300
0180
00c0
0000
0760
0ce0
0c60
0c60
0c60
0c60
0ce0
0770
0000
0000
0000
ENDCHAR
STARTCHAR 0x2825
ENCODING 10277
SWIDTH 1000 0
DWIDTH 16 0
BBX 16 16 0 -2
BITMAP
0000
0000
07e0
0000
0000
03c0
0660
0c30
0ff0
0c00
0c00
0630
03e0
0000
0000
0000
ENDCHAR
STARTCHAR 0x2826
ENCODING 10278
SWIDTH 1000 0
DWIDTH 16 0
BBX 16 16 0 -2
BITMAP
0000
00c0
0180
0300
0000
03c0
0660
0c30
0ff0
0c00
0c00
0630
03e0
0000
0000
0000
ENDCHAR
STARTCHAR 0x2827
ENCODING 10279
SWIDTH 1000 0
DWIDTH 16 0
BBX 16 16 0 -2
BITMAP
0000
0660
03c0
0180
0000
03c0
0660
0c30
0ff0
0c00
0c00
0630
03e0
0000
0000
0000
ENDCHAR
STARTCHAR 0x2828
ENCODING 10280
SWIDTH 1000 0
DWIDTH 16 0
BBX 16 16 0 -2
BITMAP
0000
0300
0180
00c0
0000
03c0
0660
0c30
0ff0
0c00
0c00
0630
03e0
0000
0000
0000
ENDCHAR
STARTCHAR 0x2829
ENCODING 10281
SWIDTH 1000 0
DWIDTH 16 0
BBX 16 16 0 -2
BITMAP
0000
0000
03c0
0000
0180
0180
0180
0180
0180
0180
0180
0180
0180
0000
0000
0000
ENDCHAR
STARTCHAR 0x282a
ENCODING 10282
SWIDTH 1000 0
DWIDTH 16 0
BBX 16 16 0 -2
BITMAP
0000
0180
0300
0600
0000
0300
0300
0300
0300
0300
0300
0300
0300
0000
0000
0000
ENDCHAR
STARTCHAR 0x282b
ENCODING 10283
SWIDTH 1000 0
DWIDTH 16 0
BBX 16 16 0 -2
BITMAP
0000
0660
03c0
0180
0000
0180
0180
0180
0180
0180
0180
0180
0180
0000
0000
0000
ENDCHAR
STARTCHAR 0x282c
ENCODING 10284
SWIDTH 1000 0
DWIDTH 16 0
BBX 16 16 0 -2
BITMAP
0000
0300
0180
00c0
0000
0180
0180
0180
0180
0180
0180
0180
0180
0000
0000
0000
ENDCHAR
STARTCHAR 0x282d
ENCODING 10285
SWIDTH 1000 0
DWIDTH 16 0
BBX 16 16 0 -2
BITMAP
0000
0000
07e0
0000
0000
03c0
0660
0c30
0c30
0c30
0c30
0660
03c0
0000
0000
0000
ENDCHAR
STARTCHAR 0x282e
ENCODING 10286
SWIDTH 1000 0
DWIDTH 16 0
BBX 16 16 0 -2
BITMAP
0000
00c0
0180
0300
0000
03c0
0660
0c30
0c30
0c30
0c30
0660
03c0
0000
0000
0000
ENDCHAR
STARTCHAR 0x282f
ENCODING 10287
SWIDTH 1000 0
DWIDTH 16 0
BBX 16 16 0 -2
BITMAP
0000
0660
03c0
0180
0000
03c0
0660
0c30
0c30
0c30
0c30
0660
03c0
0000
0000
0000
ENDCHAR
STARTCHAR 0x2830
ENCODING 10288
SWIDTH 1000 0
DWIDTH 16 0
BBX 16 16 0 -2
BITMAP
0000
0300
0180
00c0
0000
03c0
0660
0c30
0c30
0c30
0c30
0660
03c0
0000
0000
0000
ENDCHAR
STARTCHAR 0x2831
ENCODING 10289
SWIDTH 1000 0
DWIDTH 16 0
BBX 16 16 0 -2
BITMAP
0000
0000
0ff0
0000
0000
0c30
0c30
0c30
0c30
0c30
0c30
0670
03b8
0000
0000
0000
ENDCHAR
STARTCHAR 0x2832
ENCODING 10290
SWIDTH 1000 0
DWIDTH 16 0
BBX 16 16 0 -2
BITMAP
0000
00c0
0180
0300
0000
0c30
0c30
0c30
0c30
0c30
0c30
0670
03b8
0000
0000
0000
ENDCHAR
STARTCHAR 0x2833
ENCODING 10291
SWIDTH 1000 0
DWIDTH 16 0
BBX 16 16 0 -2
BITMAP
0000
0660
03c0
0180
0000
0c30
0c30
0c30
0c30
0c30
0c30
0670
03b8
0000
0000
0000
ENDCHAR
STARTCHAR 0x2834
ENCODING 10292
SWIDTH 1000 0
DWIDTH 16 0
BBX 16 16 0 -2
BITMAP
0000
0300
0180
00c0
0000
0c30
0c30
0c30
0c30
0c30
0c30
0670
03b8
0000
0000
0000
ENDCHAR
STARTCHAR 0x2835
ENCODING 10293
SWIDTH 1000 0
DWIDTH 16 0
BBX 16 16 0 -2
BITMAP
0000
0ff0
0000
0240
0000
0c30
0c30
0c30
0c30
0c30
0c30
0670
03b8
0000
0000
0000
ENDCHAR
STARTCHAR 0x2836
ENCODING 10294
SWIDTH 1000 0
DWIDTH 16 0
BBX 16 16 0 -2
BITMAP
00c0
0180
0300
0000
0240
0c30
0c30
0c30
0c30
0c30
0c30
0670
03b8
0000
0000
0000
ENDCHAR
STARTCHAR 0x2837
ENCODING 10295
SWIDTH 1000 0
DWIDTH 16 0
BBX 16 16 0 -2
BITMAP
0660
03c0
0180
0000
0240
0c30
0c30
0c30
0c30
0c30
0c30
0670
03b8
0000
0000
0000
ENDCHAR
STARTCHAR 0x2838
ENCODING 10296
SWIDTH 1000 0
DWIDTH 16 0
BBX 16 16 0 -2
BITMAP
0300
0180
00c0
0000
0240
0c30
0c30
0c30
0c30
0c30
0c30
0670
03b8
0000
0000
0000
ENDCHAR
STARTCHAR 0x2839
ENCODING 10297
SWIDTH 1000 0
DWIDTH 16 0
BBX 16 16 0 -2
BITMAP
0000
0000
0000
0240
0000
0c30
0c30
0c30
0c30
0c30
0c30
0670
03b8
0000
0000
0000
ENDCHAR
STARTCHAR 0x283a
ENCODING 10298
SWIDTH 1000 0
DWIDTH 16 0
BBX 16 16 0 -2
BITMAP
0000
0180
03c0
0660
0000
03c0
0660
0c30
0ff0
0c00
0c00
0630
03e0
0000
0000
0000
ENDCHAR
STARTCHAR 0x283b
ENCODING 10299
SWIDTH 1000 0
DWIDTH 16 0
BBX 16 16 0 -2
BITMAP
0000
0000
0000
0000
0000
0000
0000
0000
0000
0000
0000
0000
0000
0000
0000
0000
ENDCHAR
STARTCHAR 0x283c
ENCODING 10300
SWIDTH 1000 0
DWIDTH 16 0
BBX 16 16 0 -2
BITMAP
0000
0000
0000
0000
0000
0000
0000
0000
0000
0000
0000
0000
0000
0000
0000
0000
ENDCHAR
STARTCHAR 0x283d
ENCODING 10301
SWIDTH 1000 0
DWIDTH 16 0
BBX 16 16 0 -2
BITMAP
0000
0000
0000
0000
0000
0000
0000
0000
0000
0000
0000
0000
0000
0000
0000
0000
ENDCHAR
STARTCHAR 0x283e
ENCODING 10302
SWIDTH 1000 0
DWIDTH 16 0
BBX 16 16 0 -2
BITMAP
0000
0000
0000
0000
0000
0000
0000
0000
0000
0000
0000
0000
0000
0000
0000
0000
ENDCHAR
STARTCHAR 0x283f
ENCODING 10303
SWIDTH 1000 0
DWIDTH 16 0
BBX 16 16 0 -2
BITMAP
0000
0000
0000
0000
0000
0000
0000
0000
0000
0000
0000
0000
0000
0000
0000
0000
ENDCHAR
STARTCHAR 0x2840
ENCODING 10304
SWIDTH 1000 0
DWIDTH 16 0
BBX 16 16 0 -2
BITMAP
0000
0000
0000
0000
0000
0000
0000
0000
0000
0000
0000
0000
0000
0000
0000
0000
ENDCHAR
STARTCHAR 0x2841
ENCODING 10305
SWIDTH 1000 0
DWIDTH 16 0
BBX 16 16 0 -2
BITMAP
0000
0000
0000
0000
0000
0000
0000
0000
0000
0000
0000
0000
0000
0000
0000
0000
ENDCHAR
STARTCHAR 0x2842
ENCODING 10306
SWIDTH 1000 0
DWIDTH 16 0
BBX 16 16 0 -2
BITMAP
0000
0000
0000
0000
0000
0000
0000
0000
0000
0000
0000
0000
0000
0000
0000
0000
ENDCHAR
STARTCHAR 0x2843
ENCODING 10307
SWIDTH 1000 0
DWIDTH 16 0
BBX 16 16 0 -2
BITMAP
0000
0000
0000
0000
0000
0000
0000
0000
0000
0000
0000
0000
0000
0000
0000
0000
ENDCHAR
STARTCHAR 0x2844
ENCODING 10308
SWIDTH 1000 0
DWIDTH 16 0
BBX 16 16 0 -2
BITMAP
0000
0000
0000
0000
0000
0000
0000
0000
0000
0000
0000
0000
0000
0000
0000
0000
ENDCHAR
STARTCHAR 0x2845
ENCODING 10309
SWIDTH 1000 0
DWIDTH 16 0
BBX 16 16 0 -2
BITMAP
0000
0400
0c00
1800
3ffc
001c
000c
000c
000c
000c
000c
000c
0008
0198
00f0
0060
ENDCHAR
STARTCHAR 0x2846
ENCODING 10310
SWIDTH 1000 0
DWIDTH 16 0
BBX 16 16 0 -2
BITMAP
0000
0200
0600
0c00
1ffc
000c
000c
0018
0198
00f0
0060
00f0
0198
0608
3800
0000
ENDCHAR
STARTCHAR 0x2847
ENCODING 10311
SWIDTH 1000 0
DWIDTH 16 0
BBX 16 16 0 -2
BITMAP
0000
0000
0000
0000
3ffc
300c
300c
300c
300c
300c
300c
300c
0000
0000
0000
0000
ENDCHAR
STARTCHAR 0x2848
ENCODING 10312
SWIDTH 1000 0
DWIDTH 16 0
BBX 16 16 0 -2
BITMAP
0000
0000
3ff8
1800
1800
1800
1800
1800
1800
1800
1800
1800
1800
0ffc
0000
0000
ENDCHAR
STARTCHAR 0x2849
ENCODING 10313
SWIDTH 1000 0
DWIDTH 16 0
BBX 16 16 0 -2
BITMAP
0000
0200
0600
0c00
1ffc
018c
018c
018c
018c
030c
030c
060c
0408
0998
30f0
0060
ENDCHAR
STARTCHAR 0x284a
ENCODING 10314
SWIDTH 1000 0
DWIDTH 16 0
BBX 16 16 0 -2
BITMAP
0000
0100
0180
0180
0180
7ffe
0180
0180
0100
0300
0600
0c10
1ff8
000c
0000
0000
ENDCHAR
STARTCHAR 0x284b
ENCODING 10315
SWIDTH 1000 0
DWIDTH 16 0
BBX 16 16 0 -2
BITMAP
0000
0000
3fe0
0060
00c0
0180
03fc
000c
000c
000c
000c
000c
0008
0198
00f0
0060
ENDCHAR
STARTCHAR 0x284c
ENCODING 10316
SWIDTH 1000 0
DWIDTH 16 0
BBX 16 16 0 -2
BITMAP
0000
0100
0980
0980
1980
1ffc
018c
018c
018c
018c
030c
030c
060c
0c08
1858
3030
ENDCHAR
STARTCHAR 0x284d
ENCODING 10317
SWIDTH 1000 0
DWIDTH 16 0
BBX 16 16 0 -2
BITMAP
0000
0000
0330
0220
0660
0440
0cc0
0880
1980
0880
0cc0
0440
0660
0220
0330
0000
ENDCHAR
STARTCHAR 0x284e
ENCODING 10318
SWIDTH 1000 0
DWIDTH 16 0
BBX 16 16 0 -2
BITMAP
0000
0000
7ffc
0300
0300
0600
0c00
1ff8
0018
0018
0018
0018
0018
0010
00b0
0060
ENDCHAR
STARTCHAR 0x284f
ENCODING 10319
SWIDTH 1000 0
DWIDTH 16 0
BBX 16 16 0 -2
BITMAP
0000
0000
3ffc
1800
1800
1800
1800
1800
1800
1800
1800
1000
1000
2000
c000
0000
ENDCHAR
STARTCHAR 0x2850
ENCODING 10320
SWIDTH 1000 0
DWIDTH 16 0
BBX 16 16 0 -2
BITMAP
0000
0020
0430
0630
0630
0630
0630
0430
0c70
0cb0
0f30
0030
0030
0030
0030
0030
ENDCHAR
STARTCHAR 0x2851
ENCODING 10321
SWIDTH 1000 0
DWIDTH 16 0
BBX 16 16 0 -2
BITMAP
0000
00c0
00c0
0080
0180
0100
0300
0600
0300
0100
0180
0080
00c0
0060
0060
0000
ENDCHAR
STARTCHAR 0x2852
ENCODING 10322
SWIDTH 1000 0
DWIDTH 16 0
BBX 16 16 0 -2
BITMAP
0000
0000
7ffe
0180
0180
0180
0180
0180
0180
0180
0180
0180
0180
0180
0180
0000
ENDCHAR
STARTCHAR 0x2853
ENCODING 10323
SWIDTH 1000 0
DWIDTH 16 0
BBX 16 16 0 -2
BITMAP
0000
0100
0180
1190
1998
1998
1998
1998
1998
1ff8
0180
0180
0180
7ffe
0000
0000
ENDCHAR
STARTCHAR 0x2854
ENCODING 10324
SWIDTH 1000 0
DWIDTH 16 0
BBX 16 16 0 -2
BITMAP
0000
0060
00c0
0180
0300
0660
0cc0
1980
0380
0780
0d80
1980
0180
0180
0180
0180
ENDCHAR
STARTCHAR 0x2855
ENCODING 10325
SWIDTH 1000 0
DWIDTH 16 0
BBX 16 16 0 -2
BITMAP
0000
0000
1ffc
000c
000c
000c
1ffc
1800
1800
1800
1800
1800
1000
3000
2000
c000
ENDCHAR
STARTCHAR 0x2856
ENCODING 10326
SWIDTH 1000 0
DWIDTH 16 0
BBX 16 16 0 -2
BITMAP
0000
0000
0ff0
0c30
0c30
0c30
0f30
0db0
0cf0
0c30
0c30
0c30
0c30
0ff0
0000
0000
ENDCHAR
STARTCHAR 0x2857
ENCODING 10327
SWIDTH 1000 0
DWIDTH 16 0
BBX 16 16 0 -2
BITMAP
0000
0000
3ff8
0618
0618
0618
0618
0618
0610
06b0
0660
0600
0600
0600
0600
0600
ENDCHAR
STARTCHAR 0x2858
ENCODING 10328
SWIDTH 1000 0
DWIDTH 16 0
BBX 16 16 0 -2
BITMAP
0000
0200
0300
0300
7ffc
0600
0600
0600
0ff8
0018
0018
0010
0030
0020
0340
0180
ENDCHAR
STARTCHAR 0x2859
ENCODING 10329
SWIDTH 1000 0
DWIDTH 16 0
BBX 16 16 0 -2
BITMAP
0000
0100
0180
0180
0180
0180
0100
0300
0200
0600
0c60
1830
3ff8
000c
0000
0000
ENDCHAR
STARTCHAR 0x285a
ENCODING 10330
SWIDTH 1000 0
DWIDTH 16 0
BBX 16 16 0 -2
BITMAP
0000
180c
0c18
0630
0360
00c0
0180
0180
0180
0180
0180
0180
0180
0180
0180
0180
ENDCHAR
STARTCHAR 0x285b
ENCODING 10331
SWIDTH 1000 0
DWIDTH 16 0
BBX 16 16 0 -2
BITMAP
0000
0000
7ffe
0180
0180
0180
0f00
1800
3000
3000
3000
300c
1818
0ff0
0000
0000
ENDCHAR
STARTCHAR 0x285c
ENCODING 10332
SWIDTH 1000 0
DWIDTH 16 0
BBX 16 16 0 -2
BITMAP
0000
0100
0180
0180
7ffe
0180
0180
0f00
1800
3000
3000
3000
300c
1818
0ff0
0000
ENDCHAR
STARTCHAR 0x285d
ENCODING 10333
SWIDTH 1000 0
DWIDTH 16 0
BBX 16 16 0 -2
BITMAP
0000
0000
0840
0c60
0c60
7ffc
0c60
0c60
0c60
0cc0
0cc0
0d80
0c00
07f0
0000
0000
ENDCHAR
STARTCHAR 0x285e
ENCODING 10334
SWIDTH 1000 0
DWIDTH 16 0
BBX 16 16 0 -2
BITMAP
0000
0000
7ffe
0d80
0d80
1980
1ffc
018c
018c
018c
010c
030c
0608
0c18
1830
0000
ENDCHAR
STARTCHAR 0x285f
ENCODING 10335
SWIDTH 1000 0
DWIDTH 16 0
BBX 16 16 0 -2
BITMAP
0000
0000
3e00
0600
0600
0600
0200
0300
0300
0100
0180
00c0
0060
0030
001c
0000
ENDCHAR
STARTCHAR 0x2860
ENCODING 10336
SWIDTH 1000 0
DWIDTH 16 0
BBX 16 16 0 -2
BITMAP
0000
0200
0300
0620
0630
0c20
0860
1fc0
0180
0300
0660
0c30
1ff8
0008
0000
0000
ENDCHAR
STARTCHAR 0x2861
ENCODING 10337
SWIDTH 1000 0
DWIDTH 16 0
BBX 16 16 0 -2
BITMAP
0000
0000
0000
1ff8
0018
0030
0430
0260
01e0
00c0
00c0
01e0
0330
0600
0c00
0000
ENDCHAR
STARTCHAR 0x2862
ENCODING 10338
SWIDTH 1000 0
DWIDTH 16 0
BBX 16 16 0 -2
BITMAP
0000
3ff0
0c30
0c30
0c30
0820
1860
1ffc
000c
000c
000c
0008
0018
0030
0060
0000
ENDCHAR
STARTCHAR 0x2863
ENCODING 10339
SWIDTH 1000 0
DWIDTH 16 0
BBX 16 16 0 -2
BITMAP
0000
0800
0c00
0c00
0c00
0800
1800
1800
1ffc
000c
000c
000c
0008
0018
0030
0000
ENDCHAR
STARTCHAR 0x2864
ENCODING 10340
SWIDTH 1000 0
DWIDTH 16 0
BBX 16 16 0 -2
BITMAP
0000
0200
0300
0300
0300
7ffc
03c0
02c0
06c0
06c0
04c0
0cc0
0cc0
18c0
707c
0000
ENDCHAR
STARTCHAR 0x2865
ENCODING 10341
SWIDTH 1000 0
DWIDTH 16 0
BBX 16 16 0 -2
BITMAP
0000
0000
0100
0100
0100
0300
0300
0200
0600
0c00
1800
3000
3ff8
0000
0000
0000
ENDCHAR
STARTCHAR 0x2866
ENCODING 10342
SWIDTH 1000 0
DWIDTH 16 0
BBX 16 16 0 -2
BITMAP
0000
0000
0480
06c0
06c0
06c0
06c0
06c0
06c0
06c0
06c0
04c0
0cc4
18c6
707e
0000
ENDCHAR
STARTCHAR 0x2867
ENCODING 10343
SWIDTH 1000 0
DWIDTH 16 0
BBX 16 16 0 -2
BITMAP
0000
0100
0180
0180
0180
0180
0180
0180
0180
0180
0180
0180
0180
0180
0180
0180
ENDCHAR
STARTCHAR 0x2868
ENCODING 10344
SWIDTH 1000 0
DWIDTH 16 0
BBX 16 16 0 -2
BITMAP
0000
0010
0018
0018
0c10
0630
0320
01e0
00c0
00c0
01e0
0330
0618
0c00
7000
0000
ENDCHAR
STARTCHAR 0x2869
ENCODING 10345
SWIDTH 1000 0
DWIDTH 16 0
BBX 16 16 0 -2
BITMAP
0000
0000
0000
0008
100c
180c
180c
180c
180c
300c
303c
3fcc
000c
0000
0000
0000
ENDCHAR
STARTCHAR 0x286a
ENCODING 10346
SWIDTH 1000 0
DWIDTH 16 0
BBX 16 16 0 -2
BITMAP
0000
0000
0000
0000
0000
0000
0000
0000
0000
0000
0000
0000
0000
0000
0000
0000
ENDCHAR
STARTCHAR 0x286b
ENCODING 10347
SWIDTH 1000 0
DWIDTH 16 0
BBX 16 16 0 -2
BITMAP
0000
0000
0000
0000
0000
0000
0000
0000
0000
0000
0000
0000
0000
0000
0000
0000
ENDCHAR
STARTCHAR 0x286c
ENCODING 10348
SWIDTH 1000 0
DWIDTH 16 0
BBX 16 16 0 -2
BITMAP
0000
0000
0000
0000
0000
0000
0000
0000
0000
0000
0000
0000
0000
0000
0000
0000
ENDCHAR
STARTCHAR 0x286d
ENCODING 10349
SWIDTH 1000 0
DWIDTH 16 0
BBX 16 16 0 -2
BITMAP
0000
0000
0000
0000
0000
0000
0000
0000
0000
0000
0000
0000
0000
0000
0000
0000
ENDCHAR
STARTCHAR 0x286e
ENCODING 10350
SWIDTH 1000 0
DWIDTH 16 0
BBX 16 16 0 -2
BITMAP
0000
0000
0000
0000
0000
0000
0000
0000
0000
0000
0000
0000
0000
0000
0000
0000
ENDCHAR
STARTCHAR 0x286f
ENCODING 10351
SWIDTH 1000 0
DWIDTH 16 0
BBX 16 16 0 -2
BITMAP
0000
0000
0000
0000
0000
0000
0000
0000
0000
0000
0000
0000
0000
0000
0000
0000
ENDCHAR
STARTCHAR 0x2870
ENCODING 10352
SWIDTH 1000 0
DWIDTH 16 0
BBX 16 16 0 -2
BITMAP
0000
0000
0000
0000
0000
0000
0000
0000
0000
0000
0000
0000
0000
0000
0000
0000
ENDCHAR
STARTCHAR 0x2871
ENCODING 10353
SWIDTH 1000 0
DWIDTH 16 0
BBX 16 16 0 -2
BITMAP
0000
0000
0000
0000
0000
0000
0000
0000
0000
0000
0000
0000
0000
0000
0000
0000
ENDCHAR
STARTCHAR 0x2872
ENCODING 10354
SWIDTH 1000 0
DWIDTH 16 0
BBX 16 16 0 -2
BITMAP
0000
0000
0000
0000
0000
0000
0000
0000
0000
0000
0000
0000
0000
0000
0000
0000
ENDCHAR
STARTCHAR 0x2873
ENCODING 10355
SWIDTH 1000 0
DWIDTH 16 0
BBX 16 16 0 -2
BITMAP
0000
0000
0000
0000
0000
0000
0000
0000
0000
0000
0000
0000
0000
0000
0000
0000
ENDCHAR
STARTCHAR 0x2874
ENCODING 10356
SWIDTH 1000 0
DWIDTH 16 0
BBX 16 16 0 -2
BITMAP
0000
0000
0000
0000
0000
0000
0000
0000
0000
0000
0000
0000
0000
0000
0000
0000
ENDCHAR
STARTCHAR 0x2875
ENCODING 10357
SWIDTH 1000 0
DWIDTH 16 0
BBX 16 16 0 -2
BITMAP
0000
0000
0000
0000
0000
0000
0000
0000
0000
0000
0000
0000
0000
0000
0000
0000
ENDCHAR
STARTCHAR 0x2876
ENCODING 10358
SWIDTH 1000 0
DWIDTH 16 0
BBX 16 16 0 -2
BITMAP
0000
0000
0000
0000
0000
0000
0000
0000
0000
0000
0000
0000
0000
0000
0000
0000
ENDCHAR
STARTCHAR 0x2877
ENCODING 10359
SWIDTH 1000 0
DWIDTH 16 0
BBX 16 16 0 -2
BITMAP
0000
0000
0000
0000
0000
0000
0000
0000
0000
0000
0000
0000
0000
0000
0000
0000
ENDCHAR
STARTCHAR 0x2878
ENCODING 10360
SWIDTH 1000 0
DWIDTH 16 0
BBX 16 16 0 -2
BITMAP
0000
0000
0000
0000
0000
0000
0000
0000
0000
0000
0000
0000
0000
0000
0000
0000
ENDCHAR
STARTCHAR 0x2879
ENCODING 10361
SWIDTH 1000 0
DWIDTH 16 0
BBX 16 16 0 -2
BITMAP
0000
0000
0000
0000
0000
0000
0000
0000
0000
0000
0000
0000
0000
0000
0000
0000
ENDCHAR
STARTCHAR 0x287a
ENCODING 10362
SWIDTH 1000 0
DWIDTH 16 0
BBX 16 16 0 -2
BITMAP
0000
0000
0000
0000
0000
0000
0000
0000
0000
0000
0000
0000
0000
0000
0000
0000
ENDCHAR
STARTCHAR 0x287b
ENCODING 10363
SWIDTH 1000 0
DWIDTH 16 0
BBX 16 16 0 -2
BITMAP
0000
0000
0000
0000
0000
0000
0000
0000
0000
0000
0000
0000
0000
0000
0000
0000
ENDCHAR
STARTCHAR 0x287c
ENCODING 10364
SWIDTH 1000 0
DWIDTH 16 0
BBX 16 16 0 -2
BITMAP
0000
0000
0000
0000
0000
0000
0000
0000
0000
0000
0000
0000
0000
0000
0000
0000
ENDCHAR
STARTCHAR 0x287d
ENCODING 10365
SWIDTH 1000 0
DWIDTH 16 0
BBX 16 16 0 -2
BITMAP
0000
0000
0000
0000
0000
0000
0000
0000
0000
0000
0000
0000
0000
0000
0000
0000
ENDCHAR
STARTCHAR 0x287e
ENCODING 10366
SWIDTH 1000 0
DWIDTH 16 0
BBX 16 16 0 -2
BITMAP
0000
0000
0000
0000
0000
0000
0000
0000
0000
0000
0000
0000
0000
0000
0000
0000
ENDCHAR
STARTCHAR 0x2921
ENCODING 10529
SWIDTH 1000 0
DWIDTH 16 0
BBX 16 16 0 -2
BITMAP
0000
0000
0000
0000
0000
0000
0000
0000
0000
0000
0000
0000
0000
0000
0000
0000
ENDCHAR
STARTCHAR 0x2922
ENCODING 10530
SWIDTH 1000 0
DWIDTH 16 0
BBX 16 16 0 -2
BITMAP
0000
0000
0000
0000
0000
0000
0000
0000
0000
0000
0000
0000
0000
0000
0000
0000
ENDCHAR
STARTCHAR 0x2923
ENCODING 10531
SWIDTH 1000 0
DWIDTH 16 0
BBX 16 16 0 -2
BITMAP
0000
0000
0000
0000
0000
0000
0000
0000
0000
0000
0000
0000
0000
0000
0000
0000
ENDCHAR
STARTCHAR 0x2924
ENCODING 10532
SWIDTH 1000 0
DWIDTH 16 0
BBX 16 16 0 -2
BITMAP
0000
0000
0000
0000
0000
0000
0000
ffff
0000
0000
0000
0000
0000
0000
0000
0000
ENDCHAR
STARTCHAR 0x2925
ENCODING 10533
SWIDTH 1000 0
DWIDTH 16 0
BBX 16 16 0 -2
BITMAP
0000
0000
0000
0000
0000
0000
0000
ffff
ffff
0000
0000
0000
0000
0000
0000
0000
ENDCHAR
STARTCHAR 0x2926
ENCODING 10534
SWIDTH 1000 0
DWIDTH 16 0
BBX 16 16 0 -2
BITMAP
0100
0100
0100
0100
0100
0100
0100
0100
0100
0100
0100
0100
0100
0100
0100
0100
ENDCHAR
STARTCHAR 0x2927
ENCODING 10535
SWIDTH 1000 0
DWIDTH 16 0
BBX 16 16 0 -2
BITMAP
0180
0180
0180
0180
0180
0180
0180
0180
0180
0180
0180
0180
0180
0180
0180
0180
ENDCHAR
STARTCHAR 0x2928
ENCODING 10536
SWIDTH 1000 0
DWIDTH 16 0
BBX 16 16 0 -2
BITMAP
0000
0000
0000
0000
0000
0000
0000
739c
0000
0000
0000
0000
0000
0000
0000
0000
ENDCHAR
STARTCHAR 0x2929
ENCODING 10537
SWIDTH 1000 0
DWIDTH 16 0
BBX 16 16 0 -2
BITMAP
0000
0000
0000
0000
0000
0000
0000
739c
739c
0000
0000
0000
0000
0000
0000
0000
ENDCHAR
STARTCHAR 0x292a
ENCODING 10538
SWIDTH 1000 0
DWIDTH 16 0
BBX 16 16 0 -2
BITMAP
0000
0100
0100
0100
0000
0000
0100
0100
0100
0000
0000
0100
0100
0100
0000
0000
ENDCHAR
STARTCHAR 0x292b
ENCODING 10539
SWIDTH 1000 0
DWIDTH 16 0
BBX 16 16 0 -2
BITMAP
0000
0180
0180
0180
0000
0000
0180
0180
0180
0000
0000
0180
0180
0180
0000
0000
ENDCHAR
STARTCHAR 0x292c
ENCODING 10540
SWIDTH 1000 0
DWIDTH 16 0
BBX 16 16 0 -2
BITMAP
0000
0000
0000
0000
0000
0000
0000
eeee
0000
0000
0000
0000
0000
0000
0000
0000
ENDCHAR
STARTCHAR 0x292d
ENCODING 10541
SWIDTH 1000 0
DWIDTH 16 0
BBX 16 16 0 -2
BITMAP
0000
0000
0000
0000
0000
0000
0000
eeee
eeee
0000
0000
0000
0000
0000
0000
0000
ENDCHAR
STARTCHAR 0x292e
ENCODING 10542
SWIDTH 1000 0
DWIDTH 16 0
BBX 16 16 0 -2
BITMAP
0100
0100
0100
0000
0100
0100
0100
0000
0100
0100
0100
0000
0100
0100
0100
0000
ENDCHAR
STARTCHAR 0x292f
ENCODING 10543
SWIDTH 1000 0
DWIDTH 16 0
BBX 16 16 0 -2
BITMAP
0180
0180
0180
0000
0180
0180
0180
0000
0180
0180
0180
0000
0180
0180
0180
0000
ENDCHAR
STARTCHAR 0x2930
ENCODING 10544
SWIDTH 1000 0
DWIDTH 16 0
BBX 16 16 0 -2
BITMAP
0000
0000
0000
0000
0000
0000
0000
01ff
0100
0100
0100
0100
0100
0100
0100
0100
ENDCHAR
STARTCHAR 0x2931
ENCODING 10545
SWIDTH 1000 0
DWIDTH 16 0
BBX 16 16 0 -2
BITMAP
0000
0000
0000
0000
0000
0000
0000
01ff
01ff
0100
0100
0100
0100
0100
0100
0100
ENDCHAR
STARTCHAR 0x2932
ENCODING 10546
SWIDTH 1000 0
DWIDTH 16 0
BBX 16 16 0 -2
BITMAP
0000
0000
0000
0000
0000
0000
0000
01ff
0180
0180
0180
0180
0180
0180
0180
0180
ENDCHAR
STARTCHAR 0x2933
ENCODING 10547
SWIDTH 1000 0
DWIDTH 16 0
BBX 16 16 0 -2
BITMAP
0000
0000
0000
0000
0000
0000
0000
01ff
01ff
0180
0180
0180
0180
0180
0180
0180
ENDCHAR
STARTCHAR 0x2934
ENCODING 10548
SWIDTH 1000 0
DWIDTH 16 0
BBX 16 16 0 -2
BITMAP
0000
0000
0000
0000
0000
0000
0000
ff00
0100
0100
0100
0100
0100
0100
0100
0100
ENDCHAR
STARTCHAR 0x2935
ENCODING 10549
SWIDTH 1000 0
DWIDTH 16 0
BBX 16 16 0 -2
BITMAP
0000
0000
0000
0000
0000
0000
0000
ff00
ff00
0100
0100
0100
0100
0100
0100
0100
ENDCHAR
STARTCHAR 0x2936
ENCODING 10550
SWIDTH 1000 0
DWIDTH 16 0
BBX 16 16 0 -2
BITMAP
0000
0000
0000
0000
0000
0000
0000
ff80
0180
0180
0180
0180
0180
0180
0180
0180
ENDCHAR
STARTCHAR 0x2937
ENCODING 10551
SWIDTH 1000 0
DWIDTH 16 0
BBX 16 16 0 -2
BITMAP
0000
0000
0000
0000
0000
0000
0000
ff80
ff80
0180
0180
0180
0180
0180
0180
0180
ENDCHAR
STARTCHAR 0x2938
ENCODING 10552
SWIDTH 1000 0
DWIDTH 16 0
BBX 16 16 0 -2
BITMAP
0100
0100
0100
0100
0100
0100
0100
01ff
0000
0000
0000
0000
0000
0000
0000
0000
ENDCHAR
STARTCHAR 0x2939
ENCODING 10553
SWIDTH 1000 0
DWIDTH 16 0
BBX 16 16 0 -2
BITMAP
0100
0100
0100
0100
0100
0100
0100
01ff
01ff
0000
0000
0000
0000
0000
0000
0000
ENDCHAR
STARTCHAR 0x293a
ENCODING 10554
SWIDTH 1000 0
DWIDTH 16 0
BBX 16 16 0 -2
BITMAP
0300
0300
0300
0300
0300
0300
0300
03ff
0000
0000
0000
0000
0000
0000
0000
0000
ENDCHAR
STARTCHAR 0x293b
ENCODING 10555
SWIDTH 1000 0
DWIDTH 16 0
BBX 16 16 0 -2
BITMAP
0180
0180
0180
0180
0180
0180
0180
01ff
01ff
0000
0000
0000
0000
0000
0000
0000
ENDCHAR
STARTCHAR 0x293c
ENCODING 10556
SWIDTH 1000 0
DWIDTH 16 0
BBX 16 16 0 -2
BITMAP
0100
0100
0100
0100
0100
0100
0100
ff00
0000
0000
0000
0000
0000
0000
0000
0000
ENDCHAR
STARTCHAR 0x293d
ENCODING 10557
SWIDTH 1000 0
DWIDTH 16 0
BBX 16 16 0 -2
BITMAP
0100
0100
0100
0100
0100
0100
0100
ff00
ff00
0000
0000
0000
0000
0000
0000
0000
ENDCHAR
STARTCHAR 0x293e
ENCODING 10558
SWIDTH 1000 0
DWIDTH 16 0
BBX 16 16 0 -2
BITMAP
0180
0180
0180
0180
0180
0180
0180
ff80
0000
0000
0000
0000
0000
0000
0000
0000
ENDCHAR
STARTCHAR 0x293f
ENCODING 10559
SWIDTH 1000 0
DWIDTH 16 0
BBX 16 16 0 -2
BITMAP
0180
0180
0180
0180
0180
0180
0180
ff80
ff80
0000
0000
0000
0000
0000
0000
0000
ENDCHAR
STARTCHAR 0x2940
ENCODING 10560
SWIDTH 1000 0
DWIDTH 16 0
BBX 16 16 0 -2
BITMAP
0100
0100
0100
0100
0100
0100
0100
01ff
0100
0100
0100
0100
0100
0100
0100
0100
ENDCHAR
STARTCHAR 0x2941
ENCODING 10561
SWIDTH 1000 0
DWIDTH 16 0
BBX 16 16 0 -2
BITMAP
0100
0100
0100
0100
0100
0100
0100
01ff
01ff
0100
0100
0100
0100
0100
0100
0100
ENDCHAR
STARTCHAR 0x2942
ENCODING 10562
SWIDTH 1000 0
DWIDTH 16 0
BBX 16 16 0 -2
BITMAP
0180
0180
0180
0180
0180
0180
0180
01ff
0100
0100
0100
0100
0100
0100
0100
0100
ENDCHAR
STARTCHAR 0x2943
ENCODING 10563
SWIDTH 1000 0
DWIDTH 16 0
BBX 16 16 0 -2
BITMAP
0100
0100
0100
0100
0100
0100
0100
01ff
0180
0180
0180
0180
0180
0180
0180
0180
ENDCHAR
STARTCHAR 0x2944
ENCODING 10564
SWIDTH 1000 0
DWIDTH 16 0
BBX 16 16 0 -2
BITMAP
0180
0180
0180
0180
0180
0180
0180
01ff
0180
0180
0180
0180
0180
0180
0180
0180
ENDCHAR
STARTCHAR 0x2945
ENCODING 10565
SWIDTH 1000 0
DWIDTH 16 0
BBX 16 16 0 -2
BITMAP
0180
0180
0180
0180
0180
0180
0180
01ff
01ff
0100
0100
0100
0100
0100
0100
0100
ENDCHAR
STARTCHAR 0x2946
ENCODING 10566
SWIDTH 1000 0
DWIDTH 16 0
BBX 16 16 0 -2
BITMAP
0100
0100
0100
0100
0100
0100
0100
01ff
01ff
0180
0180
0180
0180
0180
0180
0180
ENDCHAR
STARTCHAR 0x2947
ENCODING 10567
SWIDTH 1000 0
DWIDTH 16 0
BBX 16 16 0 -2
BITMAP
0180
0180
0180
0180
0180
0180
0180
01ff
01ff
0180
0180
0180
0180
0180
0180
0180
ENDCHAR
STARTCHAR 0x2948
ENCODING 10568
SWIDTH 1000 0
DWIDTH 16 0
BBX 16 16 0 -2
BITMAP
0100
0100
0100
0100
0100
0100
0100
ff00
0100
0100
0100
0100
0100
0100
0100
0100
ENDCHAR
STARTCHAR 0x2949
ENCODING 10569
SWIDTH 1000 0
DWIDTH 16 0
BBX 16 16 0 -2
BITMAP
0100
0100
0100
0100
0100
0100
0100
ff00
ff00
0100
0100
0100
0100
0100
0100
0100
ENDCHAR
STARTCHAR 0x294a
ENCODING 10570
SWIDTH 1000 0
DWIDTH 16 0
BBX 16 16 0 -2
BITMAP
0180
0180
0180
0180
0180
0180
0180
ff80
0100
0100
0100
0100
0100
0100
0100
0100
ENDCHAR
STARTCHAR 0x294b
ENCODING 10571
SWIDTH 1000 0
DWIDTH 16 0
BBX 16 16 0 -2
BITMAP
0100
0100
0100
0100
0100
0100
0100
ff80
0180
0180
0180
0180
0180
0180
0180
0180
ENDCHAR
STARTCHAR 0x294c
ENCODING 10572
SWIDTH 1000 0
DWIDTH 16 0
BBX 16 16 0 -2
BITMAP
0180
0180
0180
0180
0180
0180
0180
ff80
0180
0180
0180
0180
0180
0180
0180
0180
ENDCHAR
STARTCHAR 0x294d
ENCODING 10573
SWIDTH 1000 0
DWIDTH 16 0
BBX 16 16 0 -2
BITMAP
0180
0180
0180
0180
0180
0180
0180
ff80
ff80
0100
0100
0100
0100
0100
0100
0100
ENDCHAR
STARTCHAR 0x294e
ENCODING 10574
SWIDTH 1000 0
DWIDTH 16 0
BBX 16 16 0 -2
BITMAP
0100
0100
0100
0100
0100
0100
0100
ff80
ff80
0180
0180
0180
0180
0180
0180
0180
ENDCHAR
STARTCHAR 0x294f
ENCODING 10575
SWIDTH 1000 0
DWIDTH 16 0
BBX 16 16 0 -2
BITMAP
0180
0180
0180
0180
0180
0180
0180
ff80
ff80
0180
0180
0180
0180
0180
0180
0180
ENDCHAR
STARTCHAR 0x2950
ENCODING 10576
SWIDTH 1000 0
DWIDTH 16 0
BBX 16 16 0 -2
BITMAP
0000
0000
0000
0000
0000
0000
0000
ffff
0100
0100
0100
0100
0100
0100
0100
0100
ENDCHAR
STARTCHAR 0x2951
ENCODING 10577
SWIDTH 1000 0
DWIDTH 16 0
BBX 16 16 0 -2
BITMAP
0000
0000
0000
0000
0000
0000
0000
ffff
ff00
0100
0100
0100
0100
0100
0100
0100
ENDCHAR
STARTCHAR 0x2952
ENCODING 10578
SWIDTH 1000 0
DWIDTH 16 0
BBX 16 16 0 -2
BITMAP
0000
0000
0000
0000
0000
0000
0000
ffff
01ff
0100
0100
0100
0100
0100
0100
0100
ENDCHAR
STARTCHAR 0x2953
ENCODING 10579
SWIDTH 1000 0
DWIDTH 16 0
BBX 16 16 0 -2
BITMAP
0000
0000
0000
0000
0000
0000
0000
ffff
ffff
0100
0100
0100
0100
0100
0100
0100
ENDCHAR
STARTCHAR 0x2954
ENCODING 10580
SWIDTH 1000 0
DWIDTH 16 0
BBX 16 16 0 -2
BITMAP
0000
0000
0000
0000
0000
0000
0000
ffff
0300
0300
0300
0300
0300
0300
0300
0300
ENDCHAR
STARTCHAR 0x2955
ENCODING 10581
SWIDTH 1000 0
DWIDTH 16 0
BBX 16 16 0 -2
BITMAP
0000
0000
0000
0000
0000
0000
0000
ffff
ff00
0300
0300
0300
0300
0300
0300
0300
ENDCHAR
STARTCHAR 0x2956
ENCODING 10582
SWIDTH 1000 0
DWIDTH 16 0
BBX 16 16 0 -2
BITMAP
0000
0000
0000
0000
0000
0000
0000
ffff
01ff
0180
0180
0180
0180
0180
0180
0180
ENDCHAR
STARTCHAR 0x2957
ENCODING 10583
SWIDTH 1000 0
DWIDTH 16 0
BBX 16 16 0 -2
BITMAP
0000
0000
0000
0000
0000
0000
0000
ffff
ffff
0180
0180
0180
0180
0180
0180
0180
ENDCHAR
STARTCHAR 0x2958
ENCODING 10584
SWIDTH 1000 0
DWIDTH 16 0
BBX 16 16 0 -2
BITMAP
0100
0100
0100
0100
0100
0100
0100
ffff
0000
0000
0000
0000
0000
0000
0000
0000
ENDCHAR
STARTCHAR 0x2959
ENCODING 10585
SWIDTH 1000 0
DWIDTH 16 0
BBX 16 16 0 -2
BITMAP
0100
0100
0100
0100
0100
0100
0100
ffff
ff00
0000
0000
0000
0000
0000
0000
0000
ENDCHAR
STARTCHAR 0x295a
ENCODING 10586
SWIDTH 1000 0
DWIDTH 16 0
BBX 16 16 0 -2
BITMAP
0100
0100
0100
0100
0100
0100
0100
ffff
01ff
0000
0000
0000
0000
0000
0000
0000
ENDCHAR
STARTCHAR 0x295b
ENCODING 10587
SWIDTH 1000 0
DWIDTH 16 0
BBX 16 16 0 -2
BITMAP
0100
0100
0100
0100
0100
0100
0100
ffff
ffff
0000
0000
0000
0000
0000
0000
0000
ENDCHAR
STARTCHAR 0x295c
ENCODING 10588
SWIDTH 1000 0
DWIDTH 16 0
BBX 16 16 0 -2
BITMAP
0180
0180
0180
0180
0180
0180
0180
ffff
0000
0000
0000
0000
0000
0000
0000
0000
ENDCHAR
STARTCHAR 0x295d
ENCODING 10589
SWIDTH 1000 0
DWIDTH 16 0
BBX 16 16 0 -2
BITMAP
0180
0180
0180
0180
0180
0180
0180
ffff
ff80
0000
0000
0000
0000
0000
0000
0000
ENDCHAR
STARTCHAR 0x295e
ENCODING 10590
SWIDTH 1000 0
DWIDTH 16 0
BBX 16 16 0 -2
BITMAP
0180
0180
0180
0180
0180
0180
0180
ffff
01ff
0000
0000
0000
0000
0000
0000
0000
ENDCHAR
STARTCHAR 0x295f
ENCODING 10591
SWIDTH 1000 0
DWIDTH 16 0
BBX 16 16 0 -2
BITMAP
0180
0180
0180
0180
0180
0180
0180
ffff
ffff
0000
0000
0000
0000
0000
0000
0000
ENDCHAR
STARTCHAR 0x2960
ENCODING 10592
SWIDTH 1000 0
DWIDTH 16 0
BBX 16 16 0 -2
BITMAP
0100
0100
0100
0100
0100
0100
0100
ffff
0100
0100
0100
0100
0100
0100
0100
0100
ENDCHAR
STARTCHAR 0x2961
ENCODING 10593
SWIDTH 1000 0
DWIDTH 16 0
BBX 16 16 0 -2
BITMAP
0100
0100
0100
0100
0100
0100
0100
ffff
ff00
0100
0100
0100
0100
0100
0100
0100
ENDCHAR
STARTCHAR 0x2962
ENCODING 10594
SWIDTH 1000 0
DWIDTH 16 0
BBX 16 16 0 -2
BITMAP
0100
0100
0100
0100
0100
0100
0100
ffff
01ff
0100
0100
0100
0100
0100
0100
0100
ENDCHAR
STARTCHAR 0x2963
ENCODING 10595
SWIDTH 1000 0
DWIDTH 16 0
BBX 16 16 0 -2
BITMAP
0100
0100
0100
0100
0100
0100
0100
ffff
ffff
0100
0100
0100
0100
0100
0100
0100
ENDCHAR
STARTCHAR 0x2964
ENCODING 10596
SWIDTH 1000 0
DWIDTH 16 0
BBX 16 16 0 -2
BITMAP
0180
0180
0180
0180
0180
0180
0180
ffff
0100
0100
0100
0100
0100
0100
0100
0100
ENDCHAR
STARTCHAR 0x2965
ENCODING 10597
SWIDTH 1000 0
DWIDTH 16 0
BBX 16 16 0 -2
BITMAP
0100
0100
0100
0100
0100
0100
0100
ffff
0180
0180
0180
0180
0180
0180
0180
0180
ENDCHAR
STARTCHAR 0x2966
ENCODING 10598
SWIDTH 1000 0
DWIDTH 16 0
BBX 16 16 0 -2
BITMAP
0180
0180
0180
0180
0180
0180
0180
ffff
0180
0180
0180
0180
0180
0180
0180
0180
ENDCHAR
STARTCHAR 0x2967
ENCODING 10599
SWIDTH 1000 0
DWIDTH 16 0
BBX 16 16 0 -2
BITMAP
0180
0180
0180
0180
0180
0180
0180
ffff
ff80
0100
0100
0100
0100
0100
0100
0100
ENDCHAR
STARTCHAR 0x2968
ENCODING 10600
SWIDTH 1000 0
DWIDTH 16 0
BBX 16 16 0 -2
BITMAP
0180
0180
0180
0180
0180
0180
0180
ffff
01ff
0100
0100
0100
0100
0100
0100
0100
ENDCHAR
STARTCHAR 0x2969
ENCODING 10601
SWIDTH 1000 0
DWIDTH 16 0
BBX 16 16 0 -2
BITMAP
0100
0100
0100
0100
0100
0100
0100
ffff
ff80
0180
0180
0180
0180
0180
0180
0180
ENDCHAR
STARTCHAR 0x296a
ENCODING 10602
SWIDTH 1000 0
DWIDTH 16 0
BBX 16 16 0 -2
BITMAP
0100
0100
0100
0100
0100
0100
0100
ffff
01ff
0180
0180
0180
0180
0180
0180
0180
ENDCHAR
STARTCHAR 0x296b
ENCODING 10603
SWIDTH 1000 0
DWIDTH 16 0
BBX 16 16 0 -2
BITMAP
0180
0180
0180
0180
0180
0180
0180
ffff
ffff
0100
0100
0100
0100
0100
0100
0100
ENDCHAR
STARTCHAR 0x296c
ENCODING 10604
SWIDTH 1000 0
DWIDTH 16 0
BBX 16 16 0 -2
BITMAP
0100
0100
0100
0100
0100
0100
0100
ffff
ffff
0180
0180
0180
0180
0180
0180
0180
ENDCHAR
STARTCHAR 0x296d
ENCODING 10605
SWIDTH 1000 0
DWIDTH 16 0
BBX 16 16 0 -2
BITMAP
0000
0300
0300
0300
0300
0300
0300
7ffc
7f00
0300
0300
0300
0300
0300
0300
0000
ENDCHAR
STARTCHAR 0x296e
ENCODING 10606
SWIDTH 1000 0
DWIDTH 16 0
BBX 16 16 0 -2
BITMAP
0180
0180
0180
0180
0180
0180
0180
ffff
01ff
0180
0180
0180
0180
0180
0180
0180
ENDCHAR
STARTCHAR 0x296f
ENCODING 10607
SWIDTH 1000 0
DWIDTH 16 0
BBX 16 16 0 -2
BITMAP
0180
0180
0180
0180
0180
0180
0180
ffff
ffff
0180
0180
0180
0180
0180
0180
0180
ENDCHAR
STARTCHAR 0x2970
ENCODING 10608
SWIDTH 1000 0
DWIDTH 16 0
BBX 16 16 0 -2
BITMAP
0000
0000
0000
0000
0000
0000
0000
0000
0000
0000
0000
0000
0000
0000
0000
0000
ENDCHAR
STARTCHAR 0x2971
ENCODING 10609
SWIDTH 1000 0
DWIDTH 16 0
BBX 16 16 0 -2
BITMAP
0000
0000
0000
0000
0000
0000
0000
0000
0000
0000
0000
0000
0000
0000
0000
0000
ENDCHAR
STARTCHAR 0x2972
ENCODING 10610
SWIDTH 1000 0
DWIDTH 16 0
BBX 16 16 0 -2
BITMAP
0000
0000
0000
0000
0000
0000
0000
0000
0000
0000
0000
0000
0000
0000
0000
0000
ENDCHAR
STARTCHAR 0x2973
ENCODING 10611
SWIDTH 1000 0
DWIDTH 16 0
BBX 16 16 0 -2
BITMAP
0000
0000
0000
0000
0000
0000
0000
0000
0000
0000
0000
0000
0000
0000
0000
0000
ENDCHAR
STARTCHAR 0x2974
ENCODING 10612
SWIDTH 1000 0
DWIDTH 16 0
BBX 16 16 0 -2
BITMAP
0000
0000
0000
0000
0000
0000
0000
0000
0000
0000
0000
0000
0000
0000
0000
0000
ENDCHAR
STARTCHAR 0x2975
ENCODING 10613
SWIDTH 1000 0
DWIDTH 16 0
BBX 16 16 0 -2
BITMAP
0000
0000
0000
0000
0000
0000
0000
0000
0000
0000
0000
0000
0000
0000
0000
0000
ENDCHAR
STARTCHAR 0x2976
ENCODING 10614
SWIDTH 1000 0
DWIDTH 16 0
BBX 16 16 0 -2
BITMAP
0000
0000
0000
0000
0000
0000
0000
0000
0000
0000
0000
0000
0000
0000
0000
0000
ENDCHAR
STARTCHAR 0x2977
ENCODING 10615
SWIDTH 1000 0
DWIDTH 16 0
BBX 16 16 0 -2
BITMAP
0000
0000
0000
0000
0000
0000
0000
0000
0000
0000
0000
0000
0000
0000
0000
0000
ENDCHAR
STARTCHAR 0x2978
ENCODING 10616
SWIDTH 1000 0
DWIDTH 16 0
BBX 16 16 0 -2
BITMAP
0000
0000
0000
0000
0000
0000
0000
0000
0000
0000
0000
0000
0000
0000
0000
0000
ENDCHAR
STARTCHAR 0x2979
ENCODING 10617
SWIDTH 1000 0
DWIDTH 16 0
BBX 16 16 0 -2
BITMAP
0000
0000
0000
0000
0000
0000
0000
0000
0000
0000
0000
0000
0000
0000
0000
0000
ENDCHAR
STARTCHAR 0x297a
ENCODING 10618
SWIDTH 1000 0
DWIDTH 16 0
BBX 16 16 0 -2
BITMAP
0000
0000
0000
0000
0000
0000
0000
0000
0000
0000
0000
0000
0000
0000
0000
0000
ENDCHAR
STARTCHAR 0x297b
ENCODING 10619
SWIDTH 1000 0
DWIDTH 16 0
BBX 16 16 0 -2
BITMAP
0000
0000
0000
0000
0000
0000
0000
0000
0000
0000
0000
0000
0000
0000
0000
0000
ENDCHAR
STARTCHAR 0x297c
ENCODING 10620
SWIDTH 1000 0
DWIDTH 16 0
BBX 16 16 0 -2
BITMAP
0000
0000
0000
0000
0000
0000
0000
0000
0000
0000
0000
0000
0000
0000
0000
0000
ENDCHAR
STARTCHAR 0x297d
ENCODING 10621
SWIDTH 1000 0
DWIDTH 16 0
BBX 16 16 0 -2
BITMAP
0000
0000
0000
0000
0000
0000
0000
0000
0000
0000
0000
0000
0000
0000
0000
0000
ENDCHAR
STARTCHAR 0x297e
ENCODING 10622
SWIDTH 1000 0
DWIDTH 16 0
BBX 16 16 0 -2
BITMAP
0000
0000
0000
0000
0000
0000
0000
0000
0000
0000
0000
0000
0000
0000
0000
0000
ENDCHAR
STARTCHAR 0x3021
ENCODING 12321
SWIDTH 1000 0
DWIDTH 16 0
BBX 16 16 0 -2
BITMAP
0fff
0686
7686
5686
56f6
5756
56d6
56d6
56d6
56f6
5686
7706
5606
0606
061e
0604
ENDCHAR
STARTCHAR 0x3022
ENCODING 12322
SWIDTH 1000 0
DWIDTH 16 0
BBX 16 16 0 -2
BITMAP
4402
7fff
6606
6716
65fe
69b6
79b6
6db6
67b6
67f6
6726
7c06
6806
6026
601e
600c
ENDCHAR
STARTCHAR 0x3023
ENCODING 12323
SWIDTH 1000 0
DWIDTH 16 0
BBX 16 16 0 -2
BITMAP
1030
1868
18cc
19fe
7f44
1860
18fe
19b0
1a32
1bff
1830
1e78
786c
20ce
0187
0602
ENDCHAR
STARTCHAR 0x3024
ENCODING 12324
SWIDTH 1000 0
DWIDTH 16 0
BBX 16 16 0 -2
BITMAP
1830
1868
18cc
19be
7fe4
1860
1ac4
1dfe
1b30
1832
3bff
7830
5878
18ce
3987
1202
ENDCHAR
STARTCHAR 0x3025
ENCODING 12325
SWIDTH 1000 0
DWIDTH 16 0
BBX 16 16 0 -2
BITMAP
00cc
00cc
47ff
7ecc
6ccc
6c48
6d04
6c8e
6ccc
6c5c
6c78
7c30
6c7c
00ce
0187
0202
ENDCHAR
STARTCHAR 0x3026
ENCODING 12326
SWIDTH 1000 0
DWIDTH 16 0
BBX 16 16 0 -2
BITMAP
0030
0068
44cc
7fbe
6de4
6c60
6cc4
6dfe
6f30
6c32
6fff
7c30
6c78
00ce
0187
0202
ENDCHAR
STARTCHAR 0x3027
ENCODING 12327
SWIDTH 1000 0
DWIDTH 16 0
BBX 16 16 0 -2
BITMAP
0300
0184
7ffe
1008
1ffc
1818
1818
1ff8
1354
066e
0f3c
1b38
636e
0327
07c2
0300
ENDCHAR
STARTCHAR 0x3028
ENCODING 12328
SWIDTH 1000 0
DWIDTH 16 0
BBX 16 16 0 -2
BITMAP
0030
11b6
39b6
65b6
7ffe
6d04
6dfe
6c06
7c06
6dfe
6d84
6d80
6d82
7d82
49ff
00fe
ENDCHAR
STARTCHAR 0x3029
ENCODING 12329
SWIDTH 1000 0
DWIDTH 16 0
BBX 16 16 0 -2
BITMAP
00c0
1062
1fff
1904
59fe
798c
39fc
1908
1bde
3a52
7bde
5c64
1666
3666
27fe
4404
ENDCHAR
STARTCHAR 0x302a
ENCODING 12330
SWIDTH 1000 0
DWIDTH 16 0
BBX 16 16 0 -2
BITMAP
0c18
7fff
0c18
0104
31fe
198c
09fc
7d8c
19fc
1969
18ff
19a3
1b5b
1d8b
39f7
2002
ENDCHAR
STARTCHAR 0x302b
ENCODING 12331
SWIDTH 1000 0
DWIDTH 16 0
BBX 16 16 0 -2
BITMAP
1008
18fc
1830
31fe
3e78
2cf4
4cb7
0d32
7f60
0c66
0dff
1c66
1ecc
3338
236f
4186
ENDCHAR
STARTCHAR 0x302c
ENCODING 12332
SWIDTH 1000 0
DWIDTH 16 0
BBX 16 16 0 -2
BITMAP
0630
0632
7fff
0630
0630
0220
0010
0818
0438
0630
0360
01c0
01e0
0778
0c1f
7006
ENDCHAR
STARTCHAR 0x302d
ENCODING 12333
SWIDTH 1000 0
DWIDTH 16 0
BBX 16 16 0 -2
BITMAP
0082
7eff
18c6
18fe
30c6
22fe
3f84
76fe
360c
37ff
368c
366c
3e2c
364c
003c
0018
ENDCHAR
STARTCHAR 0x302e
ENCODING 12334
SWIDTH 1000 0
DWIDTH 16 0
BBX 16 16 0 -2
BITMAP
0018
03fc
1c90
06d8
12b2
3fff
7306
2ffc
0308
07fc
0718
0db0
08e0
11b8
231f
0c06
ENDCHAR
STARTCHAR 0x302f
ENCODING 12335
SWIDTH 1000 0
DWIDTH 16 0
BBX 16 16 0 -2
BITMAP
4508
7ecc
6c58
6ffe
6cd0
6898
718c
6b07
6e02
6c02
6fff
6f56
7b56
6356
6356
67ff
ENDCHAR
STARTCHAR 0x3030
ENCODING 12336
SWIDTH 1000 0
DWIDTH 16 0
BBX 16 16 0 -2
BITMAP
1220
1b10
7f99
1bff
1f83
2db2
3f30
2dff
2d66
3f66
2ccc
0d7c
7fb8
0c6e
0cc7
0902
ENDCHAR
STARTCHAR 0x3031
ENCODING 12337
SWIDTH 1000 0
DWIDTH 16 0
BBX 16 16 0 -2
BITMAP
0c08
0ffc
1800
13f8
2004
5ffe
132c
3ffc
366c
064c
7ffc
0ccc
198c
0f8d
0def
3046
ENDCHAR
STARTCHAR 0x3032
ENCODING 12338
SWIDTH 1000 0
DWIDTH 16 0
BBX 16 16 0 -2
BITMAP
0300
01c0
1082
3fff
7106
2184
0302
7fff
0630
0630
0c60
0760
01c0
0378
0c1e
3004
ENDCHAR
STARTCHAR 0x3033
ENCODING 12339
SWIDTH 1000 0
DWIDTH 16 0
BBX 16 16 0 -2
BITMAP
0420
0630
0dfe
0c70
18cc
1d87
2e22
4d32
0dff
0db6
0dfe
0db6
0dfe
0d31
0c3f
081e
ENDCHAR
STARTCHAR 0x3034
ENCODING 12340
SWIDTH 1000 0
DWIDTH 16 0
BBX 16 16 0 -2
BITMAP
1040
1820
1932
1bff
7f46
1a64
1862
1bff
1ccc
38cc
7998
5870
1838
186e
38c7
1302
ENDCHAR
STARTCHAR 0x3035
ENCODING 12341
SWIDTH 1000 0
DWIDTH 16 0
BBX 16 16 0 -2
BITMAP
0020
4430
7ffe
6c88
6ccc
6c58
7fff
6c84
6cfe
6ccc
6ccc
7cfc
48cc
00cc
00fc
0088
ENDCHAR
STARTCHAR 0x3036
ENCODING 12342
SWIDTH 1000 0
DWIDTH 16 0
BBX 16 16 0 -2
BITMAP
0080
10c4
18c6
18c6
1ffe
1008
1ffc
1808
1bfc
1860
1862
1fff
3060
2060
4060
0060
ENDCHAR
STARTCHAR 0x3037
ENCODING 12343
SWIDTH 1000 0
DWIDTH 16 0
BBX 16 16 0 -2
BITMAP
2220
3f10
3699
37ff
3783
3eb2
3630
37ff
3666
3e66
36c4
366c
3618
363e
2e67
4582
ENDCHAR
STARTCHAR 0x3038
ENCODING 12344
SWIDTH 1000 0
DWIDTH 16 0
BBX 16 16 0 -2
BITMAP
0300
2184
7ffe
620c
4308
1ff8
0660
0fc0
06f8
1930
0180
3ffc
0db0
199c
2388
0100
ENDCHAR
STARTCHAR 0x3039
ENCODING 12345
SWIDTH 1000 0
DWIDTH 16 0
BBX 16 16 0 -2
BITMAP
2220
3f10
3618
36ff
3600
3e44
367e
366c
366c
3e6c
366c
366c
366d
366d
2ecf
4506
ENDCHAR
STARTCHAR 0x303a
ENCODING 12346
SWIDTH 1000 0
DWIDTH 16 0
BBX 16 16 0 -2
BITMAP
1ffc
180c
1ffc
180c
1ffc
180c
0380
1e00
70ff
3063
3163
3e63
7c6f
6066
0060
0060
ENDCHAR
STARTCHAR 0x303b
ENCODING 12347
SWIDTH 1000 0
DWIDTH 16 0
BBX 16 16 0 -2
BITMAP
0180
1184
1ffe
198c
198c
7fff
0360
0e38
180f
6006
1ffc
194c
194c
194c
194c
7fff
ENDCHAR
STARTCHAR 0x303c
ENCODING 12348
SWIDTH 1000 0
DWIDTH 16 0
BBX 16 16 0 -2
BITMAP
4242
7f7f
6666
6666
6666
6666
6666
67e6
6006
6006
6006
6006
6006
6006
7ffe
4004
ENDCHAR
STARTCHAR 0x303d
ENCODING 12349
SWIDTH 1000 0
DWIDTH 16 0
BBX 16 16 0 -2
BITMAP
0c10
0c1c
0c18
7fb0
0c3f
3f26
0c66
7fc6
1826
1f36
1b1c
1308
331c
2336
2f27
4642
ENDCHAR
STARTCHAR 0x303e
ENCODING 12350
SWIDTH 1000 0
DWIDTH 16 0
BBX 16 16 0 -2
BITMAP
0808
0d0c
7f98
0c1f
3f36
0c66
7fa6
1934
1f9c
1b1c
3336
2763
5a8a
366e
7337
2222
ENDCHAR
STARTCHAR 0x303f
ENCODING 12351
SWIDTH 1000 0
DWIDTH 16 0
BBX 16 16 0 -2
BITMAP
0e00
1cff
3033
7f33
33bb
3f77
3377
3f33
0c77
7fbb
12bb
6db3
0c33
3f33
0c77
0c22
ENDCHAR
STARTCHAR 0x3040
ENCODING 12352
SWIDTH 1000 0
DWIDTH 16 0
BBX 16 16 0 -2
BITMAP
200c
187e
0df0
7e30
0630
0c32
19ff
3a30
7c30
5a78
1a68
184c
18cc
1886
1907
1a02
ENDCHAR
STARTCHAR 0x3041
ENCODING 12353
SWIDTH 1000 0
DWIDTH 16 0
BBX 16 16 0 -2
BITMAP
0904
0d86
198c
17e8
218f
77da
3193
37e6
3196
318e
31ec
3364
336e
366b
34eb
2851
ENDCHAR
STARTCHAR 0x3042
ENCODING 12354
SWIDTH 1000 0
DWIDTH 16 0
BBX 16 16 0 -2
BITMAP
0180
1304
1ffe
188c
1aac
19cc
1ffc
19cc
1aac
1088
01c2
7fff
01c0
0330
0c1e
300c
ENDCHAR
STARTCHAR 0x3043
ENCODING 12355
SWIDTH 1000 0
DWIDTH 16 0
BBX 16 16 0 -2
BITMAP
3060
32c2
33ff
3326
3bae
7b76
73fe
3376
33ae
3070
37ff
3070
30d8
318e
3307
3402
ENDCHAR
STARTCHAR 0x3044
ENCODING 12356
SWIDTH 1000 0
DWIDTH 16 0
BBX 16 16 0 -2
BITMAP
2060
1ac2
0bff
0326
43ae
3376
13fe
0776
0bae
1870
17ff
7070
30d8
398e
3b07
1402
ENDCHAR
STARTCHAR 0x3045
ENCODING 12357
SWIDTH 1000 0
DWIDTH 16 0
BBX 16 16 0 -2
BITMAP
0c18
0c1a
7fff
0c18
0c18
0004
1ffe
198c
198c
198c
1ffc
1800
1802
1802
1fff
0ffe
ENDCHAR
STARTCHAR 0x3046
ENCODING 12358
SWIDTH 1000 0
DWIDTH 16 0
BBX 16 16 0 -2
BITMAP
33e3
3363
3363
7b6b
336b
33eb
306b
330b
37eb
3b6b
7b6b
7363
3363
3263
74e7
2442
ENDCHAR
STARTCHAR 0x3047
ENCODING 12359
SWIDTH 1000 0
DWIDTH 16 0
BBX 16 16 0 -2
BITMAP
1818
18d8
18d8
18d8
7ed8
18d8
1ad8
1cd8
18d8
1898
398c
798c
5906
1b07
3a03
1402
ENDCHAR
STARTCHAR 0x3048
ENCODING 12360
SWIDTH 1000 0
DWIDTH 16 0
BBX 16 16 0 -2
BITMAP
0018
00d8
44d8
7ed8
6cd8
6cd8
6cd8
6cd8
6cd8
6c98
6d8c
7d8c
6d06
0307
0203
0402
ENDCHAR
STARTCHAR 0x3049
ENCODING 12361
SWIDTH 1000 0
DWIDTH 16 0
BBX 16 16 0 -2
BITMAP
0000
0102
45ff
7fb6
6db6
6db6
6db6
6dfe
6d84
6d80
6d80
7d80
4982
0182
01ff
00fe
ENDCHAR
STARTCHAR 0x304a
ENCODING 12362
SWIDTH 1000 0
DWIDTH 16 0
BBX 16 16 0 -2
BITMAP
0618
0c30
1f7e
36d8
638e
0004
1ffe
198c
198c
198c
1ffc
1800
1802
1802
1fff
0ffe
ENDCHAR
STARTCHAR 0x304b
ENCODING 12363
SWIDTH 1000 0
DWIDTH 16 0
BBX 16 16 0 -2
BITMAP
0040
0460
0660
0660
0660
0660
0660
0660
0630
0c30
0c30
1818
181c
300e
2007
4002
ENDCHAR
STARTCHAR 0x304c
ENCODING 12364
SWIDTH 1000 0
DWIDTH 16 0
BBX 16 16 0 -2
BITMAP
00c0
0062
1fff
1800
5802
3bff
1b26
1b26
1b26
3bfe
5b06
1b00
1302
3302
23ff
41fe
ENDCHAR
STARTCHAR 0x304d
ENCODING 12365
SWIDTH 1000 0
DWIDTH 16 0
BBX 16 16 0 -2
BITMAP
0000
2004
3ffe
318c
318c
318c
318c
318c
3ffc
3008
3000
3002
3002
3003
3fff
1ffe
ENDCHAR
STARTCHAR 0x304e
ENCODING 12366
SWIDTH 1000 0
DWIDTH 16 0
BBX 16 16 0 -2
BITMAP
1024
1832
1833
1830
7eff
1830
1a62
1c7f
1866
18c6
38ec
78dc
5998
19be
3b27
1442
ENDCHAR
STARTCHAR 0x304f
ENCODING 12367
SWIDTH 1000 0
DWIDTH 16 0
BBX 16 16 0 -2
BITMAP
4224
7f32
6633
6630
66ff
7e30
6662
0c7f
6c66
6fc6
6cec
6cdc
6f98
7dbe
6127
0242
ENDCHAR
STARTCHAR 0x3050
ENCODING 12368
SWIDTH 1000 0
DWIDTH 16 0
BBX 16 16 0 -2
BITMAP
1200
1b41
7fff
1b6b
1f6b
2d6b
3feb
2d7f
2d62
3f60
2c60
0d60
7fe1
0c61
0c7f
0c3e
ENDCHAR
STARTCHAR 0x3051
ENCODING 12369
SWIDTH 1000 0
DWIDTH 16 0
BBX 16 16 0 -2
BITMAP
1000
1902
19ff
19b6
7fb6
19b6
19b6
1bb6
1dfe
3984
7980
5980
1982
1982
39ff
10fe
ENDCHAR
STARTCHAR 0x3052
ENCODING 12370
SWIDTH 1000 0
DWIDTH 16 0
BBX 16 16 0 -2
BITMAP
0c00
0c00
7f7f
0c6b
3f6b
0c6b
7f6b
0c7f
1e63
1d60
2d60
2c60
4c62
0c62
0c7f
0c3e
ENDCHAR
STARTCHAR 0x3053
ENCODING 12371
SWIDTH 1000 0
DWIDTH 16 0
BBX 16 16 0 -2
BITMAP
1102
19ff
1986
1986
7fb6
19b6
19b6
19b6
19b6
19b6
19b6
1a30
7c28
3066
00c7
0102
ENDCHAR
STARTCHAR 0x3054
ENCODING 12372
SWIDTH 1000 0
DWIDTH 16 0
BBX 16 16 0 -2
BITMAP
0ff8
2082
7fff
6aab
4596
333f
7fb3
3333
3f3f
0c33
7fb3
6dbf
7fb3
0c33
7fa7
0c42
ENDCHAR
STARTCHAR 0x3055
ENCODING 12373
SWIDTH 1000 0
DWIDTH 16 0
BBX 16 16 0 -2
BITMAP
1002
1fff
1b36
1b36
1b36
1ffe
10c4
00c8
0ffc
00c2
3fff
01a0
0318
060c
1ffe
0c04
ENDCHAR
STARTCHAR 0x3056
ENCODING 12374
SWIDTH 1000 0
DWIDTH 16 0
BBX 16 16 0 -2
BITMAP
0630
0c1c
1b6e
21c4
0370
0e1c
380f
5ffa
1998
1998
1ff8
1810
1804
1804
1ffe
0ffc
ENDCHAR
STARTCHAR 0x3057
ENCODING 12375
SWIDTH 1000 0
DWIDTH 16 0
BBX 16 16 0 -2
BITMAP
0080
01c0
0380
1602
1fff
1806
1806
1806
1ffe
1806
1806
1806
1806
1ffe
1806
1004
ENDCHAR
STARTCHAR 0x3058
ENCODING 12376
SWIDTH 1000 0
DWIDTH 16 0
BBX 16 16 0 -2
BITMAP
0810
0c38
0c70
0cc2
7fff
0cc6
1ec6
1ec6
3dc6
2dfe
6cc6
4cc6
0cc6
0cc6
0cfe
08c6
ENDCHAR
STARTCHAR 0x3059
ENCODING 12377
SWIDTH 1000 0
DWIDTH 16 0
BBX 16 16 0 -2
BITMAP
0002
7fff
0180
0300
0a08
0ffc
0c18
0c18
0c18
0ff8
0c18
0c18
0c18
0c18
0ff8
0810
ENDCHAR
STARTCHAR 0x305a
ENCODING 12378
SWIDTH 1000 0
DWIDTH 16 0
BBX 16 16 0 -2
BITMAP
1983
19ff
19ab
19ab
7fff
1983
1a30
1dfe
1830
1830
3bff
7868
58cc
1986
3bff
1183
ENDCHAR
STARTCHAR 0x305b
ENCODING 12379
SWIDTH 1000 0
DWIDTH 16 0
BBX 16 16 0 -2
BITMAP
0402
0fff
0c60
1840
3082
59ff
1986
1986
1986
19fe
1986
1986
1986
1986
19fe
1986
ENDCHAR
STARTCHAR 0x305c
ENCODING 12380
SWIDTH 1000 0
DWIDTH 16 0
BBX 16 16 0 -2
BITMAP
4110
7f9c
6318
6330
6b3f
6b26
6b66
6b46
6ba6
6b36
6b1c
1c08
1e1c
3336
23a7
4142
ENDCHAR
STARTCHAR 0x305d
ENCODING 12381
SWIDTH 1000 0
DWIDTH 16 0
BBX 16 16 0 -2
BITMAP
0700
1e7e
3018
4c18
0c7e
3f18
0c18
0c7e
0c18
7f18
0cff
0c18
1818
1818
3018
4018
ENDCHAR
STARTCHAR 0x305e
ENCODING 12382
SWIDTH 1000 0
DWIDTH 16 0
BBX 16 16 0 -2
BITMAP
0c30
1e60
78ff
18db
18db
7eff
18db
38db
3cff
3a30
5a6c
588c
19ff
180c
180c
180c
ENDCHAR
STARTCHAR 0x305f
ENCODING 12383
SWIDTH 1000 0
DWIDTH 16 0
BBX 16 16 0 -2
BITMAP
0100
7cbf
18cc
1bec
18cc
18cc
7cff
1acc
1acc
19cc
198c
18cc
1eec
794c
627f
0000
ENDCHAR
STARTCHAR 0x3060
ENCODING 12384
SWIDTH 1000 0
DWIDTH 16 0
BBX 16 16 0 -2
BITMAP
0080
04c2
7eff
18cc
18cc
1acc
1bcc
7fff
1acc
18cc
18cc
1b8c
1d8c
7b0c
267f
0800
ENDCHAR
STARTCHAR 0x3061
ENCODING 12385
SWIDTH 1000 0
DWIDTH 16 0
BBX 16 16 0 -2
BITMAP
1192
191f
1a56
1bf6
7e56
1be7
1ac2
1e7f
1fe6
1a56
3bd4
7acc
5a5c
1a76
3ae3
1442
ENDCHAR
STARTCHAR 0x3062
ENCODING 12386
SWIDTH 1000 0
DWIDTH 16 0
BBX 16 16 0 -2
BITMAP
180c
187e
1980
18c0
7ec2
18ff
1ac6
1cc6
18c6
18c6
39ac
79bc
5918
1b3e
3a67
1482
ENDCHAR
STARTCHAR 0x3063
ENCODING 12387
SWIDTH 1000 0
DWIDTH 16 0
BBX 16 16 0 -2
BITMAP
0844
0c7e
296c
3f6c
3b6d
374f
3386
7fff
3306
3b46
372c
333c
3318
333e
2767
4282
ENDCHAR
STARTCHAR 0x3064
ENCODING 12388
SWIDTH 1000 0
DWIDTH 16 0
BBX 16 16 0 -2
BITMAP
0400
147f
1618
3210
233f
61a1
40ed
002d
3f2d
1b2d
1b2d
1b2d
1b0c
3316
2723
4241
ENDCHAR
STARTCHAR 0x3065
ENCODING 12389
SWIDTH 1000 0
DWIDTH 16 0
BBX 16 16 0 -2
BITMAP
1004
189e
18f0
18c0
7ec2
18ff
38c6
3cc6
3ee6
5aac
599c
1998
193c
1b6e
1a47
1482
ENDCHAR
STARTCHAR 0x3066
ENCODING 12390
SWIDTH 1000 0
DWIDTH 16 0
BBX 16 16 0 -2
BITMAP
0404
269e
36f0
36c0
3ec2
30ff
30c6
3ec6
36e6
36ec
36dc
3798
35bc
236e
2247
4482
ENDCHAR
STARTCHAR 0x3067
ENCODING 12391
SWIDTH 1000 0
DWIDTH 16 0
BBX 16 16 0 -2
BITMAP
1850
1878
18d8
18d8
7ecc
1886
1987
1d02
1bfc
18cc
38cc
78cc
58cc
198c
391c
1208
ENDCHAR
STARTCHAR 0x3068
ENCODING 12392
SWIDTH 1000 0
DWIDTH 16 0
BBX 16 16 0 -2
BITMAP
1820
1932
19b3
18f6
7eb4
1838
19fe
1c30
1830
3830
7830
5bff
1830
1830
3830
1020
ENDCHAR
STARTCHAR 0x3069
ENCODING 12393
SWIDTH 1000 0
DWIDTH 16 0
BBX 16 16 0 -2
BITMAP
0420
0f32
0db3
18f6
30b4
5838
19fe
1830
1830
1830
1830
1bff
1830
1830
1830
1820
ENDCHAR
STARTCHAR 0x306a
ENCODING 12394
SWIDTH 1000 0
DWIDTH 16 0
BBX 16 16 0 -2
BITMAP
20c8
118c
1b06
7e3f
2a28
2aa9
7ea6
1aaf
1aa6
7ea6
1aaf
1aa6
1696
3496
254e
49c6
ENDCHAR
STARTCHAR 0x306b
ENCODING 12395
SWIDTH 1000 0
DWIDTH 16 0
BBX 16 16 0 -2
BITMAP
00c4
10ce
0ccc
0ed8
04d4
1ffe
00c0
00c0
00c0
00c2
3fff
00c0
00c0
00c0
00c0
00c0
ENDCHAR
STARTCHAR 0x306c
ENCODING 12396
SWIDTH 1000 0
DWIDTH 16 0
BBX 16 16 0 -2
BITMAP
0200
0300
0300
0310
3ff8
0330
0330
1338
1334
3636
7633
2632
0c30
1830
30e0
4040
ENDCHAR
STARTCHAR 0x306d
ENCODING 12397
SWIDTH 1000 0
DWIDTH 16 0
BBX 16 16 0 -2
BITMAP
0820
1d32
19b3
30f6
24b4
4e38
7dfe
1830
3030
7c30
6030
03ff
0c30
7830
2030
0020
ENDCHAR
STARTCHAR 0x306e
ENCODING 12398
SWIDTH 1000 0
DWIDTH 16 0
BBX 16 16 0 -2
BITMAP
0802
0c7f
0d36
7fb6
0c36
0d34
3fb8
0c34
0d36
7fb3
0c33
0c33
183e
1834
3030
4030
ENDCHAR
STARTCHAR 0x306f
ENCODING 12399
SWIDTH 1000 0
DWIDTH 16 0
BBX 16 16 0 -2
BITMAP
0622
3fbf
0636
1fb4
0638
7fb6
0c33
183b
30b6
48c4
0ffe
0ccc
0ccc
0cdc
08c8
00c0
ENDCHAR
STARTCHAR 0x3070
ENCODING 12400
SWIDTH 1000 0
DWIDTH 16 0
BBX 16 16 0 -2
BITMAP
1080
18df
18db
19fb
7edb
18da
39fc
3cda
3adb
5bfb
58db
58df
18da
1998
1918
1210
ENDCHAR
STARTCHAR 0x3071
ENCODING 12401
SWIDTH 1000 0
DWIDTH 16 0
BBX 16 16 0 -2
BITMAP
1820
1830
19fe
1884
7ecc
1848
39ff
3d23
3b33
5bfe
5a60
587e
1866
1866
18ce
1984
ENDCHAR
STARTCHAR 0x3072
ENCODING 12402
SWIDTH 1000 0
DWIDTH 16 0
BBX 16 16 0 -2
BITMAP
0020
3e30
37fe
3684
36cc
3e48
37ff
3723
3733
3ffe
3660
367e
3666
3666
2ece
4584
ENDCHAR
STARTCHAR 0x3073
ENCODING 12403
SWIDTH 1000 0
DWIDTH 16 0
BBX 16 16 0 -2
BITMAP
08c0
1cdf
18db
31fb
24db
4eda
7dfc
18da
30db
7dfb
60db
00df
0eda
7998
2118
0218
ENDCHAR
STARTCHAR 0x3074
ENCODING 12404
SWIDTH 1000 0
DWIDTH 16 0
BBX 16 16 0 -2
BITMAP
1020
1834
19fe
1830
7efe
1860
3dff
3ec8
3bac
5b37
5cfe
1830
1832
1bff
1830
1030
ENDCHAR
STARTCHAR 0x3075
ENCODING 12405
SWIDTH 1000 0
DWIDTH 16 0
BBX 16 16 0 -2
BITMAP
0020
7e30
19fe
1884
30cc
2048
3fff
7723
3733
37fe
3660
367e
3e66
3666
00ce
0184
ENDCHAR
STARTCHAR 0x3076
ENCODING 12406
SWIDTH 1000 0
DWIDTH 16 0
BBX 16 16 0 -2
BITMAP
0030
1830
1834
183e
7ef0
5b30
5a30
5bfe
7e30
1830
1831
1bff
1e30
7b30
6230
0030
ENDCHAR
STARTCHAR 0x3077
ENCODING 12407
SWIDTH 1000 0
DWIDTH 16 0
BBX 16 16 0 -2
BITMAP
1020
1c30
19fe
3e84
30cc
214a
7fff
5b23
1932
7ffe
1860
187e
1a66
1c66
38ce
1184
ENDCHAR
STARTCHAR 0x3078
ENCODING 12408
SWIDTH 1000 0
DWIDTH 16 0
BBX 16 16 0 -2
BITMAP
0420
0e30
0dfe
1884
30cc
5848
1bff
1b23
1b33
19fe
1860
187e
1866
1866
18ce
1984
ENDCHAR
STARTCHAR 0x3079
ENCODING 12409
SWIDTH 1000 0
DWIDTH 16 0
BBX 16 16 0 -2
BITMAP
0020
2030
31fe
1884
10cc
0848
7fff
1b23
1b33
19fe
1860
1a7e
1c66
3866
10ce
0184
ENDCHAR
STARTCHAR 0x307a
ENCODING 12410
SWIDTH 1000 0
DWIDTH 16 0
BBX 16 16 0 -2
BITMAP
0630
0632
7fff
0630
0630
0c00
0ffc
180c
2fec
4c6c
0c6c
0ffc
0c6a
0c02
0fff
07fe
ENDCHAR
STARTCHAR 0x307b
ENCODING 12411
SWIDTH 1000 0
DWIDTH 16 0
BBX 16 16 0 -2
BITMAP
0020
2230
3f62
36ff
3686
3716
3efe
36d6
36d6
3ef6
36ce
36c4
36c2
36c2
2eff
447e
ENDCHAR
STARTCHAR 0x307c
ENCODING 12412
SWIDTH 1000 0
DWIDTH 16 0
BBX 16 16 0 -2
BITMAP
0200
0700
0604
0ffe
180c
382c
4ffc
0c6c
0c6c
0fec
0c5c
0c08
0c02
0c02
0fff
07fe
ENDCHAR
STARTCHAR 0x307d
ENCODING 12413
SWIDTH 1000 0
DWIDTH 16 0
BBX 16 16 0 -2
BITMAP
0180
00c2
7fff
0482
0eff
1cc6
3cfe
4c18
0dff
0ede
0b9b
0744
0f3e
1b58
67cf
0306
ENDCHAR
STARTCHAR 0x307e
ENCODING 12414
SWIDTH 1000 0
DWIDTH 16 0
BBX 16 16 0 -2
BITMAP
0043
3fe3
00c3
1fc3
00db
7ffb
061b
469b
36db
179b
0f03
1683
36c3
666b
2e47
0402
ENDCHAR
STARTCHAR 0x3121
ENCODING 12577
SWIDTH 1000 0
DWIDTH 16 0
BBX 16 16 0 -2
BITMAP
0632
7fff
0630
2036
13ff
1932
41ff
31b6
39fe
13b6
07fe
05b6
6c0d
39ff
1ccc
085c
ENDCHAR
STARTCHAR 0x3122
ENCODING 12578
SWIDTH 1000 0
DWIDTH 16 0
BBX 16 16 0 -2
BITMAP
1ff8
2182
7fff
69b6
67e6
7dbe
4d94
0604
0ffe
180c
2fec
4c7c
0fe8
0c04
0ffe
07fc
ENDCHAR
STARTCHAR 0x3123
ENCODING 12579
SWIDTH 1000 0
DWIDTH 16 0
BBX 16 16 0 -2
BITMAP
0904
0dfe
0d8c
198c
118c
39fc
3928
5832
1bff
1878
18fc
18b4
19b6
1933
1a32
1020
ENDCHAR
STARTCHAR 0x3124
ENCODING 12580
SWIDTH 1000 0
DWIDTH 16 0
BBX 16 16 0 -2
BITMAP
0c7e
0e66
0c66
187e
3c18
6cff
0c5c
0cfe
0cdb
0dba
0cd0
00c4
1ffe
00c0
00c2
3fff
ENDCHAR
STARTCHAR 0x3125
ENCODING 12581
SWIDTH 1000 0
DWIDTH 16 0
BBX 16 16 0 -2
BITMAP
0820
0c70
1962
1fff
3286
6506
18f6
18d6
18d6
18f6
18ce
1ac4
1cc0
38c2
10ff
007e
ENDCHAR
STARTCHAR 0x3126
ENCODING 12582
SWIDTH 1000 0
DWIDTH 16 0
BBX 16 16 0 -2
BITMAP
0180
00e0
10c2
3fff
3006
1004
0ffc
00c0
00c0
00c0
0ffc
00e0
00dc
00cc
00c6
1fff
ENDCHAR
STARTCHAR 0x3127
ENCODING 12583
SWIDTH 1000 0
DWIDTH 16 0
BBX 16 16 0 -2
BITMAP
1820
1870
1862
18ff
7e86
1906
1af6
1cd6
18d6
18f6
38ce
78c4
58c0
18c2
38ff
107e
ENDCHAR
STARTCHAR 0x3128
ENCODING 12584
SWIDTH 1000 0
DWIDTH 16 0
BBX 16 16 0 -2
BITMAP
1104
19fe
198c
198c
7f9c
1988
1984
1bfe
1dcc
39cc
79a8
59b0
1998
19ac
39a7
1142
ENDCHAR
STARTCHAR 0x3129
ENCODING 12585
SWIDTH 1000 0
DWIDTH 16 0
BBX 16 16 0 -2
BITMAP
0ff8
0c18
0ff8
0c18
0ff8
0630
3ffe
0630
7fff
06b0
0cdc
36f7
43e2
0edc
05c8
0080
ENDCHAR
STARTCHAR 0x312a
ENCODING 12586
SWIDTH 1000 0
DWIDTH 16 0
BBX 16 16 0 -2
BITMAP
0610
0c18
1a30
3b22
6e7f
1cc6
3686
0f46
1e66
1636
2e26
4e06
1606
2616
4e0e
0404
ENDCHAR
STARTCHAR 0x312b
ENCODING 12587
SWIDTH 1000 0
DWIDTH 16 0
BBX 16 16 0 -2
BITMAP
0c10
0c38
1932
1fff
2166
42c6
3f76
2d56
3f56
2d76
2d4e
3f44
0040
0742
7c7f
303e
ENDCHAR
STARTCHAR 0x312c
ENCODING 12588
SWIDTH 1000 0
DWIDTH 16 0
BBX 16 16 0 -2
BITMAP
01fe
1986
19fe
1986
5ffe
7ccc
79fe
58cc
1bff
18c8
1db4
17fe
267b
24b4
4373
0020
ENDCHAR
STARTCHAR 0x312d
ENCODING 12589
SWIDTH 1000 0
DWIDTH 16 0
BBX 16 16 0 -2
BITMAP
1002
1bff
1820
1838
7e30
1878
3878
3cfc
3ef6
5bb6
5bb3
5933
1a32
1830
1830
1020
ENDCHAR
STARTCHAR 0x312e
ENCODING 12590
SWIDTH 1000 0
DWIDTH 16 0
BBX 16 16 0 -2
BITMAP
0030
0260
7fff
0cdb
18db
10ff
20db
7edb
36ff
3630
366c
368c
3fff
360c
000c
000c
ENDCHAR
STARTCHAR 0x312f
ENCODING 12591
SWIDTH 1000 0
DWIDTH 16 0
BBX 16 16 0 -2
BITMAP
0664
3e7c
0660
1e78
0660
0662
7e7e
0660
0000
0318
168c
36e6
6657
6612
27f8
03f0
ENDCHAR
STARTCHAR 0x3130
ENCODING 12592
SWIDTH 1000 0
DWIDTH 16 0
BBX 16 16 0 -2
BITMAP
0180
0304
0ffe
1ccc
0ccc
0ffc
0ccc
0ccc
0ffc
0240
0760
0c62
3fff
0060
0060
0060
ENDCHAR
STARTCHAR 0x3131
ENCODING 12593
SWIDTH 1000 0
DWIDTH 16 0
BBX 16 16 0 -2
BITMAP
0040
0670
0660
0662
0663
7e66
066c
0678
0670
0660
0660
0660
0e62
7662
267f
063e
ENDCHAR
STARTCHAR 0x3132
ENCODING 12594
SWIDTH 1000 0
DWIDTH 16 0
BBX 16 16 0 -2
BITMAP
0630
7e3f
0630
3e3e
0630
7e3f
06b0
01c4
3ffe
0680
0cc0
1ffc
00c2
7fff
00c0
00c0
ENDCHAR
STARTCHAR 0x3133
ENCODING 12595
SWIDTH 1000 0
DWIDTH 16 0
BBX 16 16 0 -2
BITMAP
0444
066e
3e78
0662
7e7f
243e
0808
0ffc
0c18
0ff8
0c18
0ff8
0c18
0c18
0c38
0810
ENDCHAR
STARTCHAR 0x3134
ENCODING 12596
SWIDTH 1000 0
DWIDTH 16 0
BBX 16 16 0 -2
BITMAP
0804
0ffe
0c0c
0c0c
0ccc
0ccc
0ccc
0ccc
0ccc
0ccc
0ccc
01a0
0318
060e
0c07
1002
ENDCHAR
STARTCHAR 0x3135
ENCODING 12597
SWIDTH 1000 0
DWIDTH 16 0
BBX 16 16 0 -2
BITMAP
1102
1dff
1986
3fa6
31b6
21b6
7db6
59b6
19b6
7fb6
1934
1878
1a6c
1cc6
3987
1202
ENDCHAR
STARTCHAR 0x3136
ENCODING 12598
SWIDTH 1000 0
DWIDTH 16 0
BBX 16 16 0 -2
BITMAP
0860
0c34
0bfe
1908
118c
38d8
3892
5fff
1904
19fe
198c
198c
198c
198c
19fc
1108
ENDCHAR
STARTCHAR 0x3137
ENCODING 12599
SWIDTH 1000 0
DWIDTH 16 0
BBX 16 16 0 -2
BITMAP
0502
47ff
2d86
19a6
19b6
2db6
4fb6
0db6
1db6
3db6
2d34
4c78
0c6c
2cc6
1d87
0a02
ENDCHAR
STARTCHAR 0x3138
ENCODING 12600
SWIDTH 1000 0
DWIDTH 16 0
BBX 16 16 0 -2
BITMAP
0200
0300
0610
0ff8
1a30
2360
01c0
0670
181f
7ffa
1998
1ff8
1998
1998
1ff8
1010
ENDCHAR
STARTCHAR 0x3139
ENCODING 12601
SWIDTH 1000 0
DWIDTH 16 0
BBX 16 16 0 -2
BITMAP
0600
0ff8
1e30
33e0
6770
1c1c
3fff
599a
1ff8
1998
1ff8
0104
16c6
3693
67fa
23f0
ENDCHAR
STARTCHAR 0x313a
ENCODING 12602
SWIDTH 1000 0
DWIDTH 16 0
BBX 16 16 0 -2
BITMAP
0060
1834
19fe
1808
5e8c
7cd8
7852
5bff
1804
18fe
1ccc
16cc
26cc
24cc
40fc
00cc
ENDCHAR
STARTCHAR 0x313b
ENCODING 12603
SWIDTH 1000 0
DWIDTH 16 0
BBX 16 16 0 -2
BITMAP
3020
1830
1532
7fff
0db3
1bb2
1fb4
3dfe
3fc6
5bac
19ac
1918
1b38
1a6c
1cc7
1302
ENDCHAR
STARTCHAR 0x313c
ENCODING 12604
SWIDTH 1000 0
DWIDTH 16 0
BBX 16 16 0 -2
BITMAP
00c0
00c2
3fff
0320
06d8
08cf
33f6
00c0
06da
3fff
0618
0618
0618
0c18
0818
1018
ENDCHAR
STARTCHAR 0x313d
ENCODING 12605
SWIDTH 1000 0
DWIDTH 16 0
BBX 16 16 0 -2
BITMAP
0618
061a
3fff
0618
0618
02d0
00c4
1ffe
01e0
03d0
06d8
0cce
18c7
23f2
00c0
00c0
ENDCHAR
STARTCHAR 0x313e
ENCODING 12606
SWIDTH 1000 0
DWIDTH 16 0
BBX 16 16 0 -2
BITMAP
00c0
00c0
00c0
00c2
3fff
01e0
03f0
03d0
06d8
04c8
0ccc
08c6
13f7
20c2
00c0
00c0
ENDCHAR
STARTCHAR 0x313f
ENCODING 12607
SWIDTH 1000 0
DWIDTH 16 0
BBX 16 16 0 -2
BITMAP
060c
0c18
1fbf
366c
6387
00c2
00c4
1ffe
01e0
03d0
06d8
0cce
18c7
23f2
00c0
00c0
ENDCHAR
STARTCHAR 0x3140
ENCODING 12608
SWIDTH 1000 0
DWIDTH 16 0
BBX 16 16 0 -2
BITMAP
00c0
18c6
18c6
18c6
1ffe
1004
3f3f
3333
3333
3f3f
3333
3333
3f3f
3333
2727
4242
ENDCHAR
STARTCHAR 0x3141
ENCODING 12609
SWIDTH 1000 0
DWIDTH 16 0
BBX 16 16 0 -2
BITMAP
0800
1fff
1b7b
337b
237b
4bff
7f7b
1b7b
337b
23ff
7b7b
637b
0f7b
7b7b
22f7
0452
ENDCHAR
STARTCHAR 0x3142
ENCODING 12610
SWIDTH 1000 0
DWIDTH 16 0
BBX 16 16 0 -2
BITMAP
3fff
01c0
03f0
06d8
18cf
20c6
0ffc
0ccc
0ccc
0ffc
0ccc
0ccc
0ffc
0ccc
189c
2008
ENDCHAR
STARTCHAR 0x3143
ENCODING 12611
SWIDTH 1000 0
DWIDTH 16 0
BBX 16 16 0 -2
BITMAP
7fff
0600
0c04
1ffe
360c
460c
07fc
04c8
02c4
3fee
06f8
0cd8
18cc
30c7
43c2
0080
ENDCHAR
STARTCHAR 0x3144
ENCODING 12612
SWIDTH 1000 0
DWIDTH 16 0
BBX 16 16 0 -2
BITMAP
4430
7fb6
6db6
6db6
6dfe
7e21
7fff
1b7b
1b7b
1fff
5b7b
5b7b
5fff
7b7b
62ff
0452
ENDCHAR
STARTCHAR 0x3145
ENCODING 12613
SWIDTH 1000 0
DWIDTH 16 0
BBX 16 16 0 -2
BITMAP
4104
30ce
3088
01fe
00cc
78cc
18cc
1bff
18cc
18cc
18cc
188c
188c
1d08
77ff
21fe
ENDCHAR
STARTCHAR 0x3146
ENCODING 12614
SWIDTH 1000 0
DWIDTH 16 0
BBX 16 16 0 -2
BITMAP
43fe
3104
31fe
018c
098c
7dfc
1b0a
1bff
1b66
1bfe
1b66
1b66
1bfe
1e04
77ff
21fe
ENDCHAR
STARTCHAR 0x3147
ENCODING 12615
SWIDTH 1000 0
DWIDTH 16 0
BBX 16 16 0 -2
BITMAP
0300
0ff8
0cd8
0e78
0d98
0ff8
1ffc
188c
1ffc
188c
1ffc
0001
7fff
0630
0c30
1830
ENDCHAR
STARTCHAR 0x3148
ENCODING 12616
SWIDTH 1000 0
DWIDTH 16 0
BBX 16 16 0 -2
BITMAP
0040
1070
1c60
1860
1862
1967
1fee
1878
1870
1860
1860
1862
19e2
1f63
7c7f
303e
ENDCHAR
STARTCHAR 0x3149
ENCODING 12617
SWIDTH 1000 0
DWIDTH 16 0
BBX 16 16 0 -2
BITMAP
3f80
31bf
319b
3f9b
061b
7fda
061c
7fda
60db
6edb
6adb
6adb
6ede
60d8
7fd8
60d8
ENDCHAR
STARTCHAR 0x314a
ENCODING 12618
SWIDTH 1000 0
DWIDTH 16 0
BBX 16 16 0 -2
BITMAP
060c
0c99
1fbf
366c
6303
0062
03f0
1f80
0180
1ff8
0180
7ffc
0182
0182
01ff
00fe
ENDCHAR
STARTCHAR 0x314b
ENCODING 12619
SWIDTH 1000 0
DWIDTH 16 0
BBX 16 16 0 -2
BITMAP
0420
0e30
0d32
19ff
35b3
47b2
0db4
19fe
39c6
59ac
19ac
1918
1b38
1a6c
1cc7
1302
ENDCHAR
STARTCHAR 0x314c
ENCODING 12620
SWIDTH 1000 0
DWIDTH 16 0
BBX 16 16 0 -2
BITMAP
0032
3f7f
0c66
0c66
3f7e
0c66
0c66
3f7e
0004
1ffe
0604
0ffe
1e0c
660c
07fc
060c
ENDCHAR
STARTCHAR 0x314d
ENCODING 12621
SWIDTH 1000 0
DWIDTH 16 0
BBX 16 16 0 -2
BITMAP
0630
0632
3fff
0630
0182
1fff
1b36
18c6
1b36
1ffe
0c64
0fee
0c78
0c62
1f7f
0c3e
ENDCHAR
STARTCHAR 0x314e
ENCODING 12622
SWIDTH 1000 0
DWIDTH 16 0
BBX 16 16 0 -2
BITMAP
0630
0632
7fff
0630
0c18
4d98
7f1f
2e36
7fe6
6da6
6d96
6f9c
7f8c
7d9e
6db3
4d42
ENDCHAR
STARTCHAR 0x314f
ENCODING 12623
SWIDTH 1000 0
DWIDTH 16 0
BBX 16 16 0 -2
BITMAP
0870
0c62
0c67
0fec
0c70
0c60
0de2
3e7f
183e
00c0
00c2
3fff
00c0
00c0
00c0
00c0
ENDCHAR
STARTCHAR 0x3150
ENCODING 12624
SWIDTH 1000 0
DWIDTH 16 0
BBX 16 16 0 -2
BITMAP
1864
186e
1f78
1862
7f7f
303e
0004
3ffe
0c60
1f64
336e
7a78
0ee2
0d62
187f
603e
ENDCHAR
STARTCHAR 0x3151
ENCODING 12625
SWIDTH 1000 0
DWIDTH 16 0
BBX 16 16 0 -2
BITMAP
1864
186e
1f78
1860
1962
3e7f
183e
0200
0190
16b8
3632
3663
76d3
271a
0ff8
13f0
ENDCHAR
STARTCHAR 0x3152
ENCODING 12626
SWIDTH 1000 0
DWIDTH 16 0
BBX 16 16 0 -2
BITMAP
0030
01fc
0fe0
38c0
00c0
00c2
1fff
18c6
18c6
18c6
18c6
18c6
18ce
00c4
00c0
00c0
ENDCHAR
STARTCHAR 0x3153
ENCODING 12627
SWIDTH 1000 0
DWIDTH 16 0
BBX 16 16 0 -2
BITMAP
01c0
00e0
1042
1fff
1800
1800
1b18
1b1a
1b1b
1bde
1b1c
1b18
3319
2339
4fdf
060e
ENDCHAR
STARTCHAR 0x3154
ENCODING 12628
SWIDTH 1000 0
DWIDTH 16 0
BBX 16 16 0 -2
BITMAP
00c0
0862
0fff
0c00
4dfe
3db6
1dfe
0db6
1dfe
3db6
6c00
2fff
0ccc
18cc
118c
230c
ENDCHAR
STARTCHAR 0x3155
ENCODING 12629
SWIDTH 1000 0
DWIDTH 16 0
BBX 16 16 0 -2
BITMAP
3800
1c02
69ff
6006
60c6
6ff6
61c6
63c6
62c6
66c6
64c6
68c6
72c6
61d6
608e
6004
ENDCHAR
STARTCHAR 0x3156
ENCODING 12630
SWIDTH 1000 0
DWIDTH 16 0
BBX 16 16 0 -2
BITMAP
0c08
4d0c
6d98
3f11
4ebf
7fe6
6dc6
6da6
6fa6
7f94
7d98
6d8c
6d9c
6d96
6da7
6142
ENDCHAR
STARTCHAR 0x3157
ENCODING 12631
SWIDTH 1000 0
DWIDTH 16 0
BBX 16 16 0 -2
BITMAP
4d8c
6d18
3e10
7fbf
6de6
6fb6
7f9c
7d8e
6d97
6de2
0630
7fff
0630
0630
0c30
1030
ENDCHAR
STARTCHAR 0x3158
ENCODING 12632
SWIDTH 1000 0
DWIDTH 16 0
BBX 16 16 0 -2
BITMAP
0000
0610
0398
01dc
0498
1630
1634
3634
3666
7643
66c3
2782
0708
0e08
1bfc
21f8
ENDCHAR
STARTCHAR 0x3159
ENCODING 12633
SWIDTH 1000 0
DWIDTH 16 0
BBX 16 16 0 -2
BITMAP
1098
1fcc
19ff
19a6
19b6
1f94
197f
180c
188c
1fcc
3cff
3ccc
2ccc
2fcc
4c8c
0008
ENDCHAR
STARTCHAR 0x315a
ENCODING 12634
SWIDTH 1000 0
DWIDTH 16 0
BBX 16 16 0 -2
BITMAP
1f30
1b18
1b7e
1f2c
3a28
38ff
3f18
5b7e
5b18
1f18
10d0
00c4
1ffe
00c0
00c2
3fff
ENDCHAR
STARTCHAR 0x315b
ENCODING 12635
SWIDTH 1000 0
DWIDTH 16 0
BBX 16 16 0 -2
BITMAP
1f18
1b7e
1f24
38ff
3f18
5b7e
5f18
0008
0ffc
0c18
0ff8
0c18
0ff8
0c18
0838
1010
ENDCHAR
STARTCHAR 0x315c
ENCODING 12636
SWIDTH 1000 0
DWIDTH 16 0
BBX 16 16 0 -2
BITMAP
400c
33e6
337f
036a
036a
73e4
331f
3706
37e6
3f6f
3b66
3366
33e6
3800
6fff
27fe
ENDCHAR
STARTCHAR 0x315d
ENCODING 12637
SWIDTH 1000 0
DWIDTH 16 0
BBX 16 16 0 -2
BITMAP
4510
7f9a
6dfb
6d9e
6d9c
69b9
73df
690e
6c20
6c30
6c34
7dfe
6830
6030
6032
63ff
ENDCHAR
STARTCHAR 0x315e
ENCODING 12638
SWIDTH 1000 0
DWIDTH 16 0
BBX 16 16 0 -2
BITMAP
2440
24ff
7ecc
258c
3d3f
1aad
7ebf
5aad
5abf
7e8c
18a8
1898
7e9c
1896
18a7
18c2
ENDCHAR
STARTCHAR 0x315f
ENCODING 12639
SWIDTH 1000 0
DWIDTH 16 0
BBX 16 16 0 -2
BITMAP
2040
1060
1862
13ff
0866
7c66
18c6
18c6
18c6
1986
192c
1a1c
1c08
3600
63ff
21fe
ENDCHAR
STARTCHAR 0x3160
ENCODING 12640
SWIDTH 1000 0
DWIDTH 16 0
BBX 16 16 0 -2
BITMAP
0860
1d32
19ff
3186
2586
4ffe
7d84
1981
31ff
7dab
63ab
03ff
0fab
7bab
25af
0102
ENDCHAR
STARTCHAR 0x3161
ENCODING 12641
SWIDTH 1000 0
DWIDTH 16 0
BBX 16 16 0 -2
BITMAP
000c
7e3e
42f0
5a20
5a18
5a0a
5aff
5a06
5a0c
5a18
1830
1860
14c0
2680
237f
433e
ENDCHAR
STARTCHAR 0x3162
ENCODING 12642
SWIDTH 1000 0
DWIDTH 16 0
BBX 16 16 0 -2
BITMAP
0180
10c2
1fff
1806
1806
1ffe
1800
1801
1fff
3edb
36db
27ff
26db
46db
06df
0602
ENDCHAR
STARTCHAR 0x3163
ENCODING 12643
SWIDTH 1000 0
DWIDTH 16 0
BBX 16 16 0 -2
BITMAP
0802
0dff
0c30
1932
11ff
39b6
39fe
59b6
19fe
1934
18b0
18e0
1870
18d8
198f
1602
ENDCHAR
STARTCHAR 0x3164
ENCODING 12644
SWIDTH 1000 0
DWIDTH 16 0
BBX 16 16 0 -2
BITMAP
0180
00c2
3fff
0b30
1f38
1b36
3333
233a
4ffc
0418
0330
01e0
00c0
01b0
061f
3806
ENDCHAR
STARTCHAR 0x3165
ENCODING 12645
SWIDTH 1000 0
DWIDTH 16 0
BBX 16 16 0 -2
BITMAP
0300
01c0
00c2
7fff
00c0
00c0
00c0
00f0
00dc
00ce
00c4
00c0
00c0
00c0
00c0
00c0
ENDCHAR
STARTCHAR 0x3166
ENCODING 12646
SWIDTH 1000 0
DWIDTH 16 0
BBX 16 16 0 -2
BITMAP
2088
10cc
18c6
7edf
28cb
2aca
7fc4
19df
19c6
7ec6
18df
1886
1086
3106
2106
4206
ENDCHAR
STARTCHAR 0x3167
ENCODING 12647
SWIDTH 1000 0
DWIDTH 16 0
BBX 16 16 0 -2
BITMAP
2108
118c
18c6
7e9f
280b
29ca
7ec4
18df
18c6
7ec6
18df
18c6
10e6
31c6
2086
4006
ENDCHAR
STARTCHAR 0x3168
ENCODING 12648
SWIDTH 1000 0
DWIDTH 16 0
BBX 16 16 0 -2
BITMAP
2008
10cc
18c6
7f9f
298b
2b6a
7fe4
18df
1986
7f06
1bdf
1806
10e6
3786
2206
4006
ENDCHAR
STARTCHAR 0x3169
ENCODING 12649
SWIDTH 1000 0
DWIDTH 16 0
BBX 16 16 0 -2
BITMAP
4060
2232
33ff
2306
1306
7bfe
3302
37ff
3756
37fe
3b56
335e
3204
3800
6fff
27fe
ENDCHAR
STARTCHAR 0x316a
ENCODING 12650
SWIDTH 1000 0
DWIDTH 16 0
BBX 16 16 0 -2
BITMAP
1004
19fe
1800
1800
7e02
1bff
3c30
3eb8
3afc
59f4
59b6
1b33
1a33
1c32
18f0
1020
ENDCHAR
STARTCHAR 0x316b
ENCODING 12651
SWIDTH 1000 0
DWIDTH 16 0
BBX 16 16 0 -2
BITMAP
0602
0787
2606
3fcc
36d8
37a2
3e07
368c
3392
3463
37c6
36cc
36da
24e2
48ff
107e
ENDCHAR
STARTCHAR 0x316c
ENCODING 12652
SWIDTH 1000 0
DWIDTH 16 0
BBX 16 16 0 -2
BITMAP
23ff
3e28
37ff
37ab
37ab
3fff
3602
36fe
3601
3fff
3618
365c
36da
369b
2f3a
4410
ENDCHAR
STARTCHAR 0x316d
ENCODING 12653
SWIDTH 1000 0
DWIDTH 16 0
BBX 16 16 0 -2
BITMAP
0180
0184
3ffe
0180
1ffc
0182
7fff
0384
074e
0e58
1e20
3630
461c
06cf
0f02
0400
ENDCHAR
STARTCHAR 0x316e
ENCODING 12654
SWIDTH 1000 0
DWIDTH 16 0
BBX 16 16 0 -2
BITMAP
6d8c
2d18
7fbf
6de6
6f96
7d8c
6fb7
07e2
0cc4
1ffe
3ccc
4ffc
0ccc
0ffc
0002
7fff
ENDCHAR
STARTCHAR 0x316f
ENCODING 12655
SWIDTH 1000 0
DWIDTH 16 0
BBX 16 16 0 -2
BITMAP
4d8c
6d18
3e10
7fbf
6de6
6fb6
7f9c
7d8e
6d97
6de2
0100
06cc
1666
360f
77fa
23f0
ENDCHAR
STARTCHAR 0x3170
ENCODING 12656
SWIDTH 1000 0
DWIDTH 16 0
BBX 16 16 0 -2
BITMAP
2042
3fe3
30c3
30d3
30db
3fdb
289b
0c5b
7ffb
0cdb
0cd3
18c3
18c3
30c3
238f
4102
ENDCHAR
STARTCHAR 0x3171
ENCODING 12657
SWIDTH 1000 0
DWIDTH 16 0
BBX 16 16 0 -2
BITMAP
1060
1fff
1a64
1bfe
5b0c
3bec
1b7c
1b0c
1bfc
3870
58dc
1bd7
14d8
30f2
20fe
407c
ENDCHAR
STARTCHAR 0x3172
ENCODING 12658
SWIDTH 1000 0
DWIDTH 16 0
BBX 16 16 0 -2
BITMAP
1082
18c7
18c6
18cc
7de8
18d2
38c7
3de6
3dfc
5bd8
5ad2
5cc7
18c6
18cc
18c8
1090
ENDCHAR
STARTCHAR 0x3173
ENCODING 12659
SWIDTH 1000 0
DWIDTH 16 0
BBX 16 16 0 -2
BITMAP
2018
19db
0819
7c1a
0bff
4c98
4cd8
2cd8
2af8
1ad8
12cc
3acc
2edd
2fef
4587
0002
ENDCHAR
STARTCHAR 0x3174
ENCODING 12660
SWIDTH 1000 0
DWIDTH 16 0
BBX 16 16 0 -2
BITMAP
2102
31bf
15cc
0598
45bf
67e9
292d
0dad
176d
556d
39ed
318c
331e
361b
3c33
1042
ENDCHAR
STARTCHAR 0x3175
ENCODING 12661
SWIDTH 1000 0
DWIDTH 16 0
BBX 16 16 0 -2
BITMAP
2060
1232
1fff
0e03
421a
20f0
3184
35fe
058c
0d8c
498d
3fff
3898
31ce
3387
1602
ENDCHAR
STARTCHAR 0x3176
ENCODING 12662
SWIDTH 1000 0
DWIDTH 16 0
BBX 16 16 0 -2
BITMAP
0200
0180
2182
7fff
6066
21f4
0f80
0c10
0ff8
0c30
0c32
7fff
0420
0e1c
1c0e
3004
ENDCHAR
STARTCHAR 0x3177
ENCODING 12663
SWIDTH 1000 0
DWIDTH 16 0
BBX 16 16 0 -2
BITMAP
1860
1932
1bff
1b03
7f1a
18f0
1984
1dfe
198c
198c
398d
7fff
5898
19ce
3b87
1202
ENDCHAR
STARTCHAR 0x3178
ENCODING 12664
SWIDTH 1000 0
DWIDTH 16 0
BBX 16 16 0 -2
BITMAP
0030
08f8
0f80
0c00
0c08
0ffc
0c30
0c30
0c30
0c32
7fff
0420
0e18
0c0c
180e
6004
ENDCHAR
STARTCHAR 0x3179
ENCODING 12665
SWIDTH 1000 0
DWIDTH 16 0
BBX 16 16 0 -2
BITMAP
0040
4060
3062
3967
17ee
01f8
01f0
0b78
0b68
1a6c
366c
7466
3867
3162
10e0
0040
ENDCHAR
STARTCHAR 0x317a
ENCODING 12666
SWIDTH 1000 0
DWIDTH 16 0
BBX 16 16 0 -2
BITMAP
1002
19ff
1830
1830
7f31
19ff
39b3
3db3
3fb3
5bb3
59ab
19cf
19c7
1983
1987
1102
ENDCHAR
STARTCHAR 0x317b
ENCODING 12667
SWIDTH 1000 0
DWIDTH 16 0
BBX 16 16 0 -2
BITMAP
0002
7fff
0180
0180
2182
3fff
3186
3186
31c6
3366
3336
363e
3816
3006
301e
3004
ENDCHAR
STARTCHAR 0x317c
ENCODING 12668
SWIDTH 1000 0
DWIDTH 16 0
BBX 16 16 0 -2
BITMAP
0070
0ffc
00c0
3fff
00c4
0ffe
00cc
3fff
00cc
0ffc
03e0
06d8
0ccc
10c7
20c2
00c0
ENDCHAR
STARTCHAR 0x317d
ENCODING 12669
SWIDTH 1000 0
DWIDTH 16 0
BBX 16 16 0 -2
BITMAP
0904
0cce
1888
1ffe
32cc
64cc
18cc
1bff
18cc
18cc
18cc
1acc
1c8c
398c
110c
0208
ENDCHAR
STARTCHAR 0x317e
ENCODING 12670
SWIDTH 1000 0
DWIDTH 16 0
BBX 16 16 0 -2
BITMAP
0002
19ff
1830
1830
5e31
7dff
79b3
59b3
19b3
19b3
1dab
17cf
27c7
2583
4187
0182
ENDCHAR
STARTCHAR 0x3221
ENCODING 12833
SWIDTH 1000 0
DWIDTH 16 0
BBX 16 16 0 -2
BITMAP
00c0
0862
0fff
4c00
3c02
1fff
0c30
1e31
3fff
6f33
2f3b
1b6f
1bcb
3303
2307
4202
ENDCHAR
STARTCHAR 0x3222
ENCODING 12834
SWIDTH 1000 0
DWIDTH 16 0
BBX 16 16 0 -2
BITMAP
0c18
0730
0264
3ffe
0630
0630
0632
7fff
0630
0630
0630
0630
0430
0c30
0830
1020
ENDCHAR
STARTCHAR 0x3223
ENCODING 12835
SWIDTH 1000 0
DWIDTH 16 0
BBX 16 16 0 -2
BITMAP
0018
0418
7e9a
18ff
18db
18da
7ed8
18fe
18c6
18e6
18f6
1adc
7d98
31be
0127
0242
ENDCHAR
STARTCHAR 0x3224
ENCODING 12836
SWIDTH 1000 0
DWIDTH 16 0
BBX 16 16 0 -2
BITMAP
0630
7fff
0630
0000
2032
13ff
1b33
4b32
2334
37fe
0b86
1b6c
7338
361c
346f
1986
ENDCHAR
STARTCHAR 0x3225
ENCODING 12837
SWIDTH 1000 0
DWIDTH 16 0
BBX 16 16 0 -2
BITMAP
100c
18fe
1830
19b6
7eb4
1bff
1878
1afc
1db7
3b32
7dff
59b6
19fe
19b6
39fe
1104
ENDCHAR
STARTCHAR 0x3226
ENCODING 12838
SWIDTH 1000 0
DWIDTH 16 0
BBX 16 16 0 -2
BITMAP
1824
1932
19b3
19b0
7fff
1930
1a62
1c7f
1866
18c6
38ec
78dc
5998
19be
3927
1242
ENDCHAR
STARTCHAR 0x3227
ENCODING 12839
SWIDTH 1000 0
DWIDTH 16 0
BBX 16 16 0 -2
BITMAP
1030
1c30
1830
3e32
31ff
2070
7c78
58f8
18f4
7eb4
19b6
1933
1aff
1c32
3830
1020
ENDCHAR
STARTCHAR 0x3228
ENCODING 12840
SWIDTH 1000 0
DWIDTH 16 0
BBX 16 16 0 -2
BITMAP
2020
1030
1932
19ff
43b3
25b2
35b4
29fe
09c6
19ac
71ac
3318
3338
326c
34c7
2302
ENDCHAR
STARTCHAR 0x3229
ENCODING 12841
SWIDTH 1000 0
DWIDTH 16 0
BBX 16 16 0 -2
BITMAP
1836
1bff
1830
19fe
7fb6
19fe
19b6
19fe
19b6
1986
180c
1bff
198c
18cc
189c
1808
ENDCHAR
STARTCHAR 0x322a
ENCODING 12842
SWIDTH 1000 0
DWIDTH 16 0
BBX 16 16 0 -2
BITMAP
0c30
0c30
3f30
0c31
2dff
7fb3
6133
1f33
0233
0433
0f23
7c63
0c66
2cd6
1c8e
0904
ENDCHAR
STARTCHAR 0x322b
ENCODING 12843
SWIDTH 1000 0
DWIDTH 16 0
BBX 16 16 0 -2
BITMAP
1836
1bff
1830
19fe
7fb6
19fe
1bb6
1dfe
19b6
1986
380c
7bff
598c
18cc
389c
1008
ENDCHAR
STARTCHAR 0x322c
ENCODING 12844
SWIDTH 1000 0
DWIDTH 16 0
BBX 16 16 0 -2
BITMAP
1010
1c38
1870
3ec2
31ff
20c6
7cc6
58c6
18c6
7efe
18c6
18c6
1ac6
1cc6
38fe
10c6
ENDCHAR
STARTCHAR 0x322d
ENCODING 12845
SWIDTH 1000 0
DWIDTH 16 0
BBX 16 16 0 -2
BITMAP
0810
0d1a
1fbf
366c
6346
20e0
1182
5bff
2186
3586
15fe
0986
1986
7986
31fe
1186
ENDCHAR
STARTCHAR 0x322e
ENCODING 12846
SWIDTH 1000 0
DWIDTH 16 0
BBX 16 16 0 -2
BITMAP
0410
0e38
0c70
18c2
31ff
58c6
18c6
18c6
18c6
18fe
18c6
18c6
18c6
18c6
18fe
18c6
ENDCHAR
STARTCHAR 0x322f
ENCODING 12847
SWIDTH 1000 0
DWIDTH 16 0
BBX 16 16 0 -2
BITMAP
0180
1308
1ffc
1818
1ff8
1818
1ff8
1190
2184
3ffe
318c
318c
318c
319c
0188
0180
ENDCHAR
STARTCHAR 0x3230
ENCODING 12848
SWIDTH 1000 0
DWIDTH 16 0
BBX 16 16 0 -2
BITMAP
0c10
2a38
3f70
36c2
3fff
3ec6
36c6
7fc6
36c6
3efe
3ec6
36c6
36c6
36c6
2efe
44c6
ENDCHAR
STARTCHAR 0x3231
ENCODING 12849
SWIDTH 1000 0
DWIDTH 16 0
BBX 16 16 0 -2
BITMAP
2218
3f19
36ff
3618
365a
3eff
36c2
367f
3606
3e0c
3619
36ff
3618
3658
2e38
4410
ENDCHAR
STARTCHAR 0x3232
ENCODING 12850
SWIDTH 1000 0
DWIDTH 16 0
BBX 16 16 0 -2
BITMAP
4436
7fff
6c30
6dfe
6db6
7dfe
6db6
6dfe
6db6
7d86
6c0c
6fff
6d8c
4ccc
5c9c
4808
ENDCHAR
STARTCHAR 0x3233
ENCODING 12851
SWIDTH 1000 0
DWIDTH 16 0
BBX 16 16 0 -2
BITMAP
2318
3318
17d8
0319
4b7f
6fdb
285b
07fb
10db
119b
31fb
3f9b
7193
21b3
23a7
0142
ENDCHAR
STARTCHAR 0x3234
ENCODING 12852
SWIDTH 1000 0
DWIDTH 16 0
BBX 16 16 0 -2
BITMAP
2010
1038
1c70
0cc2
41ff
20c6
30c6
34c6
04c6
0cfe
48c6
38c6
38c6
30c6
30fe
10c6
ENDCHAR
STARTCHAR 0x3235
ENCODING 12853
SWIDTH 1000 0
DWIDTH 16 0
BBX 16 16 0 -2
BITMAP
0404
7e86
0c6c
6c18
6c3e
6c64
6c82
7e87
0646
066c
062c
0e38
761c
463e
0e67
0482
ENDCHAR
STARTCHAR 0x3236
ENCODING 12854
SWIDTH 1000 0
DWIDTH 16 0
BBX 16 16 0 -2
BITMAP
1030
1836
1832
1bff
7f32
19ff
1bb6
1db6
19fe
39b6
79b6
59fe
19b6
19b6
39be
11b4
ENDCHAR
STARTCHAR 0x3237
ENCODING 12855
SWIDTH 1000 0
DWIDTH 16 0
BBX 16 16 0 -2
BITMAP
0180
0180
0180
0180
0180
0380
01c0
01e0
01b8
019c
018e
0184
0180
0180
0180
0180
ENDCHAR
STARTCHAR 0x3238
ENCODING 12856
SWIDTH 1000 0
DWIDTH 16 0
BBX 16 16 0 -2
BITMAP
0030
0036
4432
7fff
6c30
6dfe
6db6
6db6
6dfe
6db6
6db6
7dfe
6db6
01b6
01be
01b4
ENDCHAR
STARTCHAR 0x3239
ENCODING 12857
SWIDTH 1000 0
DWIDTH 16 0
BBX 16 16 0 -2
BITMAP
1820
0c30
0a30
7f30
0630
0d38
1dbc
1f36
3e37
2db2
4d30
0c30
0c30
0c30
0c30
0820
ENDCHAR
STARTCHAR 0x323a
ENCODING 12858
SWIDTH 1000 0
DWIDTH 16 0
BBX 16 16 0 -2
BITMAP
0030
18a2
18ff
18c6
7efe
18c2
18ff
18c6
18fe
1818
1a1a
7dff
3018
0018
0018
0018
ENDCHAR
STARTCHAR 0x323b
ENCODING 12859
SWIDTH 1000 0
DWIDTH 16 0
BBX 16 16 0 -2
BITMAP
0002
7fff
00c0
00c0
0180
01a0
03f0
06d8
0ccc
18ce
30c7
40c2
00c0
00c0
00c0
00c0
ENDCHAR
STARTCHAR 0x323c
ENCODING 12860
SWIDTH 1000 0
DWIDTH 16 0
BBX 16 16 0 -2
BITMAP
0100
0380
0302
7fff
0600
0cc0
18c4
3ffe
4ccc
0ccc
0ccc
0cdc
0cc8
00c0
00c0
00c0
ENDCHAR
STARTCHAR 0x323d
ENCODING 12861
SWIDTH 1000 0
DWIDTH 16 0
BBX 16 16 0 -2
BITMAP
00c0
00c0
0cc8
0cfc
0cc0
0cc2
7fff
00c0
04c8
0edc
1cf8
30f0
00c0
0300
0c00
3000
ENDCHAR
STARTCHAR 0x323e
ENCODING 12862
SWIDTH 1000 0
DWIDTH 16 0
BBX 16 16 0 -2
BITMAP
0c18
1f3f
66cc
3032
1bff
5132
25ff
35b6
29fe
09b6
11fe
71ac
37ff
318c
30dc
2088
ENDCHAR
STARTCHAR 0x323f
ENCODING 12863
SWIDTH 1000 0
DWIDTH 16 0
BBX 16 16 0 -2
BITMAP
0c00
0622
3fbf
11b6
1936
0a36
7ff4
0038
20b6
3ff3
31b3
31b3
31be
3fb4
2130
0030
ENDCHAR
STARTCHAR 0x3240
ENCODING 12864
SWIDTH 1000 0
DWIDTH 16 0
BBX 16 16 0 -2
BITMAP
3020
3070
3062
33ff
38c0
79b0
7332
37ff
3db6
31b6
31b6
31be
31b4
3030
3030
3030
ENDCHAR
STARTCHAR 0x3241
ENCODING 12865
SWIDTH 1000 0
DWIDTH 16 0
BBX 16 16 0 -2
BITMAP
1830
189a
19ff
1983
7eff
19ba
1bec
1ec6
1983
1b7d
3800
79ff
585c
18de
393b
1010
ENDCHAR
STARTCHAR 0x3242
ENCODING 12866
SWIDTH 1000 0
DWIDTH 16 0
BBX 16 16 0 -2
BITMAP
0430
4632
2dfe
1830
18fc
2e31
4fff
0c82
1cff
1cc6
2cfe
4cc6
0cfe
2cc6
1cce
0884
ENDCHAR
STARTCHAR 0x3243
ENCODING 12867
SWIDTH 1000 0
DWIDTH 16 0
BBX 16 16 0 -2
BITMAP
0668
0666
1fe2
0660
7fff
1860
0c62
7fe7
0e36
1cbc
3f1c
2db9
4cfd
0c8f
1f07
0c03
ENDCHAR
STARTCHAR 0x3244
ENCODING 12868
SWIDTH 1000 0
DWIDTH 16 0
BBX 16 16 0 -2
BITMAP
0810
0c18
0c18
0c1a
7fff
0c18
1e38
1f38
3d78
2c58
4cd8
0c98
0d18
0e18
0c78
0810
ENDCHAR
STARTCHAR 0x3245
ENCODING 12869
SWIDTH 1000 0
DWIDTH 16 0
BBX 16 16 0 -2
BITMAP
0040
0060
0060
0062
3fff
01e0
01e0
0360
0360
0660
0c60
1860
6060
0060
01e0
0040
ENDCHAR
STARTCHAR 0x3246
ENCODING 12870
SWIDTH 1000 0
DWIDTH 16 0
BBX 16 16 0 -2
BITMAP
420c
7f0c
420c
5a0d
5aff
5a0c
5a1c
5a1c
5a3c
5a3c
186c
18cc
150c
262c
231c
4208
ENDCHAR
STARTCHAR 0x3247
ENCODING 12871
SWIDTH 1000 0
DWIDTH 16 0
BBX 16 16 0 -2
BITMAP
001c
44fe
7e22
6d36
6dd4
7c88
6c31
6fff
7c30
6c78
6cfc
7db6
6d37
0232
0030
0020
ENDCHAR
STARTCHAR 0x3248
ENCODING 12872
SWIDTH 1000 0
DWIDTH 16 0
BBX 16 16 0 -2
BITMAP
441c
7efe
6c22
6d36
6dd4
7c88
7c31
19ff
1830
1e78
58fc
59b6
5f37
7a32
6030
0020
ENDCHAR
STARTCHAR 0x3249
ENCODING 12873
SWIDTH 1000 0
DWIDTH 16 0
BBX 16 16 0 -2
BITMAP
0018
01fc
1fc0
0908
0c9c
06f8
0420
00c2
3fff
01e0
03d0
06d8
0cce
18c7
20c2
0080
ENDCHAR
STARTCHAR 0x324a
ENCODING 12874
SWIDTH 1000 0
DWIDTH 16 0
BBX 16 16 0 -2
BITMAP
0382
3f07
0c86
26cc
1598
1132
0607
7fce
0e18
1f32
1fc7
3686
268c
4618
0630
0440
ENDCHAR
STARTCHAR 0x324b
ENCODING 12875
SWIDTH 1000 0
DWIDTH 16 0
BBX 16 16 0 -2
BITMAP
0630
7fff
0630
00e0
03fc
3f08
099c
0cb0
06c0
7fff
01e0
03d8
06ce
18c7
20c2
0080
ENDCHAR
STARTCHAR 0x324c
ENCODING 12876
SWIDTH 1000 0
DWIDTH 16 0
BBX 16 16 0 -2
BITMAP
0630
7fff
0630
0604
0ffe
1b6c
3e38
6c18
3bee
3007
4ffa
04d0
0edc
1cce
31c4
0080
ENDCHAR
STARTCHAR 0x324d
ENCODING 12877
SWIDTH 1000 0
DWIDTH 16 0
BBX 16 16 0 -2
BITMAP
0602
077f
1626
3f1c
76f6
1dc3
3b31
46dc
1fff
669a
0658
07f8
06c6
0678
079e
0e24
ENDCHAR
STARTCHAR 0x324e
ENCODING 12878
SWIDTH 1000 0
DWIDTH 16 0
BBX 16 16 0 -2
BITMAP
0180
0320
0618
0ffc
018a
3fff
0320
0698
0dce
1b27
2672
00c0
0310
0078
01e0
0f00
ENDCHAR
STARTCHAR 0x324f
ENCODING 12879
SWIDTH 1000 0
DWIDTH 16 0
BBX 16 16 0 -2
BITMAP
0030
0ff8
0180
0184
3ffe
0340
0730
0d98
1ffe
3db7
4db2
0ff0
09a0
0190
1ff8
0c18
ENDCHAR
STARTCHAR 0x3250
ENCODING 12880
SWIDTH 1000 0
DWIDTH 16 0
BBX 16 16 0 -2
BITMAP
0024
0232
7f33
1834
1afe
1f30
3332
26ff
5634
1c3e
0c1c
1838
3079
20cd
4307
0002
ENDCHAR
STARTCHAR 0x3251
ENCODING 12881
SWIDTH 1000 0
DWIDTH 16 0
BBX 16 16 0 -2
BITMAP
2102
318f
37f8
31a0
3b31
7fbf
75b6
37f6
31b6
31b6
31f6
37b6
31a6
31a6
3186
2104
ENDCHAR
STARTCHAR 0x3252
ENCODING 12882
SWIDTH 1000 0
DWIDTH 16 0
BBX 16 16 0 -2
BITMAP
1030
1868
18cc
19fe
1c64
3fff
78cc
59a7
1a72
18c8
191c
1870
18c4
190e
1838
11e0
ENDCHAR
STARTCHAR 0x3253
ENCODING 12883
SWIDTH 1000 0
DWIDTH 16 0
BBX 16 16 0 -2
BITMAP
0030
1830
1830
1830
5e30
7c30
79b6
59b6
19b6
19b6
1db6
17b6
27b6
25fe
4186
0000
ENDCHAR
STARTCHAR 0x3254
ENCODING 12884
SWIDTH 1000 0
DWIDTH 16 0
BBX 16 16 0 -2
BITMAP
0630
0634
3ffe
0630
07b0
03c0
0730
0c1c
180f
67f2
0630
0670
0624
0604
07fe
03fc
ENDCHAR
STARTCHAR 0x3255
ENCODING 12885
SWIDTH 1000 0
DWIDTH 16 0
BBX 16 16 0 -2
BITMAP
0c20
2a30
3f70
3678
3ecc
3e86
3703
7ffe
36cc
3ecc
3edc
36c8
36c0
36c2
2eff
447e
ENDCHAR
STARTCHAR 0x3256
ENCODING 12886
SWIDTH 1000 0
DWIDTH 16 0
BBX 16 16 0 -2
BITMAP
0080
01c0
0180
0340
0630
0c18
1c1e
37ff
4632
0630
0630
0670
0624
0604
07fe
03fc
ENDCHAR
STARTCHAR 0x3257
ENCODING 12887
SWIDTH 1000 0
DWIDTH 16 0
BBX 16 16 0 -2
BITMAP
2020
1030
1870
0878
40cc
2186
3103
36fe
04cc
0ccc
48dc
38c8
38c0
30c2
30ff
107e
ENDCHAR
STARTCHAR 0x3258
ENCODING 12888
SWIDTH 1000 0
DWIDTH 16 0
BBX 16 16 0 -2
BITMAP
0630
7fff
0630
081a
2fff
2c18
2dfa
7d5b
0dfb
7d3a
2dfe
2d4c
49fd
5935
1067
2083
ENDCHAR
STARTCHAR 0x3259
ENCODING 12889
SWIDTH 1000 0
DWIDTH 16 0
BBX 16 16 0 -2
BITMAP
10fe
18c6
18c6
18fe
7e00
19ef
1b29
1def
1830
3bff
7878
58fc
19b6
1937
3a32
1030
ENDCHAR
STARTCHAR 0x325a
ENCODING 12890
SWIDTH 1000 0
DWIDTH 16 0
BBX 16 16 0 -2
BITMAP
1818
5a58
5b7e
3d58
1899
7fff
1900
3d7e
3d66
3d66
5966
597e
1964
1b80
1e7f
163e
ENDCHAR
STARTCHAR 0x325b
ENCODING 12891
SWIDTH 1000 0
DWIDTH 16 0
BBX 16 16 0 -2
BITMAP
1050
1852
1bff
1a52
7fff
1b56
3bfe
3f56
3ffe
5b04
59fe
198c
19fc
198c
19fc
1108
ENDCHAR
STARTCHAR 0x325c
ENCODING 12892
SWIDTH 1000 0
DWIDTH 16 0
BBX 16 16 0 -2
BITMAP
0632
7fff
2632
3fff
3636
3ffe
3636
3ffe
2004
1ffe
180c
1ffc
180c
180c
1ffc
180c
ENDCHAR
STARTCHAR 0x325d
ENCODING 12893
SWIDTH 1000 0
DWIDTH 16 0
BBX 16 16 0 -2
BITMAP
0660
0664
7ffe
0660
1668
1ffc
1818
1ff8
1818
1ff8
1190
0184
7ffe
0180
0180
0180
ENDCHAR
STARTCHAR 0x325e
ENCODING 12894
SWIDTH 1000 0
DWIDTH 16 0
BBX 16 16 0 -2
BITMAP
2002
3fff
3000
37e3
3423
3523
35ab
35ab
35ab
35ab
35ab
318b
2343
4363
4637
0822
ENDCHAR
STARTCHAR 0x325f
ENCODING 12895
SWIDTH 1000 0
DWIDTH 16 0
BBX 16 16 0 -2
BITMAP
0810
0d1a
1fbf
366c
4386
3ffe
1184
1ffe
198c
1bdc
13a8
07b0
0d9c
198f
6182
0180
ENDCHAR
STARTCHAR 0x3260
ENCODING 12896
SWIDTH 1000 0
DWIDTH 16 0
BBX 16 16 0 -2
BITMAP
1002
1c23
1ff3
3423
352b
25ab
75ab
35ab
35ab
35ab
35ab
35a3
3343
3663
3437
2822
ENDCHAR
STARTCHAR 0x3261
ENCODING 12897
SWIDTH 1000 0
DWIDTH 16 0
BBX 16 16 0 -2
BITMAP
1144
1f7e
1b6c
1b6c
1b6c
1b6c
1b6c
7fff
1b6c
1b6c
1b6c
1b6c
1b6c
1b6c
175c
2288
ENDCHAR
STARTCHAR 0x3262
ENCODING 12898
SWIDTH 1000 0
DWIDTH 16 0
BBX 16 16 0 -2
BITMAP
2002
3423
17f3
0423
452b
65ab
2dab
0dab
15ab
15ab
75ab
35a3
31c3
3363
3637
2822
ENDCHAR
STARTCHAR 0x3263
ENCODING 12899
SWIDTH 1000 0
DWIDTH 16 0
BBX 16 16 0 -2
BITMAP
1002
1fff
1806
1806
1ffe
1804
1802
1bfe
1801
1fff
18d0
1988
118c
3306
27ff
4202
ENDCHAR
STARTCHAR 0x3264
ENCODING 12900
SWIDTH 1000 0
DWIDTH 16 0
BBX 16 16 0 -2
BITMAP
42c6
7f6c
67ff
6793
67d7
7fbb
67ff
0d82
6cff
6fc6
6cc6
6dfe
6ec6
7cc6
60fe
0084
ENDCHAR
STARTCHAR 0x3265
ENCODING 12901
SWIDTH 1000 0
DWIDTH 16 0
BBX 16 16 0 -2
BITMAP
1004
183e
19f0
1832
7fff
1870
1ab2
1d3f
19b6
39b6
79fe
59b6
19b6
19b6
39fe
1104
ENDCHAR
STARTCHAR 0x3266
ENCODING 12902
SWIDTH 1000 0
DWIDTH 16 0
BBX 16 16 0 -2
BITMAP
0000
0004
0ffe
000c
08cc
046c
0648
0218
0330
01e0
00c0
01e0
0338
061c
0c0f
1006
ENDCHAR
STARTCHAR 0x3267
ENCODING 12903
SWIDTH 1000 0
DWIDTH 16 0
BBX 16 16 0 -2
BITMAP
0630
0632
7fff
0630
0620
0302
7fff
0600
0c30
1c30
3dfc
6c30
0c30
0c32
0dff
0c00
ENDCHAR
STARTCHAR 0x3268
ENCODING 12904
SWIDTH 1000 0
DWIDTH 16 0
BBX 16 16 0 -2
BITMAP
0630
0632
7fff
0630
05a0
0340
0630
0cd8
18ce
37f7
40c2
06f0
0cdc
1ace
11c4
0080
ENDCHAR
STARTCHAR 0x3269
ENCODING 12905
SWIDTH 1000 0
DWIDTH 16 0
BBX 16 16 0 -2
BITMAP
0180
0184
7ffe
03c0
07a0
0db0
199c
3997
4ffa
0c30
0ff0
0c30
0ff0
0820
0004
7ffe
ENDCHAR
STARTCHAR 0x326a
ENCODING 12906
SWIDTH 1000 0
DWIDTH 16 0
BBX 16 16 0 -2
BITMAP
0018
7f19
18ff
183c
307e
225b
3e99
77c2
367f
3666
367e
3666
3e7e
3666
0001
00ff
ENDCHAR
STARTCHAR 0x326b
ENCODING 12907
SWIDTH 1000 0
DWIDTH 16 0
BBX 16 16 0 -2
BITMAP
18cc
18cc
1bff
18cc
7e30
1878
1acc
1db6
1b33
1efd
3830
78f8
59b6
1933
3a72
1020
ENDCHAR
STARTCHAR 0x326c
ENCODING 12908
SWIDTH 1000 0
DWIDTH 16 0
BBX 16 16 0 -2
BITMAP
0180
10c2
3fff
7606
2ffe
1b6c
3e38
6c18
3bee
3007
4ffa
04d0
0edc
1cce
31c4
0080
ENDCHAR
STARTCHAR 0x326d
ENCODING 12909
SWIDTH 1000 0
DWIDTH 16 0
BBX 16 16 0 -2
BITMAP
0240
0720
0630
0c18
181e
37f7
4332
0630
0c70
1820
20c0
18c6
18c6
18c6
1ffe
1004
ENDCHAR
STARTCHAR 0x326e
ENCODING 12910
SWIDTH 1000 0
DWIDTH 16 0
BBX 16 16 0 -2
BITMAP
0618
0334
3ffe
0180
0188
1ffc
0300
0302
7fff
0608
0ffc
0c60
1860
3060
4062
0fff
ENDCHAR
STARTCHAR 0x326f
ENCODING 12911
SWIDTH 1000 0
DWIDTH 16 0
BBX 16 16 0 -2
BITMAP
0060
2132
33ff
1f06
1204
0818
7c7e
19e0
1860
1862
1bff
1a60
1c62
3862
107f
003e
ENDCHAR
STARTCHAR 0x3270
ENCODING 12912
SWIDTH 1000 0
DWIDTH 16 0
BBX 16 16 0 -2
BITMAP
180c
193e
19e0
1980
7f80
1982
1bff
1d98
19b8
199c
399e
7b1b
5a1a
1c18
3818
1010
ENDCHAR
STARTCHAR 0x3271
ENCODING 12913
SWIDTH 1000 0
DWIDTH 16 0
BBX 16 16 0 -2
BITMAP
0660
0664
37ee
3678
3662
37e2
7e7f
30be
00c0
7fff
01e0
03d8
06ce
18c7
20c2
0080
ENDCHAR
STARTCHAR 0x3272
ENCODING 12914
SWIDTH 1000 0
DWIDTH 16 0
BBX 16 16 0 -2
BITMAP
060c
0c0c
1a0c
3b0d
6eff
1c0c
361c
0e1c
1e3c
163c
2e6c
4ecc
170c
262c
4e1c
0408
ENDCHAR
STARTCHAR 0x3273
ENCODING 12915
SWIDTH 1000 0
DWIDTH 16 0
BBX 16 16 0 -2
BITMAP
1868
187c
18ca
19ff
7ed6
18d6
1afe
1c6c
18cd
198f
3a66
7838
5808
1860
383c
1008
ENDCHAR
STARTCHAR 0x3274
ENCODING 12916
SWIDTH 1000 0
DWIDTH 16 0
BBX 16 16 0 -2
BITMAP
1830
1868
18cc
19fe
7e64
19ff
1acc
1da7
1a72
18c8
3b1c
7870
58c4
190e
3838
11e0
ENDCHAR
STARTCHAR 0x3275
ENCODING 12917
SWIDTH 1000 0
DWIDTH 16 0
BBX 16 16 0 -2
BITMAP
0186
18ec
1848
19fe
19b6
7fb6
5bfe
5bb6
5bb6
7ffe
1934
1a31
1fff
7a30
2030
0030
ENDCHAR
STARTCHAR 0x3276
ENCODING 12918
SWIDTH 1000 0
DWIDTH 16 0
BBX 16 16 0 -2
BITMAP
0868
0c7c
18ca
1fff
32d6
64d6
18fe
186c
18cd
198f
1a66
1a38
1c08
3860
103c
0008
ENDCHAR
STARTCHAR 0x3277
ENCODING 12919
SWIDTH 1000 0
DWIDTH 16 0
BBX 16 16 0 -2
BITMAP
0068
207c
30ca
19ff
10d6
08d6
7cfe
186c
18cd
198f
1a66
1a38
1c08
3860
103c
0008
ENDCHAR
STARTCHAR 0x3278
ENCODING 12920
SWIDTH 1000 0
DWIDTH 16 0
BBX 16 16 0 -2
BITMAP
0860
1e32
1bff
3300
23ff
4bdb
7fdb
1bff
33db
23db
7bff
6318
0f7e
7a18
2219
04ff
ENDCHAR
STARTCHAR 0x3279
ENCODING 12921
SWIDTH 1000 0
DWIDTH 16 0
BBX 16 16 0 -2
BITMAP
1020
1c30
1832
3fff
3086
216c
7dff
5980
1980
7f80
1980
1980
1b80
1d00
3900
1200
ENDCHAR
STARTCHAR 0x327a
ENCODING 12922
SWIDTH 1000 0
DWIDTH 16 0
BBX 16 16 0 -2
BITMAP
0300
01c0
0084
3ffe
0410
0738
1262
1fff
1800
1800
1800
1800
3000
3000
2000
4000
ENDCHAR
STARTCHAR 0x327b
ENCODING 12923
SWIDTH 1000 0
DWIDTH 16 0
BBX 16 16 0 -2
BITMAP
3002
1dff
4826
6c36
6666
6ff6
6db6
6ff6
6db6
6ff6
69a6
6186
6ff6
6186
619e
6004
ENDCHAR
STARTCHAR 0x327c
ENCODING 12924
SWIDTH 1000 0
DWIDTH 16 0
BBX 16 16 0 -2
BITMAP
0c00
7f7f
0030
7f22
417f
5d42
5552
5d5a
415a
7f5a
005a
3e5a
2a1c
3e36
0063
7f42
ENDCHAR
STARTCHAR 0x327d
ENCODING 12925
SWIDTH 1000 0
DWIDTH 16 0
BBX 16 16 0 -2
BITMAP
0808
0ffc
0c18
0ff8
0c18
0c18
0ff8
2002
3fff
3006
3006
3ffe
3006
3006
3ffe
2004
ENDCHAR
STARTCHAR 0x327e
ENCODING 12926
SWIDTH 1000 0
DWIDTH 16 0
BBX 16 16 0 -2
BITMAP
0482
46ff
2cc6
18fe
18c6
2cc6
4efe
0d01
1dff
1d83
2d83
4dff
0d83
2d83
1dff
0902
ENDCHAR
STARTCHAR 0x3321
ENCODING 13089
SWIDTH 1000 0
DWIDTH 16 0
BBX 16 16 0 -2
BITMAP
1004
18fe
180c
1818
7e30
1861
19ff
1893
18db
1adb
1db3
7933
2263
04c6
019e
0604
ENDCHAR
STARTCHAR 0x3322
ENCODING 13090
SWIDTH 1000 0
DWIDTH 16 0
BBX 16 16 0 -2
BITMAP
00c0
0cc8
06dc
12d2
3fff
7006
2014
07f8
0000
0002
3fff
01a0
0310
0678
0fdc
0c0c
ENDCHAR
STARTCHAR 0x3323
ENCODING 13091
SWIDTH 1000 0
DWIDTH 16 0
BBX 16 16 0 -2
BITMAP
08c8
06cc
12d2
3fff
7406
27fc
0618
0618
07f8
08c4
0ffe
0ccc
0ccc
0cdc
08c8
00c0
ENDCHAR
STARTCHAR 0x3324
ENCODING 13092
SWIDTH 1000 0
DWIDTH 16 0
BBX 16 16 0 -2
BITMAP
0410
0618
0630
0660
06c0
0702
7fff
0640
0660
0620
0630
0618
062e
06c7
0f02
0400
ENDCHAR
STARTCHAR 0x3325
ENCODING 13093
SWIDTH 1000 0
DWIDTH 16 0
BBX 16 16 0 -2
BITMAP
0430
0f32
0db3
1ab4
37ff
5e03
1c02
19fc
1800
1802
1bff
1860
18c8
198c
1bfe
1b06
ENDCHAR
STARTCHAR 0x3326
ENCODING 13094
SWIDTH 1000 0
DWIDTH 16 0
BBX 16 16 0 -2
BITMAP
2204
3efe
360c
3618
3630
3e61
37ff
3693
36db
3edb
36db
36db
37b3
3726
2e4e
4404
ENDCHAR
STARTCHAR 0x3327
ENCODING 13095
SWIDTH 1000 0
DWIDTH 16 0
BBX 16 16 0 -2
BITMAP
1002
1fff
1800
1800
1800
1800
1800
1800
1800
1800
1800
1800
3000
3000
2000
4000
ENDCHAR
STARTCHAR 0x3328
ENCODING 13096
SWIDTH 1000 0
DWIDTH 16 0
BBX 16 16 0 -2
BITMAP
0c10
4d1c
6d98
3f30
2e3f
4ca6
7fe6
61c6
6fa6
6bb6
6b9c
6b88
6f9c
69b6
63a7
4142
ENDCHAR
STARTCHAR 0x3329
ENCODING 13097
SWIDTH 1000 0
DWIDTH 16 0
BBX 16 16 0 -2
BITMAP
1804
18fe
180c
5a18
7e30
5a61
5bff
7e93
5adb
5adb
7edb
5adb
19b3
1926
1a4e
1004
ENDCHAR
STARTCHAR 0x332a
ENCODING 13098
SWIDTH 1000 0
DWIDTH 16 0
BBX 16 16 0 -2
BITMAP
0082
00ff
44c6
7efe
6cc6
6cc6
6cfe
6d01
6dff
6d83
6d83
7dff
4983
0183
01ff
0102
ENDCHAR
STARTCHAR 0x332b
ENCODING 13099
SWIDTH 1000 0
DWIDTH 16 0
BBX 16 16 0 -2
BITMAP
0482
0eff
0cc6
18fe
30c6
58c6
18fe
1901
19ff
1983
1983
19ff
1983
1983
19ff
1902
ENDCHAR
STARTCHAR 0x332c
ENCODING 13100
SWIDTH 1000 0
DWIDTH 16 0
BBX 16 16 0 -2
BITMAP
0802
0cff
0c66
3f66
0c66
0c4e
0c84
7f42
0c7f
2c66
2f66
3c7e
3c66
3600
63ff
41fe
ENDCHAR
STARTCHAR 0x332d
ENCODING 13101
SWIDTH 1000 0
DWIDTH 16 0
BBX 16 16 0 -2
BITMAP
1830
1830
1830
18b8
7efe
19f7
1bb2
1d30
1a34
182e
381c
7838
5870
18c0
3980
1200
ENDCHAR
STARTCHAR 0x332e
ENCODING 13102
SWIDTH 1000 0
DWIDTH 16 0
BBX 16 16 0 -2
BITMAP
1030
1c30
1830
3eb8
30fe
21f7
7db2
5b30
1834
7e2e
181c
1838
1a70
1cc0
3980
1200
ENDCHAR
STARTCHAR 0x332f
ENCODING 13103
SWIDTH 1000 0
DWIDTH 16 0
BBX 16 16 0 -2
BITMAP
0821
0cbf
7ff3
0c33
2cb3
3fff
31b3
3fb3
31b3
3fbf
2d33
0cb3
7ff3
0c63
0c47
0c82
ENDCHAR
STARTCHAR 0x3330
ENCODING 13104
SWIDTH 1000 0
DWIDTH 16 0
BBX 16 16 0 -2
BITMAP
0191
499f
7ffb
699b
6ffb
6e7f
6ffb
6e7b
6ffb
6e7f
699b
799b
4ffb
019b
0197
01a2
ENDCHAR
STARTCHAR 0x3331
ENCODING 13105
SWIDTH 1000 0
DWIDTH 16 0
BBX 16 16 0 -2
BITMAP
2191
319f
17fb
019b
47fb
667f
27fb
067b
17fb
167f
319b
319b
77fb
319b
2197
21a2
ENDCHAR
STARTCHAR 0x3332
ENCODING 13106
SWIDTH 1000 0
DWIDTH 16 0
BBX 16 16 0 -2
BITMAP
0666
0ccc
1998
0ccc
0444
0ffc
0ccc
0ffc
0ccc
0ffc
00c2
3fff
03e0
06d8
0cce
1084
ENDCHAR
STARTCHAR 0x3333
ENCODING 13107
SWIDTH 1000 0
DWIDTH 16 0
BBX 16 16 0 -2
BITMAP
0030
0030
4430
7eb8
6cfe
6df7
6db2
6f30
6e74
6c2e
6c1c
7c38
4870
00c0
0180
0200
ENDCHAR
STARTCHAR 0x3334
ENCODING 13108
SWIDTH 1000 0
DWIDTH 16 0
BBX 16 16 0 -2
BITMAP
1030
1830
1830
18b8
5efe
7df7
79b2
5b30
1874
182e
1c1c
1638
2670
24c0
4180
0200
ENDCHAR
STARTCHAR 0x3335
ENCODING 13109
SWIDTH 1000 0
DWIDTH 16 0
BBX 16 16 0 -2
BITMAP
0100
0380
0304
3ffe
0680
06c0
0cc0
0cc8
1ffc
08c0
00c2
7fff
00c0
00c0
00c0
00c0
ENDCHAR
STARTCHAR 0x3336
ENCODING 13110
SWIDTH 1000 0
DWIDTH 16 0
BBX 16 16 0 -2
BITMAP
1020
1830
1830
1830
7e30
1934
1bbe
1db0
19b0
39b0
79b0
59b0
19b0
19b2
3fff
1000
ENDCHAR
STARTCHAR 0x3337
ENCODING 13111
SWIDTH 1000 0
DWIDTH 16 0
BBX 16 16 0 -2
BITMAP
1984
1886
1bec
198c
7f4f
1bfa
1833
1fe3
1b72
3bea
7b6c
5be4
1b66
1b6a
3aeb
1452
ENDCHAR
STARTCHAR 0x3338
ENCODING 13112
SWIDTH 1000 0
DWIDTH 16 0
BBX 16 16 0 -2
BITMAP
1602
1f93
261b
7fdb
269b
3fd3
36c7
2692
0ff8
00c0
0ff8
00c2
3fff
00c0
03c0
0080
ENDCHAR
STARTCHAR 0x3339
ENCODING 13113
SWIDTH 1000 0
DWIDTH 16 0
BBX 16 16 0 -2
BITMAP
0900
0d81
19bf
119b
259b
4d9b
1bdb
399b
599b
199b
19bb
19f3
1bb3
1963
18c7
1102
ENDCHAR
STARTCHAR 0x333a
ENCODING 13114
SWIDTH 1000 0
DWIDTH 16 0
BBX 16 16 0 -2
BITMAP
2184
3086
17ec
018c
434f
67fa
2033
07e3
1372
13ea
336c
33e4
7366
336a
22eb
2452
ENDCHAR
STARTCHAR 0x333b
ENCODING 13115
SWIDTH 1000 0
DWIDTH 16 0
BBX 16 16 0 -2
BITMAP
1091
18df
18db
18db
7ffb
18da
38dc
3dfa
3dfb
5bdb
5adb
5cdf
18da
18d8
18d8
1098
ENDCHAR
STARTCHAR 0x333c
ENCODING 13116
SWIDTH 1000 0
DWIDTH 16 0
BBX 16 16 0 -2
BITMAP
2004
3ffe
30c0
30c0
30c4
3ffe
300c
300c
300c
3ffc
30c8
30c0
30c0
30c4
3ffe
2000
ENDCHAR
STARTCHAR 0x333d
ENCODING 13117
SWIDTH 1000 0
DWIDTH 16 0
BBX 16 16 0 -2
BITMAP
1002
1fff
1800
1ffc
1800
1802
1fff
1b44
1b6e
1b38
1b10
1b38
331e
2367
4f82
0600
ENDCHAR
STARTCHAR 0x333e
ENCODING 13118
SWIDTH 1000 0
DWIDTH 16 0
BBX 16 16 0 -2
BITMAP
0180
0180
09b0
1d98
198c
318e
4184
0380
0100
0180
0190
1ff8
0180
0180
0184
3ffe
ENDCHAR
STARTCHAR 0x333f
ENCODING 13119
SWIDTH 1000 0
DWIDTH 16 0
BBX 16 16 0 -2
BITMAP
0ff8
0c18
0ff8
0c18
0ff8
1000
1ffc
1800
1bf8
1800
1ffc
1b44
333e
2358
47ae
0204
ENDCHAR
STARTCHAR 0x3340
ENCODING 13120
SWIDTH 1000 0
DWIDTH 16 0
BBX 16 16 0 -2
BITMAP
1860
1860
1962
1bff
1f66
3e64
7860
5860
1870
1878
18d8
18d8
189a
199a
191f
120e
ENDCHAR
STARTCHAR 0x3341
ENCODING 13121
SWIDTH 1000 0
DWIDTH 16 0
BBX 16 16 0 -2
BITMAP
2102
13ff
1b06
1a04
4088
20fc
30d8
34d8
04d8
0cd8
48d8
3998
391a
331a
321f
140e
ENDCHAR
STARTCHAR 0x3342
ENCODING 13122
SWIDTH 1000 0
DWIDTH 16 0
BBX 16 16 0 -2
BITMAP
4420
7e32
6dff
6c60
6ce0
68b0
7132
69ff
6c30
6cb8
6df4
7db6
6b37
6233
64f2
6020
ENDCHAR
STARTCHAR 0x3343
ENCODING 13123
SWIDTH 1000 0
DWIDTH 16 0
BBX 16 16 0 -2
BITMAP
0830
0c30
0c78
3ecc
0c97
0d3a
0c60
7e88
0c1c
2c30
2e64
3c8e
3c38
3640
63ff
41fe
ENDCHAR
STARTCHAR 0x3344
ENCODING 13124
SWIDTH 1000 0
DWIDTH 16 0
BBX 16 16 0 -2
BITMAP
200c
180c
0c0c
7e0d
06ff
0c0c
188c
3acc
7c6c
5a6c
1a4c
180c
180c
182c
181c
1808
ENDCHAR
STARTCHAR 0x3345
ENCODING 13125
SWIDTH 1000 0
DWIDTH 16 0
BBX 16 16 0 -2
BITMAP
18b4
197a
1bff
1b06
7efc
18cc
18fc
1c04
19fe
1830
39fe
7830
5bff
1830
3870
1020
ENDCHAR
STARTCHAR 0x3346
ENCODING 13126
SWIDTH 1000 0
DWIDTH 16 0
BBX 16 16 0 -2
BITMAP
0220
0f30
3c60
0c42
0cff
7fa6
1d34
1eb0
3ef8
2df4
2db6
4d33
0e32
0c30
0c70
0820
ENDCHAR
STARTCHAR 0x3347
ENCODING 13127
SWIDTH 1000 0
DWIDTH 16 0
BBX 16 16 0 -2
BITMAP
1016
181b
1a1a
1bff
7f18
1b18
1bfa
1b7b
1b7b
1b7e
1fec
7b4c
261d
0635
0c67
1083
ENDCHAR
STARTCHAR 0x3348
ENCODING 13128
SWIDTH 1000 0
DWIDTH 16 0
BBX 16 16 0 -2
BITMAP
1844
1bed
1a7b
194a
7d8c
1b06
3fff
3d02
3ffc
5b8c
598c
59fc
190c
19c8
1892
1bff
ENDCHAR
STARTCHAR 0x3349
ENCODING 13129
SWIDTH 1000 0
DWIDTH 16 0
BBX 16 16 0 -2
BITMAP
0050
006e
1064
1fff
1860
1862
18b3
1ff6
19b6
19b4
19bc
1998
371d
323d
2067
4083
ENDCHAR
STARTCHAR 0x334a
ENCODING 13130
SWIDTH 1000 0
DWIDTH 16 0
BBX 16 16 0 -2
BITMAP
0804
0ffe
0c0c
0c0c
0ffc
0c08
0004
1ffe
00c0
00c8
0ffc
00c0
00c0
00c0
00c2
3fff
ENDCHAR
STARTCHAR 0x334b
ENCODING 13131
SWIDTH 1000 0
DWIDTH 16 0
BBX 16 16 0 -2
BITMAP
0070
1ffc
00c0
06da
3edf
06dc
06da
3edf
11ee
03e0
03d0
06d8
0cce
18c7
20c2
00c0
ENDCHAR
STARTCHAR 0x334c
ENCODING 13132
SWIDTH 1000 0
DWIDTH 16 0
BBX 16 16 0 -2
BITMAP
0682
3fff
0cc6
0cc6
0cfe
7f84
1c00
1e7e
3f18
2d18
2c7e
4c18
0c18
0c18
0c1a
0cff
ENDCHAR
STARTCHAR 0x334d
ENCODING 13133
SWIDTH 1000 0
DWIDTH 16 0
BBX 16 16 0 -2
BITMAP
0804
1dfe
3030
2830
4db4
19be
39b0
59b0
19b2
1bff
0188
16ec
3646
7613
67fa
23f0
ENDCHAR
STARTCHAR 0x334e
ENCODING 13134
SWIDTH 1000 0
DWIDTH 16 0
BBX 16 16 0 -2
BITMAP
2044
13ed
1a7b
094a
418c
2306
33ff
3502
05fc
0d8c
498c
39fc
3908
318c
30da
13ff
ENDCHAR
STARTCHAR 0x334f
ENCODING 13135
SWIDTH 1000 0
DWIDTH 16 0
BBX 16 16 0 -2
BITMAP
0018
201e
321b
1bff
1318
0b18
7ffa
1b7b
1b7b
1b7e
1bec
1b4c
1b1d
1e35
3a67
1483
ENDCHAR
STARTCHAR 0x3350
ENCODING 13136
SWIDTH 1000 0
DWIDTH 16 0
BBX 16 16 0 -2
BITMAP
0010
0ff8
0030
0060
00c0
0482
3cd7
0ffc
0cd8
0fe8
18cc
13ec
30c6
20c7
43c2
0080
ENDCHAR
STARTCHAR 0x3351
ENCODING 13137
SWIDTH 1000 0
DWIDTH 16 0
BBX 16 16 0 -2
BITMAP
4102
31ff
3186
0186
09fe
7d04
19fe
1830
1834
19fe
1830
1832
1bff
1c00
77ff
21fe
ENDCHAR
STARTCHAR 0x3352
ENCODING 13138
SWIDTH 1000 0
DWIDTH 16 0
BBX 16 16 0 -2
BITMAP
0430
7f32
0dff
6db6
6dfe
6db6
6dfe
7e02
07ff
0662
06ff
0f86
7606
462c
0e1c
0408
ENDCHAR
STARTCHAR 0x3353
ENCODING 13139
SWIDTH 1000 0
DWIDTH 16 0
BBX 16 16 0 -2
BITMAP
0604
3ffe
0c30
0d34
0db6
7fb6
1cb4
1eb9
3fff
2c30
2c30
4c30
0c30
0c30
0c30
0c20
ENDCHAR
STARTCHAR 0x3354
ENCODING 13140
SWIDTH 1000 0
DWIDTH 16 0
BBX 16 16 0 -2
BITMAP
0020
0070
4460
7ec2
6cff
6d80
6e04
6cfe
6c0c
6c38
6c60
7cc0
6d82
0182
01ff
00fe
ENDCHAR
STARTCHAR 0x3355
ENCODING 13141
SWIDTH 1000 0
DWIDTH 16 0
BBX 16 16 0 -2
BITMAP
00c0
1062
1fff
1b00
5b00
7a22
3fff
1db6
19b6
3ff6
79b6
59b6
11b6
337e
2266
4440
ENDCHAR
ENDFONT
